<?xml version="1.0" encoding="utf-8"?>
<!-- Generator: Adobe Illustrator 19.0.0, SVG Export Plug-In . SVG Version: 6.00 Build 0)  -->
<svg version="1.1" xmlns="http://www.w3.org/2000/svg" xmlns:xlink="http://www.w3.org/1999/xlink" x="0px" y="0px"
	 viewBox="-180 271.2 250.8 250.8" style="enable-background:new -180 271.2 250.8 250.8;" xml:space="preserve">
<style type="text/css">
	.st0{fill:#00A19A;}
	.st1{fill:#3F2D20;}
	.st2{fill:#CE593F;}
	.st3{fill:#FFFFFF;}
</style>
<g id="Lager_1">
	<g id="Lager_2">
		<circle id="XMLID_8_" class="st0" cx="-54.6" cy="396.6" r="125.4"/>
	</g>
</g>
<g id="Lager_2_1_">
	<g>
		<g>
			<g id="XMLID_1_">
				<g>
					<path class="st1" d="M-130.3,405.5c1,3.2,2.4,6,4.1,8.4c0.2,0.3,0.4,0.6,0.6,0.9c0.2,0.3,0.4,0.5,0.6,0.8c0,0,0.1,0.1,0.1,0.1
						c0.2,0.2,0.4,0.5,0.6,0.7c0.5,0.6,1,1.1,1.5,1.6c0.3,0.3,0.5,0.5,0.8,0.7c0.1,0.1,0.3,0.3,0.4,0.4c0.2,0.2,0.4,0.4,0.7,0.6
						c0.3,0.2,0.5,0.4,0.8,0.6c0.2,0.1,0.3,0.3,0.5,0.4c0.6,0.4,1.2,0.9,1.8,1.3l69.3-76.6l3.8-4.2c-6.4-1-12.7-1.6-19-1.6
						c-2.6,0-5.2,0.1-7.8,0.3L-130.3,405.5z M30.2,383.3c0,0.2,0,26.4,0,26.6c-1.4,8.4-5.3,14.8-11.3,18.6c-6.9,4.4-16,4.9-27.1,1.8
						c-17-4.9-34,0.1-57,16.6c-8.8,6.3-20.2,9.6-31.4,9.6c-7.3,0-14.4-1.4-20.6-4.3c-13.1-6.1-20.9-18.1-22.1-33.9
						c0-0.1,0-25.2,0-25.4c-0.2-17.2,7.1-29.3,13.5-36.6c7.1-8.1,14.4-12,15.4-12.5c13.1-7.5,29.3-11.4,46.7-11.4
						c15.9,0,32.5,3.3,47.9,9.5c17.6,7,30.3,14.9,37.7,23.3C27.1,370.9,29.9,377,30.2,383.3z M23.5,409v-5.4
						c-0.2,0.2-0.3,0.3-0.5,0.4v-0.4c-1,1.1-2.2,2.1-3.4,2.9c-4.3,2.7-9.2,4-15.1,4c0,0,0,0,0,0c-3.9,0-8.3-0.5-12.9-1.8
						c-4.1-1.2-8.2-1.7-12.4-1.7c-13.1,0-26.8,5.7-44.5,18.4c-8.5,6.1-19.9,9.6-31.3,9.6c-10.8,0-20.7-3.2-28.1-8.9
						c-0.6-0.5-1.2-1-1.8-1.5c0.1,0.1,0.2,0.1,0.2,0.2c-2.3-2-4.2-4.2-5.9-6.7c1.4,16.4,10.5,24,18,27.5c0.8,0.4,1.6,0.7,2.5,1
						c5.3,2,11.3,2.8,17.3,2.6c0,0,0.1,0,0.1,0c0,0,0.1,0,0.1,0c0.5,0,1.1-0.1,1.7-0.1c0.6,0,1.1-0.1,1.6-0.2
						c1.1-0.1,2.3-0.3,3.4-0.5c0.6-0.1,1.2-0.2,1.8-0.4c0.6-0.1,1.2-0.3,1.8-0.4c0,0,0,0,0,0c0.5-0.1,1-0.3,1.5-0.4
						c0.2,0,0.3-0.1,0.5-0.1c0.5-0.1,1-0.3,1.4-0.5c0.6-0.2,1.1-0.4,1.7-0.6c0,0,0,0,0,0c0.5-0.2,1-0.4,1.6-0.6c0.1,0,0.1,0,0.2-0.1
						c0.5-0.2,0.9-0.4,1.3-0.6c0.1-0.1,0.2-0.1,0.3-0.2c0.5-0.2,1-0.5,1.5-0.7c0.5-0.3,1-0.6,1.5-0.9c0.5-0.3,1-0.6,1.5-0.9
						c0.5-0.3,1-0.6,1.4-1c12-8.6,22.5-14.2,32.1-17.1c10.8-3.3,20.9-3.5,31.1-0.6c1.5,0.4,3,0.8,4.4,1.1c0.5,0.1,0.9,0.2,1.4,0.3
						c0.5,0.1,0.9,0.1,1.4,0.2c0.4,0.1,0.9,0.1,1.3,0.1c0.4,0,0.9,0.1,1.3,0.1c0.7,0,1.4,0,2,0c3.8-0.1,7.1-1,9.7-2.7
						c2.1-1.3,3.5-3,4.5-4.8c0,0,0.1-0.1,0.1-0.1c1.1-1.7,1.9-3.6,2.4-5.4C22.7,411,23.1,409.9,23.5,409z M22.9,385.8
						c0.1-1,0.1-1.9,0-2.9c0-0.3,0-0.6-0.1-0.9c0,0,0,0,0,0c0-0.3-0.1-0.6-0.1-0.9c-0.1-0.4-0.1-0.8-0.3-1.1c0,0,0,0,0,0
						c-0.1-0.4-0.2-0.7-0.3-1.1c0,0,0,0,0,0c0,0,0,0,0-0.1c-0.1-0.4-0.2-0.7-0.4-1.1c-0.1-0.2-0.2-0.4-0.3-0.6
						c-0.2-0.4-0.4-0.8-0.6-1.2c-0.3-0.5-0.6-1.1-0.9-1.6c-0.2-0.4-0.5-0.8-0.7-1.1c-0.1-0.1-0.2-0.3-0.3-0.4
						c-0.2-0.3-0.4-0.5-0.5-0.8c-0.2-0.3-0.4-0.5-0.6-0.8c-0.1-0.1-0.2-0.2-0.3-0.3c-0.3-0.4-0.6-0.8-1-1.1c-0.3-0.4-0.7-0.8-1-1.1
						l-28.5,31.9c0.5,0.1,1,0.2,1.4,0.3c0.5,0.1,1,0.2,1.5,0.3c0.2,0,0.4,0.1,0.6,0.1c0,0,0.1,0,0.1,0c0.4,0.1,0.9,0.2,1.3,0.3
						c0.6,0.1,1.1,0.3,1.7,0.4c4,1.1,7.7,1.7,10.9,1.7c12.9,0,17-8.9,18.3-16.3C22.8,386.8,22.9,386.3,22.9,385.8z M7.5,366.8
						l2.6-2.9c-4.8-3.7-10.8-7.3-18.2-10.8l-56.5,63.2c0.9-0.6,1.8-1.2,2.7-1.8c0.3-0.2,0.7-0.4,1-0.6c0.6-0.4,1.1-0.7,1.7-1
						c0.4-0.3,0.8-0.5,1.2-0.7c0.5-0.3,0.9-0.6,1.4-0.8c0.4-0.3,0.9-0.5,1.3-0.7c0.1,0,0.2-0.1,0.3-0.2c0.3-0.2,0.6-0.3,0.9-0.5
						c0.8-0.4,1.5-0.8,2.2-1.2c0.4-0.2,0.7-0.4,1.1-0.6s0.7-0.4,1.1-0.6c2.9-1.5,5.7-2.7,8.5-3.7c0.3-0.1,0.7-0.3,1-0.4
						c0.2-0.1,0.4-0.1,0.6-0.2c0.3-0.1,0.6-0.2,0.9-0.3c0.2-0.1,0.3-0.1,0.5-0.2c0.7-0.2,1.4-0.4,2-0.6c0.6-0.2,1.3-0.3,1.9-0.5
						c1.1-0.3,2.3-0.5,3.4-0.7c0.4-0.1,0.8-0.1,1.2-0.2c0.4-0.1,0.8-0.1,1.2-0.2c0.3,0,0.6-0.1,0.9-0.1c0.2,0,0.4-0.1,0.6-0.1
						c0.3,0,0.6-0.1,0.9-0.1c0,0,0,0,0,0c0.5-0.1,1-0.1,1.6-0.1c0.1,0,0.2,0,0.3,0c0.6,0,1.2-0.1,1.8-0.1L7.5,366.8z M-18.1,353.5
						l3.1-3.5c-1.1-0.5-2.3-0.9-3.4-1.4c-5.9-2.4-11.9-4.3-18-5.7l-74.7,82.6c0.6,0.2,1.1,0.4,1.7,0.6c0,0,0,0,0.1,0
						c0.5,0.2,1,0.3,1.5,0.4c0,0,0.1,0,0.1,0c0.1,0,0.1,0,0.2,0.1c0.4,0.1,0.8,0.2,1.2,0.3c0.2,0.1,0.4,0.1,0.7,0.1
						c0.4,0.1,0.7,0.1,1.1,0.2c0.4,0.1,0.8,0.1,1.2,0.2c0.2,0,0.3,0.1,0.5,0.1c0.4,0.1,0.8,0.1,1.2,0.2c0.2,0,0.4,0,0.6,0.1
						c0.3,0,0.6,0.1,0.9,0.1c0.2,0,0.5,0.1,0.7,0.1c0.2,0,0.3,0,0.5,0c0.5,0,1,0.1,1.5,0.1c0.3,0,0.6,0,0.9,0c2.9,0,5.8-0.3,8.6-0.8
						c1.7-0.3,3.3-0.7,5-1.1L-18.1,353.5z M-89.4,349.1l7-7.8c-13.5,2.1-24.6,8.8-24.7,8.9c-0.1,0-6.9,3.6-13.5,11.1
						c-12.5,14.1-11.4,35.3-11.4,35.4l5.6-6.2L-89.4,349.1z"/>
					<path class="st2" d="M23.5,403.6v5.4c-0.4,0.9-0.8,2-1.2,3c0.3-1,0.5-2.1,0.7-3v-5C23.2,403.9,23.3,403.7,23.5,403.6z"/>
					<path class="st2" d="M23,404v5c-0.2,0.9-0.4,2-0.7,3c-0.7,1.8-1.4,3.7-2.4,5.4c0,0-0.1,0.1-0.1,0.1c-1.2,1.8-2.7,3.5-4.8,4.8
						c-2.6,1.6-5.8,2.5-9.5,2.7c-0.7,0-1.3,0-2,0c-0.4,0-0.9,0-1.3-0.1s-0.9-0.1-1.3-0.1c-0.4-0.1-0.9-0.1-1.4-0.2
						c-0.5-0.1-0.9-0.2-1.4-0.3c-1.4-0.3-2.9-0.6-4.4-1.1c-10.1-2.9-20.3-2.7-31.1,0.6c-9.7,2.9-20.2,8.5-32.1,17.1
						c-0.5,0.3-1,0.7-1.4,1c-0.5,0.3-1,0.6-1.5,0.9c-0.5,0.3-1,0.6-1.5,0.9c-0.5,0.3-1,0.5-1.5,0.7c-0.1,0.1-0.2,0.1-0.3,0.2
						c-0.4,0.2-0.9,0.4-1.3,0.6c-0.1,0-0.1,0.1-0.2,0.1c-0.5,0.2-1,0.4-1.6,0.6c0,0,0,0,0,0c-0.6,0.2-1.1,0.4-1.7,0.6
						c-0.5,0.2-1,0.3-1.4,0.5c-0.2,0-0.3,0.1-0.5,0.1c-0.5,0.1-1,0.3-1.5,0.4c0,0,0,0,0,0c-0.6,0.2-1.2,0.3-1.8,0.4
						s-1.2,0.3-1.8,0.4c-1.1,0.2-2.3,0.4-3.4,0.5c-0.5,0.1-1.1,0.1-1.6,0.2c-0.5,0.1-1.1,0.1-1.7,0.1c-5.4-0.3-10.6-1.5-15.2-3.6
						c-6.3-3-13.9-8.9-16.9-20.8c0.5,0.5,1,0.9,1.6,1.3c7.3,5.8,17.3,9,28.1,9c11.4,0,22.8-3.5,31.3-9.6
						c17.7-12.7,31.4-18.4,44.5-18.4c4.2,0,8.2,0.6,12.4,1.8c4.6,1.3,9,2,12.9,2c5.9,0,11.1-1.5,15.1-4.4
						C20.8,405.8,21.9,405,23,404z"/>
					<path class="st3" d="M22.8,382C22.8,382,22.8,382,22.8,382c0,0,0,0.1,0,0.1c0.1,0.5,0.1,0.9,0.2,1.4c0,0.3,0,0.7,0,1.1
						c0,0.2,0,0.4,0,0.5c0,0.2,0,0.4,0,0.6c0,0.4-0.1,0.8-0.1,1.2c-0.6-4.6-3.1-9.1-7.3-13.5l-24.9,27.8c-0.1,0-0.1,0-0.1,0
						c-0.2-0.1-0.4-0.1-0.6-0.1c-0.5-0.1-1-0.2-1.5-0.3c-0.5-0.1-1-0.2-1.4-0.3l28.5-31.9c0.4,0.4,0.7,0.8,1,1.1
						c0.3,0.4,0.7,0.8,1,1.1c0.1,0.1,0.2,0.2,0.3,0.3c0.2,0.3,0.4,0.5,0.6,0.8c0.2,0.3,0.4,0.5,0.5,0.8c0.1,0.1,0.2,0.2,0.3,0.4
						c0.3,0.4,0.5,0.8,0.7,1.1c0.3,0.5,0.6,1.1,0.9,1.6c0.2,0.4,0.4,0.8,0.6,1.2c0.1,0.2,0.2,0.4,0.3,0.6c0.1,0.3,0.3,0.7,0.4,1.1
						c0,0,0,0.1,0,0.1c0,0,0,0,0,0c0.1,0.4,0.2,0.7,0.3,1.1c0,0,0,0,0,0c0.1,0.4,0.2,0.8,0.3,1.1C22.7,381.4,22.8,381.7,22.8,382z"
						/>
					<path class="st2" d="M22.9,385.8c0-0.2,0-0.4,0-0.6C23,385.4,23,385.6,22.9,385.8z"/>
					<path class="st2" d="M22.9,382.9c0,0.2,0,0.4,0.1,0.7c0-0.5-0.1-0.9-0.2-1.4C22.8,382.4,22.9,382.6,22.9,382.9z"/>
					<path class="st2" d="M22.9,385.8c0,0.5-0.1,1.1-0.2,1.6c-1.2,7.5-5.4,16.3-18.3,16.3c-3.3,0-6.9-0.6-10.9-1.7
						c-0.5-0.2-1.1-0.3-1.7-0.4c-0.4-0.1-0.9-0.2-1.3-0.3l24.9-27.8c4.2,4.4,6.7,8.9,7.3,13.5C22.9,386.6,22.9,386.2,22.9,385.8z"/>
					<path class="st2" d="M19.6,406.5c-4.1,2.9-9.2,4.4-15.1,4.4c-3.9,0-8.3-0.7-12.9-2c-4.1-1.2-8.2-1.8-12.4-1.8
						c-13.1,0-26.8,5.7-44.5,18.4c-8.5,6.1-19.9,9.6-31.3,9.6c-10.8,0-20.7-3.2-28.1-9c-0.6-0.4-1.1-0.9-1.6-1.3
						c-0.1-0.1-0.2-0.1-0.2-0.2c0.6,0.5,1.2,1,1.8,1.5c7.4,5.8,17.3,8.9,28.1,8.9c11.4,0,22.8-3.5,31.3-9.6
						c17.7-12.7,31.4-18.4,44.5-18.4c4.2,0,8.2,0.5,12.4,1.7c4.6,1.3,9,1.8,12.9,1.8c0,0,0,0,0,0C10.5,410.5,15.3,409.2,19.6,406.5z
						"/>
					<path class="st2" d="M15,422.4c2.1-1.3,3.6-3,4.8-4.8c-1.1,1.8-2.5,3.5-4.5,4.8c-2.6,1.7-5.9,2.6-9.7,2.7
						C9.3,424.9,12.4,424,15,422.4z"/>
					<path class="st3" d="M10.1,363.9l-2.6,2.9c-4.3-3-9.5-6-15.6-8.9l-46.9,52.4c0,0-0.1,0-0.1,0.1c-0.1,0.1-0.2,0.1-0.3,0.2
						c-0.4,0.2-0.8,0.5-1.3,0.7c-0.5,0.3-0.9,0.5-1.4,0.8c-0.4,0.2-0.8,0.5-1.2,0.7c-0.5,0.3-1.1,0.7-1.7,1c-0.3,0.2-0.7,0.4-1,0.6
						c-0.9,0.6-1.8,1.2-2.7,1.8L-8.1,353C-0.8,356.5,5.3,360.2,10.1,363.9z"/>
					<path class="st2" d="M7.5,366.8L-22.2,400c-0.6,0-1.2,0-1.8,0.1c-0.1,0-0.2,0-0.3,0c-0.5,0-1,0.1-1.6,0.1c0,0,0,0,0,0
						c-0.3,0-0.6,0.1-0.9,0.1c-0.2,0-0.4,0-0.6,0.1c-0.3,0-0.6,0.1-0.9,0.1c-0.4,0.1-0.8,0.1-1.2,0.2c-0.4,0.1-0.8,0.1-1.2,0.2
						c-1.1,0.2-2.2,0.5-3.4,0.7c-0.6,0.2-1.3,0.3-1.9,0.5c-0.7,0.2-1.4,0.4-2,0.6c-0.2,0-0.3,0.1-0.5,0.2c-0.3,0.1-0.6,0.2-0.9,0.3
						c-0.2,0.1-0.4,0.1-0.6,0.2c-0.3,0.1-0.7,0.2-1,0.4c-2.8,1-5.6,2.3-8.5,3.7c-0.4,0.2-0.7,0.4-1.1,0.6c-0.4,0.2-0.7,0.4-1.1,0.6
						c-0.7,0.4-1.5,0.8-2.2,1.2c-0.3,0.1-0.5,0.3-0.8,0.4l46.9-52.4C-2,360.7,3.2,363.7,7.5,366.8z"/>
					<path class="st1" d="M-10.2,401.1c-0.5-0.1-1-0.2-1.5-0.3C-11.1,400.9-10.6,401-10.2,401.1z"/>
					<path class="st3" d="M-15,349.9l-3.1,3.5c-0.1,0-0.2-0.1-0.3-0.1c-5.9-2.4-11.9-4.3-18-5.7l-71.3,78.8c0,0-0.1,0-0.1,0
						c-0.3-0.1-0.5-0.1-0.7-0.2c-0.3-0.1-0.6-0.2-0.8-0.3c-0.6-0.2-1.1-0.4-1.7-0.6l74.7-82.6c6.1,1.4,12.2,3.3,18,5.7
						C-17.3,349-16.1,349.5-15,349.9z"/>
					<path class="st2" d="M-18.1,353.5L-83,426c-1.6,0.5-3.3,0.8-5,1.1c-2.8,0.5-5.7,0.7-8.6,0.7c-0.3,0-0.6,0-0.9,0
						c-0.5,0-1,0-1.5-0.1c-0.2,0-0.3,0-0.5,0c-0.2,0-0.5,0-0.7-0.1c-0.3,0-0.6,0-0.9-0.1c-0.2,0-0.4-0.1-0.6-0.1
						c-0.4,0-0.8-0.1-1.2-0.2c-0.2,0-0.3,0-0.5-0.1c-0.4-0.1-0.8-0.1-1.2-0.2c-0.4-0.1-0.7-0.1-1.1-0.2c-0.2,0-0.4-0.1-0.7-0.1
						c-0.4-0.1-0.8-0.2-1.2-0.3c-0.1,0-0.1,0-0.2-0.1l71.3-78.8c6.1,1.4,12.2,3.3,18,5.7C-18.3,353.4-18.2,353.4-18.1,353.5z"/>
					<path class="st2" d="M-22.2,400c-0.6,0-1.2,0-1.8,0.1C-23.4,400-22.8,400-22.2,400z"/>
					<path class="st2" d="M-24.3,400.1c-0.5,0-1,0.1-1.6,0.1C-25.3,400.1-24.8,400.1-24.3,400.1z"/>
					<path class="st2" d="M-34.2,401.6c-0.6,0.2-1.3,0.3-1.9,0.5C-35.5,401.9-34.8,401.8-34.2,401.6z"/>
					<path class="st2" d="M-36.1,402.1c-0.7,0.2-1.4,0.4-2,0.6C-37.5,402.5-36.8,402.3-36.1,402.1z"/>
					<path class="st2" d="M-40.2,403.4c-0.3,0.1-0.7,0.2-1,0.4C-40.9,403.7-40.5,403.5-40.2,403.4z"/>
					<path class="st3" d="M-44.7,341.2l-3.8,4.2c-5.1-0.7-10.2-1-15.2-1c-2.6,0-5.2,0.1-7.8,0.3l-57.5,64.2c0.8,1.8,1.7,3.5,2.8,5
						c-1.7-2.4-3.1-5.2-4.1-8.4l58.8-65.7c2.5-0.2,5.2-0.3,7.8-0.3C-57.4,339.6-51.1,340.1-44.7,341.2z"/>
					<path class="st2" d="M-48.5,345.4l-69.3,76.6c-0.6-0.4-1.2-0.8-1.8-1.3c-0.2-0.1-0.3-0.3-0.5-0.4c-0.3-0.2-0.5-0.4-0.8-0.6
						c-0.2-0.2-0.5-0.4-0.7-0.6c-0.1-0.1-0.3-0.2-0.4-0.4c-0.3-0.2-0.5-0.5-0.8-0.7c-0.5-0.5-1-1-1.5-1.6c-0.2-0.2-0.4-0.4-0.6-0.7
						c0,0-0.1-0.1-0.1-0.1c-0.2-0.3-0.4-0.5-0.6-0.8c-0.2-0.3-0.4-0.6-0.6-0.9c-1-1.5-2-3.2-2.8-5l57.5-64.2
						c2.6-0.2,5.2-0.3,7.8-0.3C-58.7,344.4-53.6,344.7-48.5,345.4z"/>
					<path class="st2" d="M-49.7,407.5c-0.4,0.2-0.7,0.4-1.1,0.6C-50.5,407.9-50.1,407.7-49.7,407.5z"/>
					<path class="st2" d="M-54.2,409.8c0.8-0.4,1.5-0.8,2.2-1.2C-52.7,409-53.4,409.4-54.2,409.8z"/>
					<path class="st2" d="M-54.2,409.8c-0.3,0.2-0.6,0.3-0.9,0.5c0,0,0.1,0,0.1-0.1C-54.7,410.1-54.4,410-54.2,409.8z"/>
					<path class="st1" d="M-56.6,411.2c-0.5,0.3-0.9,0.5-1.4,0.8C-57.5,411.8-57.1,411.5-56.6,411.2z"/>
					<path class="st2" d="M-70.9,442c0.5-0.3,1-0.6,1.4-1C-69.9,441.3-70.4,441.7-70.9,442z"/>
					<path class="st2" d="M-72.4,442.9c0.5-0.3,1-0.6,1.5-0.9C-71.4,442.3-71.9,442.6-72.4,442.9z"/>
					<path class="st2" d="M-74,443.8c0.5-0.3,1-0.6,1.5-0.9C-72.9,443.2-73.4,443.5-74,443.8z"/>
					<path class="st2" d="M-75.4,444.5c0.5-0.2,1-0.5,1.5-0.7C-74.4,444-74.9,444.3-75.4,444.5z"/>
					<path class="st2" d="M-77.1,445.3c0.5-0.2,0.9-0.4,1.3-0.6C-76.2,444.9-76.6,445.1-77.1,445.3z"/>
					<path class="st2" d="M-78.8,446c0.5-0.2,1-0.4,1.6-0.6C-77.8,445.6-78.3,445.8-78.8,446z"/>
					<path class="st2" d="M-80.5,446.6c0.6-0.2,1.1-0.4,1.7-0.6C-79.4,446.2-80,446.4-80.5,446.6z"/>
					<path class="st2" d="M-80.5,446.6c-0.5,0.2-1,0.3-1.4,0.5C-81.5,446.9-81,446.8-80.5,446.6z"/>
					<path class="st2" d="M-84,447.6c0.5-0.1,1-0.3,1.5-0.4C-82.9,447.4-83.4,447.5-84,447.6z"/>
					<path class="st3" d="M-82.4,341.3l-7,7.8c-7.6,2.7-12.8,5.9-12.9,5.9c-0.1,0-6.9,3.6-13.5,11.1c-6.7,7.5-9.5,17.1-10.6,24.4
						l-5.6,6.2c0-0.1-1.1-21.3,11.4-35.4c6.6-7.4,13.4-11,13.5-11.1C-107,350.1-95.9,343.4-82.4,341.3z"/>
					<path class="st2" d="M-85.8,448.1c0.6-0.1,1.2-0.3,1.8-0.4C-84.6,447.8-85.2,448-85.8,448.1z"/>
					<path class="st2" d="M-87.5,448.4c0.6-0.1,1.2-0.2,1.8-0.4C-86.3,448.2-86.9,448.3-87.5,448.4z"/>
					<path class="st2" d="M-89.4,349.1l-37,41.3c1.1-7.3,3.9-16.8,10.6-24.4c6.6-7.4,13.4-11,13.5-11.1
						C-102.3,355-97,351.8-89.4,349.1z"/>
					<path class="st3" d="M-111.7,446.6c-0.8-0.3-1.7-0.7-2.5-1c-7.4-3.5-16.6-11.1-18-27.5c1.7,2.5,3.7,4.7,5.9,6.7
						c2.9,11.9,10.5,17.8,16.9,20.8c4.6,2.1,9.8,3.3,15.2,3.6c0,0-0.1,0-0.1,0c0,0-0.1,0-0.1,0
						C-100.4,449.5-106.4,448.6-111.7,446.6z"/>
					<path class="st2" d="M-96.6,427.9c2.9,0,5.8-0.3,8.6-0.7C-90.8,427.7-93.7,427.9-96.6,427.9c-0.3,0-0.6,0-0.9,0
						C-97.2,427.9-96.9,427.9-96.6,427.9z"/>
					<path class="st2" d="M-97.5,427.9c-0.5,0-1,0-1.5-0.1C-98.5,427.9-98,427.9-97.5,427.9z"/>
					<path class="st2" d="M-100.2,427.8c0.3,0,0.5,0,0.7,0.1C-99.8,427.8-100,427.8-100.2,427.8z"/>
					<path class="st2" d="M-101.8,427.6c0.2,0,0.4,0,0.6,0.1C-101.4,427.7-101.6,427.6-101.8,427.6z"/>
					<path class="st2" d="M-103.5,427.4c0.2,0,0.3,0.1,0.5,0.1C-103.2,427.4-103.3,427.4-103.5,427.4z"/>
					<path class="st2" d="M-108.6,426.2c-0.3-0.1-0.5-0.1-0.8-0.2c0,0,0,0-0.1,0C-109.2,426.1-108.9,426.2-108.6,426.2z"/>
					<path class="st2" d="M-121.6,419.2c0.2,0.2,0.4,0.4,0.7,0.6C-121.1,419.6-121.4,419.4-121.6,419.2z"/>
				</g>
				<g>
				</g>
			</g>
		</g>
	</g>
</g>
</svg>
