<?xml version="1.0" encoding="utf-8"?>
<!-- Generator: Adobe Illustrator 19.0.0, SVG Export Plug-In . SVG Version: 6.00 Build 0)  -->
<svg version="1.1" xmlns="http://www.w3.org/2000/svg" xmlns:xlink="http://www.w3.org/1999/xlink" x="0px" y="0px"
	 viewBox="-74.5 307.9 132 187.6" style="enable-background:new -74.5 307.9 132 187.6;" xml:space="preserve">
<style type="text/css">
	.st0{fill:#F4AF30;}
	.st1{fill:#DD992A;}
	.st2{fill:#794C2B;}
	.st3{fill:#6D4326;}
	.st4{fill:#494949;}
</style>
<g id="Layer_1">
	<g>
		<g>
			<path class="st0" d="M-40.3,495.5h63.7c18.9,0,34.2-15.3,34.2-34.2v-96.7c0-18.9-15.3-34.2-34.2-34.2h-63.7
				c-18.9,0-34.2,15.3-34.2,34.2v96.7C-74.5,480.2-59.2,495.5-40.3,495.5z"/>
		</g>
		<g>
			<path class="st1" d="M23.3,330.5H-9.3v165h32.7c18.9,0,34.2-15.3,34.2-34.2v-96.7C57.5,345.8,42.2,330.5,23.3,330.5z"/>
		</g>
		<g>
			<path class="st2" d="M-53.8,333.1h90.5c2.9,0,5.2-2.3,5.2-5.2v-14.8c0-2.9-2.3-5.2-5.2-5.2h-90.5c-2.9,0-5.2,2.3-5.2,5.2v14.8
				C-59,330.8-56.7,333.1-53.8,333.1z"/>
		</g>
		<g>
			<path class="st3" d="M36.8,307.9H-9.3v25.3h46.1c2.9,0,5.2-2.3,5.2-5.2v-14.8C42,310.2,39.7,307.9,36.8,307.9z"/>
		</g>
	</g>
</g>
<g id="Lager_3">
</g>
<g id="Lager_2">
	<g>
		<path d="M-55.8,410.2c0,2.1,0,3.5,0.1,4.3s0.2,2,0.4,3.5h-8c0.3-2.7,0.5-5.3,0.5-7.8v-23.4c0-1,0-2.1,0-3.2c0-1.2-0.2-2.7-0.4-4.6
			h11.7c3.7,0,6.6,0.7,8.6,2.1c2.3,1.6,3.5,4.3,3.5,7.9c0,3.8-1.3,7.1-4,9.9c-2.2,2.3-5.3,4.4-9.2,6l-3-4.7V410.2z M-55.8,399
			c2.6-0.9,4.6-2.1,6.2-3.5c2-1.8,3-3.8,3-6.2c0-1.7-0.6-2.8-1.7-3.5c-0.8-0.5-2.1-0.7-4-0.7h-3.5V399z"/>
		<path d="M-16.5,415.5c-2.1,2-4.7,2.9-7.9,2.9c-4.5,0-7.9-1.8-10.2-5.3c-2-3-3-6.9-3-11.6c0-4.3,0.8-8.6,2.5-12.8s3.9-7.9,6.9-11.1
			l5.4,4.4c-2.4,2.8-4.2,5.8-5.6,9.1c-1.3,3.3-2,6.7-2,10.2c0,2.9,0.5,5.2,1.4,7.1c1.2,2.5,3.1,3.8,5.7,3.8c1.2,0,2.4-0.3,3.4-1
			c1-0.6,2-1.5,3-2.7c0-1.9,0-5,0.1-9.4c0.1-4.4,0.1-6.7,0.1-7c0-4.8-0.2-9.1-0.6-13.1h7.9c-0.2,2-0.4,4.3-0.5,6.9
			c-0.1,2.6-0.2,5-0.2,7.2c0,2,0,5.3,0.1,9.9c0.1,4.6,0.1,7,0.1,7.3c0,2.5,0.2,5.1,0.5,7.8h-7.1V415.5z"/>
		<path d="M14.1,419.2c-0.8-1.9-1.6-3.7-2.5-5.5c-0.9-1.8-1.9-3.6-2.9-5.4c-1.2-2.1-2.3-3.9-3.5-5.6c-1.2-1.7-2.2-3-3.3-4.1v11.6
			c0,1,0,1.9,0,2.6c0,0.7,0,1.3,0.1,1.7c0,0.3,0.1,0.6,0.1,0.9c0,0.4,0.1,0.7,0.1,1.1c0,0.4,0.1,0.9,0.2,1.4h-8
			c0.2-1.4,0.3-2.7,0.4-4c0.1-1.3,0.1-2.6,0.1-3.8v-24c0-0.9,0-1.9-0.1-3c0-1.1-0.2-2.5-0.4-4.3H5.7c3.9,0,6.8,0.7,8.8,2.1
			c2.3,1.7,3.5,4.5,3.5,8.3c0,2.3-0.5,4.5-1.6,6.6c-1.1,2-2.5,3.9-4.3,5.5c0.7,1.1,1.2,2.1,1.8,3c0.5,0.9,0.9,1.7,1.2,2.3
			c1,1.8,2,3.5,3,5c1,1.5,1.9,2.7,2.7,3.8L14.1,419.2z M6.9,393.6l1.3,2.1c0.8-0.9,1.5-1.9,2-2.9c0.5-1,0.8-2,0.8-3
			c0-1.8-0.5-3.1-1.4-3.7c-0.9-0.6-2.3-1-4.2-1H1.9v12.2L6.9,393.6z"/>
		<path d="M24.3,418c0.3-2.5,0.5-4.8,0.5-7v-9.7c-0.4,0-0.6,0-0.9,0c-0.2,0-0.7,0.1-1.3,0.2v-6.7l2.2,0.2v-8.7
			c0-2.3-0.2-4.8-0.5-7.4h20.7v6.7c-1.1-0.1-2.2-0.2-3.3-0.3c-1.1-0.1-2.2-0.1-3.3-0.1h-6.6v9.9h2.8h1.1c2.5,0,5-0.1,7.4-0.4v6.7
			c-1-0.1-2-0.2-3-0.3c-1-0.1-2-0.1-3-0.1h-5.3v10.7h5.4h1.1c2.8,0,5.4-0.1,7.9-0.4v6.6H24.3z"/>
	</g>
	<g>
		<path class="st4" d="M-44.6,428.1c-0.5-0.2-1-0.4-1.5-0.6c-0.5-0.2-1-0.3-1.5-0.3c-1.3,0-2.3,0.5-3,1.5c-0.7,1-1.1,2.1-1.1,3.4
			c0,2,0.7,3.9,2.1,5.7c1.3,1.7,2.9,2.9,4.9,3.6l-1.7,3c-2.6-1.2-4.7-2.8-6.3-4.9c-1.7-2.3-2.6-4.8-2.6-7.5c0-2.3,0.7-4.2,2-5.7
			c1.4-1.6,3.2-2.4,5.4-2.4c0.6,0,1.1,0.1,1.7,0.2c0.5,0.1,1.1,0.3,1.7,0.5V428.1z"/>
		<path class="st4" d="M-35.8,444.1c-2.7,0-4.6-1-5.8-3.1c-0.9-1.7-1.4-3.9-1.4-6.9c0-2.9,0.5-5.2,1.4-6.9c1.2-2.1,3.1-3.2,5.8-3.2
			c2.7,0,4.6,1,5.8,3.1c0.9,1.7,1.4,4,1.4,6.9c0,2.9-0.5,5.2-1.4,6.8C-31.2,443-33.1,444.1-35.8,444.1z M-35.8,427.1
			c-1.5,0-2.5,0.8-3,2.5c-0.3,1.1-0.5,2.5-0.5,4.4c0,1.9,0.2,3.4,0.5,4.4c0.5,1.7,1.5,2.5,3,2.5c1.5,0,2.5-0.8,3-2.5
			c0.3-1,0.5-2.5,0.5-4.4c0-2-0.1-3.5-0.4-4.4C-33.2,428-34.3,427.1-35.8,427.1z"/>
		<path class="st4" d="M-23,432.3c0,1,0,1.9,0,2.9c0,1,0,1.9,0,2.9c0,1.4,0,2.5,0,3.1s0.1,1.5,0.2,2.7h-3.9c0.1-0.6,0.1-1.3,0.2-1.9
			c0-0.6,0.1-1.3,0.1-2v-12.4c-0.4-0.5-0.6-0.8-0.7-0.9c-0.2-0.2-0.4-0.5-0.8-0.9l3.2-2.2c0.5,1.1,1.3,2.4,2.2,3.7
			c0.9,1.2,1.7,2.3,2.6,3.5c1.1,1.4,1.8,2.6,2.4,3.6c0-0.7,0-1.4,0-2.2s0-1.5,0-2.2c0-1.1,0-2-0.1-3c0-0.9-0.1-1.8-0.2-2.7h3.9
			c-0.1,0.7-0.1,1.3-0.2,1.9c0,0.6-0.1,1.3-0.1,2c0,1,0,2.6-0.1,4.9c0,2.3-0.1,3.5-0.1,3.7c0,1.5,0,2.7,0.1,3.7c0,1,0.1,2.1,0.3,3.4
			h-3.9c0.1-0.5,0.1-1.1,0.2-1.9s0.1-1.4,0.1-1.9c-0.2-0.3-0.9-1.3-2.1-2.9C-21.2,435.1-22.3,433.5-23,432.3z"/>
		<path class="st4" d="M-1.8,428.1c-0.5-0.2-1-0.4-1.5-0.6c-0.5-0.2-1-0.3-1.5-0.3c-1.3,0-2.3,0.5-3,1.5c-0.7,1-1.1,2.1-1.1,3.4
			c0,2,0.7,3.9,2.1,5.7c1.3,1.7,2.9,2.9,4.9,3.6l-1.7,3c-2.6-1.2-4.7-2.8-6.3-4.9c-1.7-2.3-2.6-4.8-2.6-7.5c0-2.3,0.7-4.2,2-5.7
			c1.4-1.6,3.2-2.4,5.4-2.4c0.6,0,1.1,0.1,1.7,0.2c0.5,0.1,1.1,0.3,1.7,0.5V428.1z"/>
		<path class="st4" d="M0.9,443.9c0.2-1.2,0.2-2.4,0.2-3.5v-4.8c-0.2,0-0.3,0-0.4,0s-0.3,0-0.6,0.1v-3.4l1.1,0.1V428
			c0-1.2-0.1-2.4-0.2-3.7h10.4v3.3c-0.5-0.1-1.1-0.1-1.7-0.1c-0.6,0-1.1-0.1-1.7-0.1H4.6v5H6h0.5c1.2,0,2.5-0.1,3.7-0.2v3.4
			c-0.5-0.1-1-0.1-1.5-0.1c-0.5,0-1-0.1-1.5-0.1H4.6v5.4h2.7h0.6c1.4,0,2.7-0.1,4-0.2v3.3H0.9z"/>
		<path class="st4" d="M17.5,440c0,1,0,1.8,0,2.2s0.1,1,0.2,1.7h-4c0.2-1.4,0.2-2.7,0.2-3.9v-11.7c0-0.5,0-1,0-1.6
			c0-0.6-0.1-1.4-0.2-2.3h5.9c1.9,0,3.3,0.4,4.3,1.1c1.2,0.8,1.7,2.1,1.7,3.9c0,1.9-0.7,3.5-2,5c-1.1,1.2-2.6,2.2-4.6,3l-1.5-2.3
			V440z M17.5,434.3c1.3-0.5,2.3-1,3.1-1.7c1-0.9,1.5-1.9,1.5-3.1c0-0.8-0.3-1.4-0.8-1.7c-0.4-0.2-1.1-0.4-2-0.4h-1.7V434.3z"/>
		<path class="st4" d="M30.3,443.9c0.1-0.6,0.1-1.3,0.1-1.9c0-0.6,0.1-1.3,0.1-2v-12.5c-0.8,0-1.6,0-2.4,0s-1.6,0.1-2.5,0.2v-3.3
			h13.3v3.3c-0.5-0.1-1.1-0.1-1.7-0.1c-0.6,0-1.1-0.1-1.6-0.1H34c0,1,0,2.8-0.1,5.1c0,2.4-0.1,3.7-0.1,3.9c0,2.8,0.1,5.2,0.4,7.4
			H30.3z"/>
	</g>
</g>
</svg>
