<?xml version="1.0" encoding="utf-8"?>
<!-- Generator: Adobe Illustrator 19.0.0, SVG Export Plug-In . SVG Version: 6.00 Build 0)  -->
<svg version="1.1" xmlns="http://www.w3.org/2000/svg" xmlns:xlink="http://www.w3.org/1999/xlink" x="0px" y="0px"
	 viewBox="-180 271.2 250.8 250.8" style="enable-background:new -180 271.2 250.8 250.8;" xml:space="preserve">
<style type="text/css">
	.st0{fill:#00A19A;}
	.st1{fill:#FFFFFF;}
	.st2{fill:#3F2D20;}
	.st3{fill:#FDD44B;}
</style>
<g id="Lager_1">
	<g id="Lager_2">
		<circle id="XMLID_8_" class="st0" cx="-54.6" cy="396.6" r="125.4"/>
	</g>
</g>
<g id="Lager_2_1_">
	<g>
		<g id="XMLID_1_">
			<g>
				<path class="st1" d="M-74.3,392.6c23.4,18.8,54.3,24.6,91.9,17.1c0,0,0,0,0.1,0c0.4-0.1,3.2-0.6,5.6,0.7c-0.5,0.2-1,0.5-1.6,0.7
					c-0.9,0.4-1.8,0.8-2.9,1.2c-0.3,0.1-0.6,0.3-1,0.4c-0.4,0-0.6,0.1-0.7,0.1c0,0,0,0-0.1,0c-37.5,7.5-68.5,1.8-91.9-17.1
					c-8.1-6.5-14.4-13.9-19.2-21.1c0.2,0.7,0.4,1.4,0.6,2.1c-0.6-1.9-1.2-3.8-1.7-5.6c-0.3-1.2-0.6-2.4-0.9-3.5
					C-90.9,375.9-83.8,384.8-74.3,392.6z"/>
				<path class="st1" d="M-20.2,446.9c-0.5,0-0.9-0.1-1.3-0.1c-0.4,0-0.9-0.1-1.3-0.1c-1.1-0.1-2.3-0.2-3.4-0.3
					c-17.6-2-42.1-7.9-59.4-24.7c-17.3-16.8-24.4-41.7-21.3-73.9l1,0.2c0,0.6,0,1.2,0.1,2c0.1,2,0.2,4.4,0.6,7.3
					c0.1,0.7,0.2,1.4,0.3,2.1c0.2,1.3,0.4,2.7,0.6,4.2c0.1,0.7,0.3,1.5,0.4,2.2c0.1,0.5,0.2,1,0.3,1.6c-0.1-0.3-0.1-0.7-0.2-1
					c0.2,0.8,0.3,1.5,0.5,2.3c0,0,0,0,0,0.1c1.2,22.3,8.5,40.1,21.8,53.1c17.3,16.9,41.8,22.7,59.4,24.7c5.9,0.7,11.5,0.9,16.3,1
					c-0.1,0-0.3,0-0.4,0c-2.1,0-4.3,0-6.7-0.1c-0.7,0-1.3-0.1-2-0.1c-0.2,0-0.4,0-0.7,0c-0.5,0-1,0-1.5-0.1c-0.1,0-0.3,0-0.5,0
					C-18.4,447-19.3,447-20.2,446.9z"/>
				<path class="st1" d="M-114.2,346.4c-0.1,0.9-0.2,1.7-0.2,2.6c0,0.2,0,0.4,0,0.6c-0.4,4.6-0.6,9.1-0.5,13.5v0
					c-7.6,26.9-5.6,62.4,25.3,84.7c14.5,10.5,32.4,16,53.3,16.5c8.1-0.2,16.4-1,24.6-2.6c-9,1.8-18.2,2.7-27.1,2.7
					c-22.2,0-41.2-5.6-56.4-16.5C-133.2,420.4-127.7,373.2-114.2,346.4L-114.2,346.4z"/>
				<path class="st2" d="M-4.7,454.8c0.1,0,0.2,0,0.3,0c-0.5,0-0.9,0-1.4,0C-5.4,454.8-5.1,454.8-4.7,454.8z"/>
				<path class="st3" d="M-5.8,447.3c-0.1,0-0.2,0-0.3,0c-0.1,0-0.1,0-0.2,0C-6.1,447.3-6,447.3-5.8,447.3z"/>
				<path class="st3" d="M-26.9,453.7c7.2,0.8,13.8,1,19.3,1c0.6,0,1.2,0,1.8,0c0.5,0,1,0,1.4,0c0.8,0,1.6,0,2.4,0
					c2.7,0,5.1-0.1,7.2-0.1c-0.1,0.3-0.3,0.6-0.5,0.9c-0.3,0.4-0.6,0.8-1,1.2c-0.1,0.1-0.2,0.2-0.3,0.3c-0.9,0.8-2.3,1.5-4.1,2
					c-1.4,0.4-2.9,0.8-4.4,1.1c-0.7,0.2-1.5,0.4-2.2,0.5c-1.5,0.3-2.9,0.6-4.4,0.9c-8.2,1.6-16.5,2.5-24.6,2.6
					c-20.9-0.5-38.8-6-53.3-16.5c-30.9-22.3-32.9-57.9-25.3-84.7c0.1,18.4,4,34.2,11.5,47.4c0,0,0,0,0,0c0.7,1.2,1.4,2.4,2.2,3.6
					c1.5,2.3,3.2,4.6,4.9,6.8c0.9,1.1,1.8,2.1,2.7,3.2c0.9,1,1.9,2,2.9,3C-75.9,441.5-53.8,450.7-26.9,453.7z"/>
				<path class="st3" d="M-52.6,420.3c11,4.3,22.6,6.5,34.6,6.5c2.3,0,4.5-0.1,6.8-0.2c17.4-1.2,31-6.5,37.8-9.7
					c-0.8,3.6-5,5.7-5.3,5.9c-13.3,7.9-26.1,12.9-36.2,14c-26.4-3.6-46.9-13.6-61.2-29.7c0.5,0.4,0.9,0.7,1.4,1
					c0.9,0.7,1.9,1.3,2.8,2c0,0,0,0,0,0c1,0.6,1.9,1.3,2.9,1.9c1,0.6,1.9,1.2,2.9,1.8C-61.7,416.3-57.2,418.5-52.6,420.3z"/>
				<path class="st3" d="M-5.8,447.3c-4.8-0.1-10.4-0.3-16.3-1c-17.6-2-42.1-7.9-59.4-24.7c-13.3-13-20.6-30.8-21.8-53.1
					c0.8,3.6,1.9,7.6,3.3,11.6c0.2,0.5,0.3,1,0.5,1.5c0.1,0.4,0.3,0.8,0.4,1.2c0.4,1.1,0.9,2.3,1.4,3.5c0,0,0,0,0,0
					c0.9,2.1,1.9,4.3,3,6.4c7.3,14.3,17.7,25.9,30.9,34.5c13.3,8.7,29.4,14.3,48.2,16.9c0,0,0.1,0,0.1,0c0.1,0,0.1,0,0.2,0
					c0,0,0,0,0,0c4.3,0.6,8.8,1,13.4,1.3c0.4,0.1,2.8,0.4,4.7,1.5c-0.7,0-1.4,0.1-2.2,0.1c-0.4,0-0.8,0-1.2,0
					c-0.9,0-1.8,0.1-2.7,0.1c-0.4,0-0.9,0-1.3,0c-0.3,0-0.7,0-1,0C-5.7,447.3-5.8,447.3-5.8,447.3z"/>
				<path class="st3" d="M-74.9,395.7c23.4,18.8,54.3,24.6,91.9,17.1c0,0,0,0,0.1,0c0.1,0,0.4-0.1,0.7-0.1c-1.3,0.5-2.7,1-4.3,1.5
					c-0.5,0.2-1,0.3-1.6,0.5c-1.1,0.3-2.2,0.7-3.3,1c-0.1,0-0.2,0-0.3,0.1c-0.5,0.1-1,0.3-1.5,0.4c-0.6,0.1-1.2,0.3-1.8,0.5
					c-0.6,0.1-1.3,0.3-1.9,0.4c-1.3,0.3-2.6,0.6-4,0.8c-1.4,0.2-2.8,0.5-4.2,0.7c-0.7,0.1-1.4,0.2-2.2,0.3c-0.8,0.1-1.6,0.2-2.4,0.3
					c-0.7,0.1-1.4,0.1-2.1,0.2c-30.2,2-57-10.1-79.5-36.2c-0.3-0.7-0.6-1.4-0.9-2.1c-0.3-0.7-0.5-1.4-0.8-2.1
					c-0.3-0.7-0.5-1.4-0.7-2.1c-0.2-0.7-0.4-1.4-0.6-2.1C-89.3,381.7-83,389.2-74.9,395.7z"/>
				<polygon class="st3" points="-94.9,323.9 -95.7,328.3 -95.7,328.3 				"/>
				<path class="st2" d="M-96.4,420.8c0.9,1.1,1.8,2.1,2.7,3.2C-94.7,422.9-95.6,421.9-96.4,420.8z"/>
				<path class="st3" d="M-95.7,328.3l-0.8,4.5v0c-0.2,1.1-0.6,2-0.9,2.8c0,0,0,0,0,0c-2.4,5.3-7,5-8,4.8l-10.2-1.9
					c0,0-0.6-0.1-1.5-0.5c0-0.6,0.1-1.2,0.2-1.9l2-11.3L-95.7,328.3z"/>
				<path class="st2" d="M-103.6,410.5c0.7,1.2,1.4,2.4,2.2,3.6C-102.1,412.9-102.9,411.7-103.6,410.5z"/>
				<path class="st3" d="M-103.7,367.2c0.1,0.4,0.2,0.9,0.3,1.3c-0.2-0.8-0.3-1.6-0.5-2.3C-103.8,366.5-103.7,366.9-103.7,367.2z"/>
				<path class="st2" d="M-114.2,346.4c-0.1,0.9-0.2,1.7-0.2,2.6C-114.4,348.2-114.3,347.3-114.2,346.4z"/>
				<path class="st2" d="M-115,361.5c-0.1,19.1,3.8,35.5,11.5,49c-7.5-13.1-11.3-29-11.5-47.4v0C-115,362.5-115,362-115,361.5z"/>
				<path class="st2" d="M-118.7,337.1c0.7,0.5,1.4,0.9,2,1.1c0.6,0.3,1,0.4,1.1,0.4l10.2,1.8c1,0.2,5.6,0.5,8-4.9c0,0,0,0,0,0
					c0.4-0.8,0.7-1.7,0.9-2.8v0l0.8-4.5l0.8-4.3l0.4-2.5l-24.8-4.4l-2,11.3c-0.5,3.9,0.3,6.8,2.5,8.6
					C-118.8,337-118.7,337.1-118.7,337.1z M-1,454.7c-1,0-2.2,0.1-3.3,0.1c-0.1,0-0.2,0-0.3,0c-0.4,0-0.7,0-1.1,0
					c-0.6,0-1.2,0-1.8,0c-5.5,0-12.1-0.3-19.3-1c-26.9-3-49-12.2-63.9-26.8c-1-1-2-2-2.9-3c-1-1-1.9-2.1-2.7-3.2
					c-1.8-2.2-3.4-4.4-4.9-6.8c-0.8-1.2-1.5-2.4-2.2-3.6c0,0,0,0,0,0c-7.7-13.5-11.5-29.9-11.5-49c0,0.5,0,1.1,0,1.6
					c0-4.4,0.1-8.8,0.5-13.5c0-0.2,0-0.4,0-0.6c0.1-0.8,0.2-1.7,0.2-2.6h0c-13.4,26.8-19,74,18.9,101.3c15.2,11,34.2,16.5,56.4,16.5
					c8.9,0,18.1-0.9,27.1-2.7c1.5-0.3,3-0.6,4.4-0.9c0.7-0.2,1.5-0.3,2.2-0.5c1.5-0.3,2.9-0.7,4.4-1.1c1.9-0.5,3.2-1.2,4.1-2
					c0.1-0.1,0.2-0.2,0.3-0.3c0.5-0.4,0.8-0.8,1-1.2c0.3-0.4,0.5-0.8,0.6-1.3c-0.9,0.1-2,0.1-3.2,0.2C1.1,454.6,0.1,454.6-1,454.7z
					 M-14.9,436.9c10.1-1.1,23-6.1,36.2-14c0.3-0.2,4.5-2.3,5.3-5.9c-6.7,3.1-20.4,8.5-37.8,9.7c-2.3,0.2-4.6,0.2-6.8,0.2
					c-12,0-23.6-2.2-34.6-6.5c-4.6-1.8-9.1-4-13.5-6.5c-1-0.6-1.9-1.2-2.9-1.8c-1-0.6-1.9-1.2-2.9-1.9c0,0,0,0,0,0
					c-1-0.6-1.9-1.3-2.8-2c-0.5-0.3-0.9-0.7-1.4-1C-61.8,423.3-41.3,433.2-14.9,436.9z M-91.1,383c22.5,26.1,49.2,38.3,79.5,36.2
					c0.7-0.1,1.4-0.1,2.1-0.2c0.8-0.1,1.6-0.2,2.4-0.3c0.7-0.1,1.5-0.2,2.2-0.3c1.4-0.2,2.8-0.4,4.2-0.7c1.4-0.2,2.7-0.5,4-0.8
					c0.6-0.1,1.3-0.3,1.9-0.4c0.6-0.2,1.2-0.3,1.8-0.5c0.5-0.1,1-0.3,1.5-0.4c0.1,0,0.2,0,0.3-0.1c1.2-0.3,2.3-0.7,3.3-1
					c0.5-0.2,1.1-0.3,1.6-0.5c1.5-0.5,2.9-1,4.3-1.5c0.3-0.1,0.7-0.3,1-0.4c1-0.4,2-0.8,2.9-1.2c0.6-0.3,1.1-0.5,1.6-0.7
					c-2.4-1.3-5.2-0.8-5.6-0.7c0,0,0,0-0.1,0c-37.6,7.5-68.5,1.8-91.9-17.1c-9.6-7.7-16.6-16.7-21.7-25.1c0.3,1.2,0.6,2.3,0.9,3.5
					c0.5,1.8,1,3.7,1.7,5.6c0.2,0.7,0.5,1.4,0.7,2.1c0.2,0.7,0.5,1.4,0.8,2.1C-91.7,381.5-91.4,382.2-91.1,383z M-21.5,446.8
					c0.5,0,0.9,0.1,1.3,0.1c0.9,0.1,1.7,0.1,2.6,0.2c0.2,0,0.3,0,0.5,0c0.5,0,1,0,1.5,0.1c0.2,0,0.4,0,0.7,0c0.7,0,1.3,0.1,2,0.1
					c2.4,0.1,4.6,0.1,6.7,0.1c0.1,0,0.1,0,0.2,0c0.2,0,0.3,0,0.5,0c0.3,0,0.7,0,1,0c0.5,0,0.9,0,1.3,0c1,0,1.9,0,2.7-0.1
					c0.4,0,0.8,0,1.2,0c0.8,0,1.5-0.1,2.2-0.1c-1.9-1.1-4.3-1.4-4.7-1.5c-4.6-0.3-9-0.7-13.4-1.3c0,0,0,0,0,0c-0.1,0-0.1,0-0.2,0
					c-0.1,0-0.1,0-0.1,0c-18.7-2.6-34.9-8.2-48.2-16.9c-13.3-8.7-23.7-20.3-30.9-34.5c-1.1-2.1-2.1-4.3-3-6.4c0,0,0,0,0,0
					c-0.5-1.2-1-2.3-1.4-3.5c-0.2-0.4-0.3-0.8-0.4-1.2c-0.2-0.5-0.4-1-0.5-1.5c-1.4-4.1-2.5-8-3.3-11.6c0,0,0,0,0-0.1
					c-0.1-0.4-0.2-0.9-0.3-1.3c-0.1-0.5-0.2-1-0.3-1.6c-0.1-0.8-0.3-1.5-0.4-2.2c-0.3-1.4-0.5-2.8-0.6-4.2c-0.1-0.7-0.2-1.4-0.3-2.1
					c-0.3-2.9-0.5-5.3-0.6-7.3c0-0.7,0-1.4-0.1-2l-1-0.2c-3.1,32.2,4,57,21.3,73.9c17.3,16.9,41.8,22.7,59.4,24.7
					c1.2,0.1,2.3,0.3,3.4,0.3C-22.4,446.7-21.9,446.8-21.5,446.8z M32.5,409.7c1.8,3.3,4,12.9-6.9,19.2c-0.1,0.1-0.3,0.2-0.5,0.3
					c-7.1,4.3-14.2,7.7-20.9,10.3c4.1,1.6,8.1,4.7,8.5,10.2c0.8,3.9,0.3,13.3-11.5,16.6c-13,3.6-26.9,5.5-40.1,5.5
					c-23.8,0-44.3-6-60.8-17.9c-18.4-13.3-29.4-32.6-31.7-55.7c-1.8-17.9,1.8-37.2,9.9-53.8c-4.3-2.5-8.5-7.6-7.2-17
					c0,0,0-0.1,0-0.1l2.7-15.1c0.3-2,2.3-3.4,4.3-3l32.1,5.7c1,0.2,1.8,0.7,2.4,1.5c0.6,0.8,0.8,1.8,0.6,2.8l-2.7,15.1
					c0,0.1,0,0.1,0,0.1c-1.5,6.8-5,10.4-8.7,12.2c9,24.2,36.9,71.3,114.1,55.9C20.1,401.5,28.5,401.9,32.5,409.7z"/>
			</g>
			<g>
			</g>
		</g>
	</g>
</g>
</svg>
