<?xml version="1.0" encoding="utf-8"?>
<!-- Generator: Adobe Illustrator 19.0.0, SVG Export Plug-In . SVG Version: 6.00 Build 0)  -->
<svg version="1.1" xmlns="http://www.w3.org/2000/svg" xmlns:xlink="http://www.w3.org/1999/xlink" x="0px" y="0px"
	 viewBox="0 0 67.6 114.5" style="enable-background:new 0 0 67.6 114.5;" xml:space="preserve">
<style type="text/css">
	.st0{fill:#C5421F;stroke:#000000;stroke-width:1.5;stroke-miterlimit:10;}
	.st1{fill:#5DC4E8;stroke:#000000;stroke-width:1.5;stroke-miterlimit:10;}
	.st2{fill:#F6F6F6;stroke:#000000;stroke-width:1.5;stroke-miterlimit:10;}
	.st3{fill:#3AAA35;stroke:#000000;stroke-width:1.5;stroke-miterlimit:10;}
	.st4{fill:#F2D768;stroke:#000000;stroke-width:1.5;stroke-miterlimit:10;}
	.st5{fill:#C54320;stroke:#010202;stroke-width:1.5;stroke-miterlimit:10;}
	.st6{fill:#E30D18;stroke:#010202;stroke-width:1.5;stroke-miterlimit:10;}
	.st7{fill:#F6F6F6;stroke:#010202;stroke-width:1.5;stroke-miterlimit:10;}
	.st8{fill:#727272;}
	.st9{fill:none;stroke:#000000;stroke-miterlimit:10;}
</style>
<g id="Lager_1">
	<g id="XMLID_1_">
		<path id="XMLID_8_" class="st0" d="M23,24.4H4.3v-5c0-0.9,0.5-1.7,1.1-1.7h16.5c0.6,0,1.1,0.8,1.1,1.7V24.4z"/>
		<path id="XMLID_7_" class="st1" d="M4.5,28.7c0,1.6-0.6,3-1.6,3.8c-1,0.8-1.6,2.4-1.6,3.9v27.5c0,1.4,0.8,2.6,1.9,2.6h10.6h10.6
			c1,0,1.9-1.2,1.9-2.6V36.4c0-1.6-0.6-3.1-1.6-3.9c-1-0.8-1.6-2.2-1.6-3.8H4.5z"/>
		<rect id="XMLID_2_" x="5.3" y="24.4" class="st2" width="16.4" height="4.3"/>
	</g>
</g>
<g id="Lager_3">
	<g id="XMLID_9_">
		<path id="XMLID_40_" class="st0" d="M45.3,10.7h-23V3.8c0-1.3,0.6-2.3,1.4-2.3h20.3c0.7,0,1.4,1,1.4,2.3V10.7z"/>
		<path id="XMLID_39_" class="st3" d="M22.6,14.6c0,2.1-0.7,4.1-1.9,5.2s-1.9,3.3-1.9,5.4v37.7c0,2,1,3.5,2.3,3.5h13h13
			c1.3,0,2.3-1.6,2.3-3.5V25.2c0-2.1-0.7-4.3-1.9-5.4c-1.2-1.1-1.9-3.1-1.9-5.2H22.6z"/>
		<rect id="XMLID_11_" x="23.6" y="10.3" class="st2" width="20.1" height="4.2"/>
	</g>
</g>
<g id="Lager_4">
	<g id="XMLID_3_">
		<path id="XMLID_6_" class="st0" d="M34.6,35.4H16.7v-2.8c0-0.5,0.5-0.9,1.1-0.9h15.8c0.6,0,1.1,0.4,1.1,0.9V35.4z"/>
		<path id="XMLID_5_" class="st4" d="M16.9,38.6c0,1.1-0.6,2.2-1.5,2.8c-0.9,0.6-1.5,1.8-1.5,2.9v20.3c0,1,0.8,1.9,1.8,1.9h10.2H36
			c1,0,1.8-0.9,1.8-1.9V44.3c0-1.1-0.6-2.3-1.5-2.9c-0.9-0.6-1.5-1.7-1.5-2.8H16.9z"/>
		<rect id="XMLID_4_" x="17.7" y="35.4" class="st2" width="15.7" height="3.1"/>
	</g>
</g>
<g id="Lager_5">
	<g id="Lager_6">
		<g id="XMLID_41_">
			<path id="XMLID_44_" class="st5" d="M62.8,20.9H44v-5.6c0-1,0.5-1.9,1.1-1.9h16.5c0.6,0,1.1,0.8,1.1,1.9v5.6H62.8z"/>
			<path id="XMLID_43_" class="st6" d="M44.3,24.1c0,1.7-0.6,3.3-1.6,4.2s-1.6,2.7-1.6,4.4v30.8c0,1.6,0.8,2.9,1.9,2.9h10.6h10.6
				c1,0,1.9-1.3,1.9-2.9V32.7c0-1.7-0.6-3.5-1.6-4.4s-1.6-2.5-1.6-4.2C62.9,24.1,44.3,24.1,44.3,24.1z"/>
			<rect id="XMLID_42_" x="45.1" y="20.6" class="st7" width="16.4" height="3.5"/>
		</g>
	</g>
</g>
<g id="Lager_2">
	<g id="XMLID_28_">
		<path id="XMLID_29_" d="M6,92.4V72.3H3.8v-3.2h6.6c2.3,0,4.1,0.7,5.4,2.2s1.9,3.5,1.9,6c0,2.5-0.6,4.5-1.8,5.9s-3.3,2.1-6.1,2.1v7
			h2.2v3.2H3.8v-3.2H6z M9.7,72.3v9.9c0.8,0,1.5-0.1,2.1-0.3s1-0.6,1.4-1.3s0.6-1.8,0.6-3.3c0-1.9-0.3-3.2-1-3.9S11,72.3,9.7,72.3z"
			/>
		<path id="XMLID_32_" d="M18.6,72.3v-3.2h7.2v3.2h-1.4v17c0,1.3,0.2,2.2,0.5,2.7s0.9,0.8,1.7,0.8c0.8,0,1.4-0.3,1.7-0.8
			s0.5-1.4,0.5-2.7v-17h-1.4v-3.2h6.5v3.2h-2v16.8c0,2.4-0.5,4.2-1.6,5.2s-2.4,1.6-4,1.6c-1.7,0-3.1-0.5-4.1-1.6s-1.5-2.4-1.5-4.1
			V72.3H18.6z"/>
		<path id="XMLID_34_" d="M41,83.6v8.8h2v3.2H35v-3.2h2.2V72.3H35v-3.2h6.6c2.2,0,4,0.7,5.3,2c1.3,1.3,2,3.1,2,5.2
			c0,2.8-1.1,4.9-3.2,6.2l2.9,9.9h1.6v3.2h-4.5l-3.3-12.1C42.1,83.6,41.6,83.6,41,83.6z M41,72.3v8.1c1.4,0,2.4-0.3,3.1-1
			s0.9-1.7,0.9-3.1c0-1.5-0.3-2.5-0.9-3.1S42.4,72.3,41,72.3z"/>
		<path id="XMLID_37_" d="M51.4,95.6v-3.2h2V72.3h-2v-3.2h12.2v7.7h-3.2v-4.5h-3.3v8h2.7v3.2h-2.7v8.9h3.3v-4.9h3.2v8.1H51.4z"/>
	</g>
	<g id="XMLID_10_">
		<path id="XMLID_12_" class="st8" d="M8.7,108.8l1.9,0.5c0,1.6-0.3,2.9-0.9,3.8c-0.6,0.9-1.4,1.4-2.4,1.4c-1.2,0-2.1-0.6-2.7-1.9
			c-0.6-1.3-0.9-3.2-0.9-5.9c0-5.4,1-8.2,3.1-8.2c0.7,0,1.3,0.3,1.7,1h0v-0.7h1.9v5H8.6c0-1-0.1-1.8-0.4-2.4s-0.6-0.8-1-0.8
			c-0.3,0-0.6,0.1-0.7,0.4s-0.2,0.8-0.3,1.6c-0.1,0.8-0.1,2.1-0.1,3.9c0,2.4,0.1,4.1,0.3,4.9c0.2,0.8,0.5,1.2,1,1.2
			c0.4,0,0.8-0.3,1-0.9S8.7,110.1,8.7,108.8z"/>
		<path id="XMLID_14_" class="st8" d="M19.4,106.6c0,5.3-1.2,7.9-3.6,7.9c-1.2,0-2.1-0.7-2.7-2c-0.6-1.3-0.9-3.3-0.9-5.9
			c0-1.8,0.1-3.3,0.4-4.5c0.3-1.2,0.7-2.1,1.2-2.7s1.2-0.9,1.9-0.9c1.1,0,2,0.7,2.6,2S19.4,103.9,19.4,106.6z M14.6,106.7
			c0,2.2,0.1,3.8,0.3,4.6c0.2,0.8,0.5,1.2,0.9,1.2c0.5,0,0.8-0.4,0.9-1.2s0.3-2.3,0.3-4.5c0-2.4-0.1-4.1-0.2-4.9
			c-0.2-0.8-0.5-1.2-0.9-1.2c-0.5,0-0.8,0.5-1,1.4C14.7,102.9,14.6,104.5,14.6,106.7z"/>
		<path id="XMLID_17_" class="st8" d="M20.8,114.3v-1.9h1.1v-11.7h-1.1v-1.9h3.4l1.8,5.6l1,4.5h0.1l-0.2-4.7v-3.6h-1v-1.9h4v1.9
			h-1.1v13.6H27l-1.9-5.9c-0.2-0.6-0.4-1.4-0.6-2.3l-0.9-3.5h-0.1l0.2,4.7v5.2h1v1.9H20.8z"/>
		<path id="XMLID_19_" class="st8" d="M36,108.8l1.9,0.5c0,1.6-0.3,2.9-0.9,3.8c-0.6,0.9-1.4,1.4-2.4,1.4c-1.2,0-2.1-0.6-2.7-1.9
			c-0.6-1.3-0.9-3.2-0.9-5.9c0-5.4,1-8.2,3.1-8.2c0.7,0,1.3,0.3,1.7,1h0v-0.7h1.9v5h-1.9c0-1-0.1-1.8-0.4-2.4s-0.6-0.8-1-0.8
			c-0.3,0-0.6,0.1-0.7,0.4s-0.2,0.8-0.3,1.6c-0.1,0.8-0.1,2.1-0.1,3.9c0,2.4,0.1,4.1,0.3,4.9c0.2,0.8,0.5,1.2,1,1.2
			c0.4,0,0.8-0.3,1-0.9S36,110.1,36,108.8z"/>
		<path id="XMLID_21_" class="st8" d="M39.3,114.3v-1.9h1.1v-11.7h-1.1v-1.9h7.1v4.5h-1.9v-2.6h-1.9v4.7h1.6v1.9h-1.6v5.2h1.9v-2.9
			h1.9v4.7H39.3z"/>
		<path id="XMLID_23_" class="st8" d="M48.9,112.4v-11.7h-1.3v-1.9h3.8c1.3,0,2.4,0.4,3.1,1.3c0.8,0.8,1.1,2,1.1,3.5
			c0,1.5-0.4,2.6-1.1,3.5s-1.9,1.3-3.6,1.3v4.1h1.3v1.9h-4.7v-1.9H48.9z M51.1,100.7v5.8c0.5,0,0.9-0.1,1.2-0.2
			c0.3-0.1,0.6-0.4,0.8-0.8s0.3-1.1,0.3-1.9c0-1.1-0.2-1.9-0.6-2.3C52.4,100.9,51.8,100.7,51.1,100.7z"/>
		<path id="XMLID_26_" class="st8" d="M64.4,98.8v5.6h-1.6v-4h-1.3v12h1.2v1.9h-4.6v-1.9h1.2v-12H58v4h-1.6v-5.6H64.4z"/>
	</g>
	<line id="XMLID_45_" class="st9" x1="4.2" y1="97.3" x2="64.4" y2="97.3"/>
</g>
</svg>
