<?xml version="1.0" encoding="utf-8"?>
<!-- Generator: Adobe Illustrator 19.0.0, SVG Export Plug-In . SVG Version: 6.00 Build 0)  -->
<svg version="1.1" xmlns="http://www.w3.org/2000/svg" xmlns:xlink="http://www.w3.org/1999/xlink" x="0px" y="0px"
	 viewBox="-180 271.2 250.8 250.8" style="enable-background:new -180 271.2 250.8 250.8;" xml:space="preserve">
<style type="text/css">
	.st0{fill:#00A19A;}
	.st1{fill:#F08829;}
	.st2{fill:#FFFFFF;}
	.st3{fill:#402E21;}
	.st4{fill:#85BE94;}
</style>
<g id="Lager_1">
	<g id="Lager_2">
		<circle id="XMLID_8_" class="st0" cx="-54.6" cy="396.6" r="125.4"/>
	</g>
</g>
<g id="Lager_2_1_">
	<g id="XMLID_10_">
		<g id="XMLID_1_">
			<g>
				<path class="st1" d="M-2.6,475.4c0.2,0.7,0.4,1.3,0.5,2C-2.3,476.7-2.4,476.1-2.6,475.4z"/>
				<path class="st2" d="M-2.6,475.4c0.2,0.7,0.3,1.3,0.5,2C-2.2,476.7-2.4,476.1-2.6,475.4z M-1.6,479.5
					c-14.6-9.9-32.2-28.4-47.7-46.4l3.6-2.4c12.9,15,30.5,34.2,43,44.5c-0.1-0.7-0.2-1.3-0.4-2C-2.5,475.4-2,477.5-1.6,479.5z"/>
				<path class="st1" d="M-3.1,473.2c0.1,0.7,0.3,1.4,0.4,2c-12.6-10.3-30.2-29.4-43-44.5l5.2-3.4c1.4-0.9,2-2.7,1.6-4.3
					c-0.1-0.5-0.2-1-0.5-1.4c-0.5-0.7-1.1-1.2-1.8-1.4c-1.2-0.5-2.6-0.4-3.8,0.4l-5.9,4c-6.4-7.8-16.4-21-21.6-27.9l8-5.3
					c1.4-0.9,2-2.6,1.7-4.1c0.1-0.3,0-0.8-0.5-1.6c-1.6-2.3-3.8-2.4-5.6-1.2l-8.7,5.8c-1.6-2.2-2.4-3.3-2.7-3.6
					c-1.7-2.6-0.8-7.2,2.5-11.8c0.1-0.1,2.3-3.6,7.7-7.2c4.4-3,9.5-4.2,9.6-4.2c0,0.1,2.4-0.4,4.5,0.3c0,0,0,0,0,0
					c0.7,1,7.4,12,16,27.4l-11.3,7.5c-1.4,0.9-2,2.7-1.6,4.3c0,0.4,0.2,0.8,0.4,1.2c0.1,0.2,0.3,0.4,0.4,0.5
					c0.1,0.1,0.2,0.2,0.3,0.3c1.3,1.2,3.4,1.5,5,0.4l10.6-7.1c5.3,9.8,10.4,19.8,16,31.4l-7.2,4.8c-1.8,1.2-2.2,4-1,5.8
					c0.2,0.3,0.5,0.6,0.7,0.8c0,0,0,0,0.1,0c1.3,1.2,3.3,1.3,4.9,0.3l6.2-4.1c5.7,12.6,10.6,25,13.5,35.8
					C-3.1,473.1-3.1,473.2-3.1,473.2z"/>
				<path class="st3" d="M-16.9,436.2c5.4,12.2,11.5,26,13.8,36.9c-2.9-10.7-7.8-23.2-13.5-35.8l-6.2,4.1c-1.6,1-3.6,0.9-4.9-0.3
					c1.2,0.8,2.7,0.3,4.1-0.7L-16.9,436.2z"/>
				<path class="st3" d="M-40.8,426.7c1.3-0.9,2.1-2.3,1.9-3.7c0.4,1.6-0.2,3.4-1.6,4.3l-5.2,3.4c-0.1-0.2-0.3-0.3-0.4-0.5
					L-40.8,426.7z"/>
				<path class="st3" d="M-45,420.6c1.2-0.7,2.6-0.8,3.8-0.4c-1.1-0.3-2.3,0-3.5,0.7l-6,4c-0.1-0.1-0.2-0.2-0.2-0.3L-45,420.6z"/>
				<path class="st3" d="M-49.3,433.1c15.5,18,33.1,36.5,47.7,46.4c-0.4-2-0.9-4.1-1.5-6.3c0,0,0-0.1,0-0.1
					c-2.3-10.8-8.4-24.7-13.8-36.9l-6.7,4.2c-1.4,1-2.9,1.5-4.1,0.7c0,0,0,0-0.1,0c-0.2-0.2-0.5-0.5-0.6-0.8
					c-1.2-1.9-0.7-4.4,1.1-5.6l7.2-4.8c-5.2-11-10.9-21.9-16.1-31.6l-0.1,0c0-0.1-0.1-0.2-0.1-0.2l-10.7,7.1
					c-1.5,1.1-3.5,0.9-4.8-0.2c-0.1-0.1-0.2-0.2-0.3-0.3c-0.1-0.1-0.2-0.3-0.3-0.4c-0.3-0.4-0.4-0.9-0.5-1.3
					c-0.1-1.2,1.1-2.2,2.4-3.1l11.3-7.5c-8.6-15.4-16.1-27.6-16.7-28.6c0,0-0.1,0-0.1,0c-1.7-2.5-6.2-3.4-11.7-2.1
					c-0.2,0-5.2,1.3-9.6,4.3c-5.4,3.6-7.6,7.1-7.7,7.2c-3.3,4.6-4.2,9.1-2.5,11.7c0.4,0.5,2.5,3.5,6,8.1l12.5-8.3
					c1.9-1.2,4.4-0.7,5.6,1.1c0.3,0.5,0.5,1,0.6,1.5c-0.3,0.8-1.8,0.9-3.1,1.7l-8.3,5.5c0.5,0.6,1.1,1.4,1.7,2.2l-4,2.7
					c5.8,7.5,13.5,17.3,22.1,27.6l3.6-2.4c0.1,0.1,0.2,0.2,0.2,0.3l6-4c1.1-0.7,2.4-1,3.5-0.7c0.7,0.3,1.4,0.8,1.8,1.5
					c0.3,0.4,0.4,0.9,0.5,1.3c0.2,1.4-0.6,2.8-1.9,3.7l-5.4,3.5c0,0,0,0,0,0l-3.4,2.3l3.4-2.3c0.2,0.2,0.3,0.3,0.4,0.5L-49.3,433.1z
					 M-88.6,346.8l-16.1-24.3c0.1,0.1,0.1,0.1,0.2,0.2l-1.4-2.2c-0.3-0.4-0.7-0.6-1.2-0.6c0,0-0.1,0-0.1,0c-0.3,0-0.5,0.1-0.7,0.2
					c-0.6,0.4-0.8,1.2-0.4,1.8l17.5,26.3l0.8,1.3c0.3,1.3-0.1,2.8-1.1,3.7c-1.4,1.3-3.5,1.5-5.1,0.4c-5.6-3.9-11.6-6.9-17.8-9
					c-0.5-0.1-1.4-0.2-1.5,0.6c-0.2,1,0.4,1.9,1.3,2.4c0,0,0,0,0,0h-0.1c9.6,3.4,18.5,9.2,26,16.9c0,0,0.1-0.1,0.1-0.1
					c0,0,0.1,0.1,0.1,0.1c1.8-1.9,4-3.7,6.4-5.3s4.8-2.9,7.3-3.9c-4.2-9.9-6.1-20.3-5.6-30.5c0.1-1-0.6-1.9-1.6-2.1
					c-0.3-0.1-0.8-0.2-1.1,1.1c-1.3,6.4,0.4,13.3,1.4,19.9c0.4,2-0.5,3.8-2.3,4.6C-85.4,349.1-87.4,348.5-88.6,346.8L-88.6,346.8z
					 M7.6,486.9c0.1,1.4-0.6,2.8-1.8,3.6c-1.2,0.8-2.7,0.8-4,0.2c-35.4-17.8-93.4-98-95.8-101.4l-0.1-0.1c-3.4-5.1-2.8-11.9,1-18.3
					c-6.7-7.2-14.9-12.6-23.7-15.8c-4.7-1.7-7.4-6.5-6.5-11.3c0.5-2.5,2-4.7,4.2-6c2.3-1.4,5-1.6,7.7-0.7c1.7,0.6,3.3,1.2,5,1.9
					l-8.4-12.6c-2.8-4.2-1.7-10,2.6-12.9c4.2-2.8,10-1.7,12.9,2.6l8.4,12.6c0-1.8,0.1-3.6,0.2-5.4c0.2-2.9,1.5-5.3,3.6-6.9
					c2.1-1.5,4.7-2,7.2-1.5c4.8,1.1,8.1,5.4,8,10.4c-0.5,9.4,1.4,19,5.4,28c7.4-1,13.9,1,17.3,6.1l0.1,0.1
					C-46.9,363.1,4.8,447.4,7.6,486.9z"/>
				<path class="st3" d="M-46.2,430.2C-46.2,430.2-46.2,430.2-46.2,430.2l-3.4,2.3L-46.2,430.2z"/>
				<path class="st3" d="M-51.9,405c1.3,1.1,3.3,1.3,4.8,0.2l10.7-7.1c0,0.1,0.1,0.2,0.1,0.2l-10.6,7.1
					C-48.5,406.4-50.6,406.2-51.9,405z"/>
				<path class="st2" d="M-50.9,424.6l-3.6,2.4c-8.6-10.3-16.3-20.1-22.1-27.6l4-2.7C-67.3,403.6-57.4,416.8-50.9,424.6z"/>
				<path class="st3" d="M-56,363.8c0.6,1,8.1,13.2,16.7,28.6l-11.3,7.5c-1.4,0.9-2.5,1.9-2.4,3.1c-0.4-1.6,0.2-3.4,1.6-4.3
					l11.3-7.5c-8.6-15.4-15.3-26.4-16-27.4c0,0,0,0,0,0C-56.1,363.8-56,363.8-56,363.8z"/>
				<path class="st3" d="M-62.9,387.3c0.3,1.6-0.3,3.2-1.7,4.1l-8,5.3c-0.6-0.8-1.2-1.6-1.7-2.2l8.3-5.5
					C-64.8,388.2-63.2,388.1-62.9,387.3z"/>
				<path class="st2" d="M-69.1,384.7l-12.5,8.3c-3.5-4.6-5.6-7.6-6-8.1c-1.7-2.6-0.8-7.1,2.5-11.7c0.1-0.1,2.3-3.6,7.7-7.2
					c4.4-3,9.4-4.3,9.6-4.3c5.5-1.3,9.9-0.4,11.7,2.1c-2.1-0.6-4.5-0.2-4.5-0.3c-0.1,0-5.2,1.2-9.6,4.2c-5.4,3.6-7.6,7.1-7.7,7.2
					c-3.3,4.6-4.2,9.2-2.5,11.8c0.3,0.3,1.1,1.4,2.7,3.6l8.7-5.8c1.8-1.2,4-1.1,5.6,1.2c0.5,0.7,0.6,1.2,0.5,1.6
					c-0.1-0.5-0.3-1-0.6-1.5C-64.7,384-67.2,383.5-69.1,384.7z"/>
				<path class="st4" d="M-80.2,324.9C-80.1,324.9-80.1,324.9-80.2,324.9C-80.2,325-80.2,324.9-80.2,324.9z"/>
				<path class="st2" d="M-81.3,326c-1.3,6.5,0.4,13.3,1.5,19.9c0.3,1.9-0.6,3.8-2.4,4.6c-1.8,0.8-3.9,0.2-4.9-1.4l-1.4-2.2
					c1.1,1.6,3.1,2.2,4.9,1.5c1.8-0.8,2.7-2.6,2.3-4.6c-1-6.6-2.7-13.5-1.4-19.9c0.3-1.3,0.8-1.2,1.1-1.1c1,0.2,1.7,1.1,1.6,2.1
					c-0.5,10.2,1.4,20.6,5.6,30.5c-2.5,1-4.9,2.3-7.3,3.9s-4.6,3.4-6.4,5.3c0,0-0.1-0.1-0.1-0.1c1.9-1.9,3.9-3.6,6.3-5.2
					c2.4-1.6,4.9-2.9,7.3-3.9c-4.2-9.8-6.1-20.2-5.6-30.4c0.1-0.1,0.1-0.1,0-0.1C-80.5,324.8-81,324.7-81.3,326z"/>
				<path class="st3" d="M-107.1,320c0.4,0,0.9,0.2,1.2,0.6l1.4,2.2c-0.1-0.1-0.1-0.2-0.2-0.2l-1.3-2
					C-106.3,320.2-106.7,320-107.1,320z"/>
				<path class="st2" d="M-106.1,320.6c-0.2-0.4-0.6-0.6-1-0.6c0,0,0,0,0.1,0C-106.7,320-106.3,320.2-106.1,320.6l1.4,2
					c-0.1-0.1-0.1-0.1-0.2-0.1L-106.1,320.6z"/>
				<path class="st4" d="M-108.1,322c-0.4-0.6-0.2-1.4,0.4-1.8c0.2-0.1,0.4-0.2,0.6-0.2c0.4,0,0.8,0.2,1,0.6l1.2,1.8
					c-0.4-0.3-1-0.3-1.4,0c-0.6,0.4-0.8,1.2-0.4,1.8L-108.1,322z"/>
				<path class="st3" d="M-107.8,320.2c-0.6,0.4-0.8,1.2-0.4,1.8l17.6,26.2c0.3,0.4,0.5,0.9,0.6,1.4l-0.8-1.3l-17.5-26.3
					c-0.4-0.6-0.2-1.4,0.4-1.8c0.2-0.1,0.5-0.2,0.7-0.2C-107.4,320-107.6,320.1-107.8,320.2z"/>
				<path class="st4" d="M-90.6,348.2l-17.6-26.2c-0.4-0.6-0.2-1.4,0.4-1.8c0.2-0.1,0.4-0.2,0.6-0.2c0,0,0,0,0,0
					c-0.2,0-0.4,0.1-0.6,0.2c-0.6,0.4-0.8,1.2-0.4,1.8l1.4,2.2c-0.4-0.6-0.2-1.4,0.4-1.8c0.4-0.3,1-0.3,1.4,0l16.3,24.4l0,0.1
					l1.4,2.2c1,1.6,3.1,2.2,4.9,1.4c1.8-0.8,2.7-2.7,2.4-4.6c-1.1-6.6-2.8-13.4-1.5-19.9c0.3-1.3,0.8-1.2,1.1-1.1c0,0,0,0.1,0,0.1
					c-0.5,10.2,1.4,20.6,5.6,30.4c-2.4,1-4.9,2.3-7.3,3.9c-2.4,1.6-4.4,3.3-6.3,5.2c-7.5-7.5-16.3-13.3-25.9-16.8c0,0-0.1,0-0.1,0
					c0-0.1,0-0.1,0-0.2c0.2-0.9,1.1-0.7,1.5-0.6c6.1,2.1,12.1,5.2,17.7,9.1c1.6,1.1,3.7,0.9,5.1-0.4c1.4-1.4,1.6-3.5,0.5-5.1
					l-0.6-0.9C-90.1,349.1-90.3,348.6-90.6,348.2z"/>
				<path class="st2" d="M-114.2,347.7c-0.9-0.4-1.5-1.4-1.3-2.4c0.1-0.8,1-0.7,1.5-0.6c6.2,2.1,12.2,5.1,17.8,9
					c1.6,1.1,3.7,0.9,5.1-0.4c1-1,1.4-2.4,1.1-3.7l0.6,0.9c1.1,1.6,0.9,3.7-0.5,5.1c-1.4,1.3-3.5,1.5-5.1,0.4
					c-5.6-3.9-11.6-7-17.7-9.1c-0.4-0.1-1.3-0.3-1.5,0.6C-114.2,347.6-114.2,347.6-114.2,347.7z"/>
				<path class="st3" d="M-88.3,364.6c-7.5-7.7-16.4-13.5-26-16.9h0.1c0,0,0,0,0,0c0,0,0.1,0,0.1,0c9.6,3.5,18.4,9.3,25.9,16.8
					C-88.2,364.5-88.3,364.6-88.3,364.6z"/>
			</g>
			<g>
			</g>
		</g>
	</g>
</g>
</svg>
