<?xml version="1.0" encoding="utf-8"?>
<!-- Generator: Adobe Illustrator 19.0.0, SVG Export Plug-In . SVG Version: 6.00 Build 0)  -->
<svg version="1.1" xmlns="http://www.w3.org/2000/svg" xmlns:xlink="http://www.w3.org/1999/xlink" x="0px" y="0px"
	 viewBox="-86 210.1 422.8 422.8" style="enable-background:new -86 210.1 422.8 422.8;" xml:space="preserve">
<style type="text/css">
	.st0{fill:#00A19A;}
	.st1{fill:#FFFFFF;}
	.st2{fill:#E577AA;}
	.st3{fill:#CAC9C9;}
	.st4{fill:#C56B9A;}
	.st5{fill:#402E21;}
	.st6{fill:#E0FF00;}
	.st7{fill:#D9415D;}
	.st8{fill:#E88D9E;}
	.st9{fill:#2F5259;}
	.st10{fill:#F1BBC5;}
	.st11{fill:#DD352E;stroke:#402E21;stroke-width:5;stroke-miterlimit:10;}
	.st12{fill:#ED8A19;stroke:#402E21;stroke-width:5;stroke-miterlimit:10;}
	.st13{fill:#EBBA16;stroke:#402E21;stroke-width:2;stroke-miterlimit:10;}
	.st14{fill:#23A24D;stroke:#402E21;stroke-width:5;stroke-miterlimit:10;}
	.st15{fill:#3F2D20;}
	.st16{fill:#CE593F;}
	.st17{fill:#EF8829;}
	.st18{fill:#84BD93;}
</style>
<g id="Lager_1">
	<g id="Lager_1_1_">
		<g id="Lager_2">
			<circle id="XMLID_8_" class="st0" cx="125.4" cy="421.5" r="211.4"/>
		</g>
	</g>
</g>
<g id="Lager_3">
	<g>
		<path class="st1" d="M-17.9,486.1c-2.5,0-4.8-0.8-6.6-2.5c-1.8-1.7-3-4-3.2-6.5l-0.8-8.5h55.3l-0.8,8.5c-0.3,2.5-1.4,4.8-3.2,6.5
			c-1.8,1.7-4.1,2.5-6.6,2.5H-17.9z"/>
		<polygon class="st2" points="-28.7,467 -33.5,420.4 31.7,420.4 26.9,467 		"/>
		<polygon class="st1" points="-33.7,418.7 -35.5,401.2 33.6,401.2 31.8,418.7 		"/>
		<path class="st2" d="M-38.9,399.6c-3,0-5.4-2.5-5.4-5.4c0-3,2.5-5.4,5.4-5.4h76.1c3,0,5.4,2.5,5.4,5.4c0,3-2.5,5.4-5.4,5.4H-38.9z
			"/>
		<path class="st1" d="M32.5,387.1h-66.9l0.3-2.3c0.7-5.9,3.4-11.3,7.6-15.4c5-5,11.6-7.7,18.6-7.7h8l-2.6,4.1c-0.1,0.4,0,1,0.4,1.1
			c0.3,0.1,0.7,0,1-0.3l3.2-5h4.1c7,0,13.6,2.8,18.6,7.7c4.1,4.1,6.9,9.6,7.6,15.4L32.5,387.1z"/>
		<g>
			<path class="st3" d="M-18.8,369.3c5-5,11.6-7.7,18.6-7.7h-7.7c-7,0-13.6,2.8-18.6,7.7c-4.1,4.1-6.9,9.6-7.6,15.4l-0.3,2.3h7.8
				l0.3-2.3C-25.6,378.9-22.9,373.6-18.8,369.3z"/>
			<path class="st3" d="M-16.2,467.5h-13.9l0.8,9.2c0.3,2.9,1.5,5.5,3.6,7.6c1.9,1.9,4.5,2.9,7.3,2.9h2.3L-16.2,467.5z"/>
		</g>
		<polygon class="st4" points="-28.9,467.8 -16.2,467.8 -16.2,419.5 -34,419.5 		"/>
		<polygon class="st3" points="-34.4,419.5 -16.2,419.5 -16.2,400.4 -35.9,400.4 		"/>
		<path class="st4" d="M-38.5,399.6h22.3v-10.7h-25.3c-1.1,0-2.1,0.7-2.6,1.7c-1.5,2.3-1.5,5.2,0,7.6c0.6,1,1.5,1.5,2.6,1.7
			L-38.5,399.6z"/>
		<path class="st5" d="M-26.4,470.8l0.7,6.2c0.1,1.9,1.1,3.7,2.5,5.1c1.4,1.2,3.3,1.9,5.2,1.9h34c1.9,0,3.9-0.7,5.2-1.9
			c1.5-1.4,2.3-3.2,2.6-5.1l0.7-6.2H-26.4z M-31.2,422.4l4.3,42.7h51.9l4.4-42.7H-31.2z M37,390.8h-75.9c-1.8,0-3.3,1.5-3.3,3.3
			c0,1.8,1.5,3.3,3.3,3.3h76.1c1.8,0,3.3-1.5,3.3-3.3C40.5,392.3,39,390.9,37,390.8z M-0.1,357.8l16.9-26.1c0.6-0.8,1.4-1.4,2.5-1.4
			h19.3c1.7,0,2.9,1.2,2.9,2.9c0,1.7-1.2,2.9-2.9,2.9l0,0H20.8l-14,21.9c15.3,0.4,27.8,12,29.3,27.2h1.1c5.1,0,9.1,4.1,9.1,9.1
			c0,5.1-4.1,9.1-9.1,9.1l0,0l-1.7,16.5l0,0l-4.8,47.9v0.4c0,0.1,0,0.3,0,0.4l-1,9.2c-0.3,3.4-1.9,6.5-4.4,8.8
			c-2.5,2.3-5.8,3.6-9.2,3.4h-34c-3.4,0-6.6-1.2-9.2-3.4c-2.5-2.3-4.1-5.5-4.4-8.8l-1-9.4l0,0l-4.8-48.2c0-0.1,0-0.3,0-0.4
			l-1.7-16.2l0,0c-5.1,0-9.1-4.1-9.1-9.1c0-5.1,4.1-9.1,9.1-9.1h1.1c1.5-15.4,14.4-27.1,30-27.1L-0.1,357.8z M0.4,367.7
			c-1,1.2-2.8,1.5-4,0.6c-1.1-0.8-1.5-2.3-0.8-3.6l0.6-1h-4.1c-12.2,0-22.6,9.2-24.1,21.3h62.3c-1.7-12.1-12-21.3-24.2-21.3h-3
			L0.4,367.7z M-33.1,403.3l1.4,13.3h61.6l1.4-13.3H-33.1L-33.1,403.3z"/>
	</g>
</g>
<g id="Lager_2_1_">
	<g>
		<circle class="st6" cx="173.2" cy="259.4" r="21.2"/>
		<path class="st7" d="M139.3,350.5h-33.9c-5.9,0-10.6,4.7-10.6,10.6c0,1.2,0.9,2.1,2.1,2.1h50.9c1.2,0,2.1-0.9,2.1-2.1
			C149.9,355.3,145.1,350.5,139.3,350.5z"/>
		<path class="st8" d="M118.1,323h8.5c1.2,0,2.1,0.9,2.1,2.1v27.6c0,1.2-0.9,2.1-2.1,2.1h-8.5c-1.2,0-2.1-0.9-2.1-2.1v-27.6
			C116,323.9,116.9,323,118.1,323z"/>
		<path class="st9" d="M173.2,236.1c-12,0-22.1,9.2-23.2,21.2h-0.1v4.2h22.4l13.8,12c-3.5,3.2-8.1,5-12.8,5v4.2
			c12.9,0,23.3-10.4,23.3-23.3C196.5,246.5,186.1,236.1,173.2,236.1z M175.3,240.4c3.6,0.4,7,1.8,9.8,4.1l-9.8,9.8V240.4z
			 M171.1,254.9l-10.9-9.4c3-2.8,6.8-4.6,10.9-5V254.9z M192.1,257.3h-13.8l9.8-9.8C190.3,250.3,191.8,253.7,192.1,257.3z
			 M192.1,261.5c-0.4,3.2-1.5,6.2-3.3,8.8l-10.1-8.8H192.1z M154.2,257.3c0.3-3.1,1.4-6,3.2-8.6l9.9,8.6H154.2z"/>
		<path class="st8" d="M71.5,257.3h101.7c1.2,0,2.1,0.9,2.1,2.1v8.5c0,1.2-0.9,2.1-2.1,2.1H71.5c-1.2,0-2.1-0.9-2.1-2.1v-8.5
			C69.3,258.2,70.3,257.3,71.5,257.3z"/>
		<path class="st10" d="M175.3,265.7h-106v11.7c0.1,10,8.2,18,18.2,18c7.5,0.1,13.5,6.1,13.6,13.6c0,10,8,18.1,18,18.2h6.4
			c10-0.1,18-8.2,18-18.2c0.1-7.5,6.1-13.5,13.6-13.6c10,0,18.1-8,18.2-18L175.3,265.7L175.3,265.7z"/>
		<g>
			<rect x="82.1" y="278.5" class="st7" width="4.2" height="4.2"/>
			<rect x="109.6" y="289.1" class="st7" width="4.2" height="4.2"/>
			<rect x="132.9" y="274.2" class="st7" width="4.2" height="4.2"/>
			<rect x="154.1" y="278.5" class="st7" width="4.2" height="4.2"/>
			<rect x="120.2" y="310.3" class="st7" width="4.2" height="4.2"/>
		</g>
		<path class="st5" d="M196.4,257.3c-1-11.2-9.9-20.1-21.1-21.1v-0.1h-4.2v0.1c-11.2,1-20.1,9.9-21.1,21.1H71.5
			c-1.2,0-2.1,0.9-2.1,2.1v18c0,9.9,8.1,18,18,18c7.6,0,13.8,6.2,13.8,13.8c0,8.7,6.3,16.2,14.8,17.7v23.6h-10.6
			c-5.9,0-10.6,4.7-10.6,10.6c0,1.2,0.9,2.1,2.1,2.1h50.9c1.2,0,2.1-0.9,2.1-2.1c0-5.9-4.7-10.6-10.6-10.6h-10.6v-23.6
			c8.6-1.5,14.8-9,14.8-17.7c0-7.6,6.2-13.8,13.8-13.8c7.9,0,14.9-5.2,17.2-12.8c11.5-0.7,20.8-9.6,21.9-21.1h0.1v-4.2H196.4z
			 M192.1,257.3h-13.8l9.8-9.8C190.3,250.3,191.8,253.7,192.1,257.3z M185.1,244.5l-9.8,9.8v-13.8
			C178.9,240.8,182.3,242.2,185.1,244.5z M171.1,254.9l-10.9-9.4c3-2.8,6.8-4.6,10.9-5V254.9z M157.4,248.7l9.9,8.6h-13.1
			C154.6,254.2,155.7,251.2,157.4,248.7z M73.6,261.5h97.5v4.2H73.6V261.5z M145.3,359H99.4c0.9-2.5,3.3-4.2,6-4.2h33.9
			C142,354.8,144.4,356.5,145.3,359z M120.2,350.5v-23.3h4.2v23.3H120.2z M157.3,291.2c-9.9,0-18,8.1-18,18
			c0,7.6-6.2,13.8-13.8,13.8h-6.4c-7.6,0-13.8-6.2-13.8-13.8c0-9.9-8.1-18-18-18c-7.6,0-13.8-6.2-13.8-13.8V270h97.5v7.4
			C171.1,285,164.9,291.2,157.3,291.2z M175.3,277.4v-13.2l10.7,9.3c-3,2.7-6.7,4.4-10.8,4.9C175.3,278,175.3,277.7,175.3,277.4z
			 M188.8,270.3l-10.1-8.8h13.4C191.8,264.7,190.7,267.7,188.8,270.3z"/>
	</g>
</g>
<g id="Lager_4">
	<g>
		<path class="st11" d="M211.1,361.3L211.1,361.3c0,2.5,1.8,4.4,4,4.4h12v20h8v-20v-4.4l0,0c0-2.5-1.8-4.4-4-4.4h-16
			C212.9,356.9,211.1,358.9,211.1,361.3z"/>
		<path class="st12" d="M291.3,485.7h-71.1c-2.8,0-5.1-2-5.1-4.4V388c0-2.5,2.3-4.4,5.1-4.4h71.1V485.7z"/>
		<rect x="216.3" y="402.5" class="st13" width="74" height="64.2"/>
		<rect x="215.1" y="424" class="st14" width="76.2" height="22.2"/>
	</g>
	<g>
		<g id="XMLID_1_">
			<g>
				<path class="st5" d="M163.5,587.8L163.5,587.8c0,9.8-8.1,17.7-18.1,17.7H99.2c-9.8,0-17.9-7.8-18-17.4c0-0.1,0.2-44.3,16.3-75.5
					c0.1-0.1,11.2-19.4,6.7-32.8L97.7,464c-4.7-0.4-8.4-4.4-8.4-9.2c0-5.1,4.2-9.3,9.3-9.3h47.6c5.1,0,9.3,4.2,9.3,9.3
					c0,4.8-3.7,8.8-8.4,9.2l-6.5,15.9c0,0,0,0,0,0c-3.6,15.6,6.7,32.5,6.7,32.6C163.3,543.8,163.5,586,163.5,587.8z M156.5,587.8
					C156.5,587.7,156.5,587.7,156.5,587.8c0-0.7-0.3-42.1-15.5-71.7c-0.5-0.7-1.9-3.4-3.8-7.4l-0.1,0h0c-0.6-1.4-1.3-3-2.1-4.8
					h-25.6c-3,6.3-5.1,11.2-5.8,12.2c-14.8,28.8-15.4,71.7-15.4,71.7c0,0.5,0,0.9,0.1,1.3c0.1,0.6,0.2,1.1,0.4,1.7
					c0.1,0.4,0.2,0.7,0.4,1.1c0.3,0.8,0.7,1.5,1.2,2.1c0.3,0.4,0.5,0.7,0.8,1c0.1,0.2,0.3,0.3,0.5,0.5c0.4,0.3,0.7,0.6,1.1,0.9
					c0.3,0.2,0.6,0.4,0.9,0.6c0.1,0.1,0.3,0.1,0.4,0.2c1.5,0.8,3.2,1.2,5,1.2h46.3c3,0,5.8-1.2,7.7-3.2c0,0,0,0,0,0
					C155.2,593.2,156.5,590.6,156.5,587.8z M148.2,454.7c0-1.1-0.9-2-2-2H98.5c-1.1,0-2.1,0.9-2.1,2c0,1.1,0.9,2,2.1,2h1.6
					c0.4,0,0.8,0.1,1.2,0.2c0.1,0,0.1,0,0.2,0.1c0.1,0,0.2,0.1,0.3,0.1c-0.2,0-0.3,0-0.4,0.1c0.4,0.3,1.5,1,1.9,1.5c0,0,0,0,0,0
					c0.1,0.1,0.1,0.2,0.1,0.3l0.3,0.8l0.8,2.1h0.1l5.3,13h2.8h22l7.4-15.9c0.3-0.6,0.9-1.3,0.9-1.7v-0.2h-0.1c0.5-0.2,1-0.4,1.6-0.4
					h1.6C147.3,456.8,148.2,455.9,148.2,454.7z M133.1,497.1c0-0.2-0.1-0.3-0.1-0.5h0.1c-0.4-2.1-0.7-4.3-0.9-6.5
					c-0.1-1.7-0.1-3.4,0-5.1c0.1-0.9,0.2-1.9,0.3-2.8c0,0,0,0,0,0h-15.8c0,0,0,0,0,0H112c0.8,5,0.4,9.9-0.5,14.4h4.9
					c0,0.2-0.1,0.3-0.1,0.5H133.1z"/>
				<path class="st15" d="M156.5,587.7C156.5,587.7,156.5,587.7,156.5,587.7c0,2.9-1.3,5.5-3.3,7.3c1.9-1.9,3.1-4.5,3.1-7.3
					c0,0,0,0,0,0c0-0.7-0.2-42.1-15.4-71.7c-0.5-0.7-1.9-3.3-3.7-7.4h0l0.1,0c1.8,4.1,3.3,6.7,3.8,7.4
					C156.2,545.6,156.5,587.1,156.5,587.7z"/>
				<path class="st16" d="M156.3,587.7C156.3,587.7,156.3,587.7,156.3,587.7c0,2.8-1.2,5.4-3.1,7.3c0,0,0,0,0,0c-2,1.8-4.8,3-7.7,3
					H99.2c-1.8,0-3.5-0.3-4.9-1.1c-0.7-1.4-1.1-2.8-1.1-4.4c0,0,0.6-38,12.9-66.5c-0.6,1.7-1.2,3.3-1.7,5c0,0.1-0.1,0.1-0.1,0.2
					c-0.8,2.6-1.5,5.1-2.2,7.7c0,0,0,0,0,0.1c-0.2,0.9-0.5,1.8-0.7,2.6c0,0.1-0.1,0.2-0.1,0.4c-0.2,0.8-0.3,1.5-0.5,2.2
					c-0.2,0.9-0.4,1.7-0.6,2.5c-0.4,1.7-0.7,3.3-1,5c-0.5,2.5-0.9,4.9-1.2,7.2c-0.1,0.4-0.1,0.9-0.2,1.3c-0.2,1-0.3,2-0.4,3
					c-0.1,0.6-0.2,1.2-0.2,1.8c-0.3,2,1.2,3.8,3.1,4c0.1,0,0.2,0,0.2,0c0.1,0,0.2,0,0.2,0c1,0,2-0.4,2.6-1.1c0.5-0.5,0.9-1.3,1-2.1
					c1.4-11.7,4.5-28.8,11.1-43.9c0.6-1.5,0.2-3.2-1-4.2c-0.3-0.2-0.6-0.4-0.9-0.6c-1-0.4-2-0.4-2.9,0c-0.2,0.1-0.3,0.2-0.4,0.2
					c1-2.2,2.4-5,4.2-8.9h22.8c1.9,4.1,3.2,6.7,3.7,7.4C156.1,545.6,156.3,587.1,156.3,587.7z"/>
				<path class="st1" d="M92.9,596.3c-0.4-0.3-0.8-0.6-1.1-0.9c-0.2-0.1-0.3-0.3-0.5-0.5c-0.3-0.3-0.6-0.6-0.8-1
					c-0.5-0.6-0.9-1.3-1.2-2.1c-0.1-0.3-0.3-0.7-0.4-1.1c-0.2-0.5-0.3-1.1-0.4-1.7c-0.1-0.4-0.1-0.9-0.1-1.3c0,0,0.6-42.9,15.4-71.7
					c0.6-1,2.8-6,5.8-12.2h25.6c0.7,1.8,1.4,3.4,2.1,4.8h-22.8c-1.7,3.8-3.1,6.7-4.2,8.9v0h0c-0.3,0.2-0.5,0.4-0.7,0.6
					c-0.3,0.3-0.5,0.6-0.7,1c-0.5,1.1-0.9,2.2-1.4,3.3c0,0,0,0.1,0,0.1c-0.5,1.2-0.9,2.3-1.3,3.5c0,0,0,0,0,0.1
					c-12.4,28.5-12.9,66.4-12.9,66.5c0,1.6,0.4,3,1.1,4.4c1.5,0.8,3.2,1.1,4.9,1.1h46.3c3,0,5.7-1.1,7.7-3c-2,2-4.7,3.2-7.7,3.2
					H99.2c-1.8,0-3.5-0.4-5-1.2c-0.1-0.1-0.3-0.1-0.4-0.2C93.5,596.7,93.2,596.5,92.9,596.3z"/>
				<path class="st17" d="M146.2,452.7c1.1,0,2,0.9,2,2c0,1.1-0.9,2-2,2h-1.6c-0.6,0-1.1,0.1-1.6,0.4h-39.6c-0.2,0-1,0-1.5,0.1
					c-0.1-0.1-0.2-0.1-0.3-0.1c-0.1,0-0.1-0.1-0.2-0.1c-0.4-0.1-0.8-0.2-1.2-0.2h-1.6c-1.1,0-2.1-0.9-2.1-2c0-1.1,0.9-2,2.1-2H146.2
					z"/>
				<path class="st15" d="M142.8,457.2c0,0,0.1,0,0.1-0.1h0.1v0.2c0,0.4-0.6,1.1-0.9,1.7l-7.4,15.9l6.4-15.9
					C141.5,458.2,142.1,457.6,142.8,457.2z"/>
				<path class="st17" d="M142.9,457.1c0,0-0.1,0-0.1,0.1c-0.7,0.4-1.3,1-1.7,1.8l-6.4,15.9h-22l-4.4-10.8c-0.6-1.4-1.9-2.2-3.4-2.2
					h-0.3l-0.9-2.1l-0.3-0.8c0-0.1-0.1-0.1-0.1-0.2c0,0,0,0,0,0c-0.3-0.7-0.9-1.2-1.5-1.6c0.5,0,1.3-0.1,1.5-0.1H142.9z"/>
				<path class="st15" d="M133,496.6c0,0.2,0.1,0.3,0.1,0.5h-16.7c0-0.2,0.1-0.3,0.1-0.5H133z"/>
				<path class="st18" d="M133,496.6h-16.6c0.8-4.7,1.2-9.8,0.4-14.4h15.8c-0.1,0.9-0.3,1.9-0.3,2.8c-0.1,1.7-0.1,3.4,0,5.1
					C132.4,492.3,132.6,494.5,133,496.6z"/>
				<path class="st15" d="M132.6,482.2C132.6,482.2,132.6,482.2,132.6,482.2l-15.8,0c0,0,0,0,0,0H132.6z"/>
				<path class="st1" d="M116.8,482.2c0.8,4.6,0.4,9.7-0.4,14.4h-4.9c0.9-4.5,1.3-9.4,0.5-14.4H116.8z"/>
				<path class="st15" d="M109.5,518.1c0.2-0.2,0.4-0.4,0.7-0.6h0c0.1-0.1,0.3-0.2,0.4-0.3c0.9-0.4,2-0.5,2.9,0
					c0.3,0.1,0.7,0.3,0.9,0.6c1.2,1,1.6,2.7,1,4.2c-6.5,15.1-9.6,32.3-11.1,43.9c-0.1,0.8-0.4,1.5-1,2.1c-0.7,0.7-1.6,1.1-2.6,1.1
					c-0.1,0-0.2,0-0.2,0c-0.1,0-0.1,0-0.2,0c-2-0.3-3.4-2-3.1-4c0.1-0.6,0.2-1.2,0.2-1.8c0.1-1,0.3-2,0.4-3c0.1-0.4,0.1-0.9,0.2-1.3
					c0.3-2.3,0.8-4.7,1.2-7.2c0.3-1.6,0.6-3.3,1-5c0.2-0.8,0.4-1.7,0.6-2.5c0.2-0.7,0.3-1.5,0.5-2.2c0-0.1,0.1-0.2,0.1-0.4
					c0.2-0.9,0.4-1.7,0.7-2.6c0,0,0,0,0-0.1c0.7-2.5,1.4-5.1,2.2-7.7c0-0.1,0.1-0.1,0.1-0.2c0.6-1.8,1.2-3.5,1.8-5.3
					c0,0.1-0.1,0.2-0.1,0.3c0.4-1.2,0.9-2.3,1.3-3.5c0,0,0-0.1,0-0.1c0.4-1.1,0.9-2.2,1.4-3.3C109,518.7,109.2,518.4,109.5,518.1z"
					/>
				<path class="st17" d="M108.3,464.2l4.4,10.8h-2.8l-5.3-13h0.3C106.4,462,107.7,462.8,108.3,464.2z"/>
				<path class="st16" d="M106.1,526.1c0-0.1,0.1-0.2,0.1-0.3c-0.6,1.8-1.2,3.5-1.8,5.3C104.9,529.4,105.5,527.8,106.1,526.1
					C106.1,526.1,106.1,526.1,106.1,526.1z"/>
				<polygon class="st15" points="103.8,459.8 104.7,462 104.6,462 				"/>
				<path class="st16" d="M100.8,569.1c1,0,2-0.4,2.6-1.1C102.8,568.7,101.9,569.1,100.8,569.1c-0.1,0-0.2,0-0.2,0
					C100.7,569.1,100.8,569.1,100.8,569.1z"/>
				<path class="st16" d="M104.4,531.3c-0.8,2.6-1.5,5.1-2.2,7.7C102.8,536.4,103.5,533.9,104.4,531.3z"/>
				<path class="st15" d="M103.3,458.8c-0.4-0.5-1.6-1.2-1.9-1.5c0.1,0,0.2,0,0.4-0.1C102.5,457.5,103,458.1,103.3,458.8z"/>
				<path class="st16" d="M102.1,539c-0.2,0.9-0.5,1.7-0.7,2.6C101.7,540.8,101.9,539.9,102.1,539z"/>
				<path class="st15" d="M101.5,457.1c-0.1,0-0.1,0-0.2-0.1C101.4,457,101.4,457,101.5,457.1z"/>
				<path class="st16" d="M101.4,542c-0.2,0.8-0.3,1.5-0.5,2.2C101,543.5,101.2,542.8,101.4,542z"/>
				<path class="st16" d="M100.9,544.2c-0.2,0.9-0.4,1.7-0.6,2.5C100.5,545.9,100.7,545.1,100.9,544.2z"/>
				<path class="st16" d="M100.3,546.8c-0.4,1.7-0.7,3.3-1,5C99.6,550.1,99.9,548.5,100.3,546.8z"/>
			</g>
			<g>
			</g>
		</g>
	</g>
</g>
</svg>
