<?xml version="1.0" encoding="utf-8"?>
<!-- Generator: Adobe Illustrator 19.0.0, SVG Export Plug-In . SVG Version: 6.00 Build 0)  -->
<svg version="1.1" id="Lager_1" xmlns="http://www.w3.org/2000/svg" xmlns:xlink="http://www.w3.org/1999/xlink" x="0px" y="0px"
	 viewBox="0 0 422.8 422.8" style="enable-background:new 0 0 422.8 422.8;" xml:space="preserve">
<style type="text/css">
	.st0{fill:#00A19A;}
	.st1{fill:#402E21;}
	.st2{fill:#FFFFFF;}
	.st3{fill:#EF7D7E;}
	.st4{fill:#85BE94;}
	.st5{fill:#FED44D;}
	.st6{fill:#CF5A3F;}
	.st7{fill:#F08829;}
	.st8{fill:#412F22;}
	.st9{fill:#86BF95;}
</style>
<g id="Lager_1_1_">
	<g id="Lager_2">
		<circle id="XMLID_8_" class="st0" cx="211.4" cy="211.4" r="211.4"/>
	</g>
</g>
<g id="Lager_2_2_">
	<g id="XMLID_5_">
		<g id="XMLID_2_">
			<g id="XMLID_7_">
				<path id="XMLID_40_" class="st1" d="M257.8,86.8c-0.6-0.2-1.2-0.6-1.7-0.8c-0.1,0-0.2-0.1-0.2-0.1c-0.6-0.2-1.2-0.5-1.7-0.7
					c-11.9-4.7-27.5-7.3-43.8-7.3c-17.5,0-33.2,5.7-43.2,10.5c-9.8,4.7-16.1,9.4-18.9,11.9c0.6,0.5,1.2,1,1.9,1.5
					c0.1,0.1,0.2,0.2,0.2,0.2c0.2,0.1,0.2,0.2,0.4,0.3l0,0c0.3,0.2,0.6,0.4,0.9,0.6c0,0,0,0,0.1,0c0.3,0.2,0.6,0.5,1,0.7
					c0.9,0.6,1.7,1.3,2.8,1.9c0,0,0.1,0,0.1,0.1c0.4,0.2,0.8,0.5,1.1,0.8c2.3,1.5,5,3.1,8,4.7c0.5,0.2,1,0.6,1.4,0.8
					c0.3,0.2,0.6,0.3,1,0.6c3.1,1.6,6.8,3.3,11,4.9c13-6,11.5-15.6,11.4-16c-0.4-1.7,0.7-3.4,2.5-3.8s3.4,0.8,3.8,2.5
					c1,4.5-0.2,13.4-9.5,20c7.2,2.1,15.3,3.5,23.9,3.5c16.3,0,31.9-2.6,43.8-7.3c10.6-4.2,17.6-9.8,19.2-15.5
					c-0.1-0.2-0.1-0.3-0.2-0.6c-0.1-0.2-0.1-0.3-0.2-0.4c-0.1-0.3-0.2-0.6-0.4-1c-0.4-0.9-1-1.7-1.6-2.5c-1-1.4-2.4-2.7-4.1-4.1
					c-0.8-0.6-1.6-1.3-2.5-1.8c-0.6-0.3-1.1-0.7-1.7-1C261.2,88.4,259.6,87.6,257.8,86.8z M200.8,71.9c2.6-0.3,5.3-0.5,8.1-0.5
					c-0.5,0-0.9,0.1-1.3,0.1c0.6,0,1.2-0.1,1.8-0.1c0.2,0,0.5,0,0.7,0c8.2,0,16.1,0.6,23.7,1.8l0.2-6.6l0.2-3.4
					c-7.8,0.1-28.1,1.2-41.6,9.9C195.3,72.6,198,72.2,200.8,71.9z M200.5,129.3c0.2,0,0.4,0.1,0.6,0.1c0,0,0,0,0,0.1
					c-1.8-0.2-3.7-0.4-5.5-0.7c1.5,3.7,4.9,8.9,12.9,10.7v-1.8c0.1,0.1,0.2,0.1,0.2,0.2v-7.8c-0.2,0-0.2,0-0.4,0
					C206.3,129.7,203.2,129.6,200.5,129.3z M311.7,79.9c0.6,0.8,0.9,1.7,0.6,2.7l-3.8,18.1l3.8,18.1c0.2,1-0.1,2-0.6,2.7
					c-0.6,0.7-1.5,1.2-2.5,1.2h-0.1c-17.8-0.4-27.5-9.1-32.1-15.1c-3.7,5.6-10.8,10.7-20.7,14.6c-11.5,4.5-26,7.2-41.3,7.6V143
					c0,0.9-0.4,1.8-1,2.4c-0.6,0.6-1.4,0.9-2.1,0.9c-0.1,0-0.2,0-0.2,0c-11.3-1-17.1-6.7-19.9-11.4c-1.7-2.9-2.6-5.7-3.1-7.7
					c-24.3-5.9-42.6-19.8-47-24.3c-1.9-1.9-1.4-3-0.1-4.6c3.6-4.8,14-11.5,21.5-15.1c4.5-2.2,10.1-4.6,16.5-6.7
					c15.9-21.2,56.6-19.7,58.3-19.6c1.7,0.1,3.2,1.6,3.1,3.3l-0.6,14.2c5.8,1.2,11.2,2.8,16.1,4.8c9.9,3.9,16.9,8.9,20.7,14.6
					c4.6-6,14.3-14.7,32.1-15.1C310.2,78.7,311.1,79.1,311.7,79.9z M304.2,90.2l1-4.8c-16.1,1.8-23.1,11.7-25.1,15.3
					c0.2,0.4,0.6,0.9,0.9,1.4c0.2,0.4,0.6,0.8,0.9,1.2c0.5,0.6,1,1.3,1.6,1.9c0.7,0.8,1.5,1.6,2.4,2.4c0.9,0.8,1.8,1.5,2.9,2.3
					c0.7,0.5,1.4,1,2.2,1.4c0.5,0.3,1,0.6,1.5,0.8c2.2,1.2,4.9,2.1,7.9,2.9c0.4,0.1,0.7,0.2,1.1,0.2c0.1,0,0.2,0,0.2,0.1
					c0.3,0.1,0.6,0.2,1,0.2c0.1,0,0.2,0,0.2,0c0.3,0.1,0.7,0.2,1.1,0.2c0.4,0.1,0.9,0.1,1.3,0.2l-3-14.6l0,0c-0.1-0.6-0.1-1,0-1.2
					c0-0.1,0-0.1,0-0.1L304.2,90.2z"/>
				<path id="XMLID_39_" class="st2" d="M285.9,107.6c-0.9-0.8-1.7-1.6-2.4-2.4c-0.6-0.7-1.1-1.4-1.6-1.9c-0.3-0.4-0.6-0.8-0.9-1.2
					c-0.4-0.6-0.6-1-0.9-1.4c2-3.6,9-13.4,25.1-15.3l-1,4.8c-10.9,3.4-16,10.7-17.7,13.7c1.2,2.1,4.1,6.3,9.4,9.9
					c1.4,0.5,2.8,1,4.3,1.4c-3-0.7-5.6-1.7-7.9-2.9c-0.5-0.2-1-0.6-1.5-0.8c-0.8-0.5-1.5-1-2.2-1.4
					C287.6,109.1,286.7,108.4,285.9,107.6z"/>
				<path id="XMLID_38_" class="st3" d="M302.2,101.3l3,14.6c-0.4-0.1-0.9-0.1-1.3-0.2c-0.4-0.1-0.7-0.1-1.1-0.2c-0.1,0-0.2,0-0.2,0
					c-0.3-0.1-0.6-0.1-1-0.2c-0.1,0-0.2,0-0.2-0.1c-0.4-0.1-0.7-0.2-1.1-0.2c-1.5-0.4-2.9-0.8-4.3-1.4c-5.4-3.5-8.3-7.7-9.4-9.9
					c1.7-2.9,6.8-10.3,17.7-13.7l-2.1,9.8c0,0,0,0,0,0.1C302.1,100.3,302,100.8,302.2,101.3C302.2,101.3,302.2,101.3,302.2,101.3z"
					/>
				<path id="XMLID_37_" class="st1" d="M273.2,100.6c-0.1-0.2-0.1-0.3-0.2-0.6C273.1,100.3,273.2,100.5,273.2,100.6z"/>
				<path id="XMLID_36_" class="st3" d="M273.1,100.1c0.1,0.2,0.1,0.3,0.2,0.6c-1.7,5.6-8.6,11.3-19.2,15.5
					c-11.9,4.7-27.5,7.3-43.8,7.3c-8.6,0-16.7-1.4-23.9-3.5c9.2-6.6,10.4-15.5,9.5-20c-0.4-1.7-2.1-2.9-3.8-2.5s-2.9,2.1-2.5,3.8
					c0.1,0.4,1.7,10-11.4,16c-4.1-1.6-7.9-3.3-11-4.9c-0.3-0.2-0.6-0.3-1-0.6c-0.5-0.2-1-0.5-1.4-0.8c-2.9-1.6-5.6-3.2-8-4.7
					c-0.4-0.2-0.8-0.5-1.1-0.8c0,0-0.1,0-0.1-0.1c2.2-1.9,6.2-4.8,11.7-7.9c0.2,0.2,0.2,0.4,0.4,0.6c0.6,0.6,1.4,1,2.3,1
					c0.9,0,1.7-0.2,2.3-0.9c0.6-0.6,1-1.3,1-2.1c0-0.1,0-0.1,0-0.2l0,0V96c0-0.2,0-0.5-0.1-0.8c0.2-0.2,0.3-0.4,0.5-0.5
					c7.8-3.7,18.9-8.3,31.7-10c-1.1,0.5-1.8,1.5-1.8,2.8v0.1v0.1c0,1.7,1.4,3.2,3.2,3.2l0,0c27.2-0.1,40.4,5.5,48.8,10.3
					c0.5,0.2,1,0.4,1.4,0.4c0.1,0,0.2,0,0.2,0c1.1,0,2.2-0.6,2.8-1.6c0.9-1.5,0.3-3.5-1.2-4.4c-1.8-1-3.8-2.1-6.1-3.2
					c-0.5-0.2-1-0.4-1.4-0.6c-0.9-0.4-1.7-0.7-2.6-1.1c-0.8-0.3-1.6-0.6-2.5-0.9c-0.5-0.2-0.9-0.3-1.4-0.5c-1-0.3-1.9-0.6-2.9-0.9
					c-0.9-0.2-1.8-0.5-2.9-0.8c-0.4-0.1-0.7-0.2-1.1-0.2c-0.7-0.2-1.4-0.3-2.1-0.5c-0.1,0-0.2,0-0.2-0.1c-0.5-0.1-1-0.2-1.4-0.3
					c-2.1-0.4-4.5-0.8-7-1.1c-0.5-0.1-1-0.2-1.6-0.2c-2.2-0.2-4.5-0.5-7-0.6c-0.7-0.1-1.5-0.1-2.2-0.2c-0.3,0-0.6,0-1-0.1
					c-0.8,0-1.6-0.1-2.5-0.1c-0.8,0-1.7-0.1-2.5-0.1c-0.3,0-0.6,0-1,0c-0.6,0-1,0-1.6,0c2.9-0.3,5.9-0.5,9-0.5
					c16.3,0,31.9,2.6,43.8,7.3c4.3,1.7,7.9,3.6,10.9,5.6c0.5,0.6,0.8,1.3,1.1,1.9c0.2,0.3,0.3,0.6,0.4,1
					C272.9,99.8,273,100,273.1,100.1z"/>
				<path id="XMLID_35_" class="st2" d="M270.9,96.2c0.6,0.8,1.2,1.7,1.6,2.5c-0.3-0.6-0.7-1.3-1.1-1.9c-2.9-2.1-6.6-4-10.9-5.6
					c-11.9-4.7-27.5-7.3-43.8-7.3c-3,0-6,0.2-9,0.5c-0.1,0-0.2,0-0.3,0c-0.2,0-0.5,0-0.7,0s-0.5,0-0.7,0.1l0,0
					c-1.4,0.3-2.4,1.6-2.4,3v-0.1c0-1.3,0.7-2.3,1.8-2.8h0.1l0,0c0,0-0.1,0-0.1,0.1c-12.8,1.7-24,6.3-31.7,10
					c-0.2,0.1-0.3,0.4-0.5,0.5c-0.1-0.3-0.2-0.6-0.4-1l0,0c0,0,0,0,0-0.1c-0.2-0.2-0.2-0.3-0.4-0.5c-0.6-0.6-1.4-1-2.3-1
					c-0.9,0-1.7,0.3-2.3,1c-0.6,0.6-1,1.4-1,2.3c0,0.2,0,0.4,0.1,0.6c0,0.2,0.1,0.2,0.1,0.4l0,0c0,0.1,0,0.1,0.1,0.2l0,0
					c0.1,0.2,0.2,0.4,0.3,0.6c-0.1-0.1-0.1-0.2-0.2-0.2c0,0.1,0.1,0.2,0.2,0.2c-5.5,3.1-9.5,6-11.7,7.9c-1-0.6-1.9-1.3-2.8-1.9
					c-0.3-0.2-0.6-0.5-1-0.7c0,0,0,0-0.1,0c-0.3-0.2-0.6-0.5-0.9-0.6l0,0c-0.2-0.2-0.5-0.4-0.7-0.6c-0.7-0.6-1.4-1.1-1.9-1.5
					c2.6-2.5,9.1-7.2,18.9-11.9c10-4.8,25.7-10.5,43.2-10.5c16.3,0,31.9,2.6,43.8,7.3c0.6,0.2,1.2,0.5,1.7,0.7
					c0.1,0,0.2,0.1,0.2,0.1c0.6,0.2,1.2,0.6,1.8,0.8c1.7,0.8,3.3,1.7,4.9,2.5c0.6,0.3,1.1,0.7,1.7,1c0.9,0.6,1.8,1.2,2.5,1.8
					C268.5,93.5,269.8,94.9,270.9,96.2z"/>
				<path id="XMLID_34_" class="st1" d="M258.7,95.6c1.5,0.9,2.1,2.9,1.2,4.4c-0.6,1-1.7,1.6-2.8,1.6c-0.1,0-0.2,0-0.2,0
					c-0.5-0.1-1-0.3-1.4-0.6c-8.4-4.9-21.6-10.5-48.8-10.5l0,0c-1.7,0-3.2-1.3-3.2-2.9c0-1.4,1-2.7,2.4-3l0,0
					c0.2-0.1,0.5-0.1,0.7-0.1c0.2,0,0.5,0,0.7,0c0.1,0,0.2,0,0.3,0c0.6,0,1.1,0,1.6,0c0.3,0,0.6,0,1,0c0.9,0,1.7,0,2.5,0.1
					c0.8,0,1.7,0.1,2.5,0.1c0.3,0,0.6,0,1,0.1c0.8,0,1.5,0.1,2.2,0.2c2.5,0.2,4.8,0.4,7,0.6c0.6,0.1,1,0.1,1.6,0.2
					c2.5,0.3,4.8,0.7,7,1.1c0.5,0.1,1,0.2,1.4,0.3c0.1,0,0.2,0,0.2,0.1c0.7,0.2,1.4,0.3,2.1,0.5c0.4,0.1,0.7,0.2,1.1,0.2
					c1,0.2,1.9,0.5,2.9,0.8c1,0.3,2,0.6,2.9,0.9c0.5,0.2,0.9,0.3,1.4,0.5c0.9,0.3,1.7,0.6,2.5,0.9c1,0.4,1.8,0.7,2.6,1.1
					c0.5,0.2,1,0.4,1.4,0.6C254.9,93.5,256.9,94.6,258.7,95.6z"/>
				<path id="XMLID_33_" class="st4" d="M256.9,101.6c-0.5,0-1-0.2-1.4-0.4c-8.4-4.9-21.6-10.4-48.8-10.3l0,0
					c-1.7,0-3.2-1.4-3.2-3.2v-0.1c0.1,1.7,1.4,2.9,3.2,2.9l0,0c27.2,0,40.4,5.6,48.8,10.5C255.9,101.3,256.4,101.6,256.9,101.6z"/>
				<path id="XMLID_32_" class="st4" d="M248.4,90.7c-0.8-0.3-1.6-0.6-2.5-0.9C246.8,90.1,247.6,90.4,248.4,90.7z"/>
				<path id="XMLID_31_" class="st4" d="M246,89.8c-0.5-0.2-0.9-0.3-1.4-0.5C245.1,89.5,245.6,89.6,246,89.8z"/>
				<path id="XMLID_30_" class="st4" d="M241.7,88.4c-1-0.2-1.9-0.5-2.9-0.8C239.8,88,240.8,88.2,241.7,88.4z"/>
				<path id="XMLID_29_" class="st4" d="M237.8,87.4c-0.7-0.2-1.4-0.3-2.1-0.5C236.3,87.1,237.1,87.3,237.8,87.4z"/>
				<path id="XMLID_28_" class="st4" d="M235.4,86.9c-0.5-0.1-1-0.2-1.4-0.3C234.4,86.7,234.9,86.9,235.4,86.9z"/>
				<path id="XMLID_27_" class="st2" d="M234.3,63.2l-0.2,3.4c-6.8,0.5-16.4,1.7-25.1,4.8c0,0,0,0-0.1,0c-2.8,0-5.5,0.2-8.1,0.5
					c-2.8,0.3-5.6,0.7-8.2,1.2C206.1,64.5,226.5,63.3,234.3,63.2z"/>
				<path id="XMLID_26_" class="st5" d="M234.1,66.7l-0.2,6.6c-7.5-1.2-15.5-1.8-23.7-1.8c-0.2,0-0.5,0-0.7,0c-0.2,0-0.3,0-0.5,0
					C217.7,68.3,227.3,67.1,234.1,66.7z"/>
				<path id="XMLID_25_" class="st4" d="M215.2,84.6c-0.8,0-1.6-0.1-2.5-0.1C213.6,84.6,214.4,84.6,215.2,84.6z"/>
				<path id="XMLID_24_" class="st4" d="M210.2,84.5c-0.3,0-0.6,0-1,0C209.6,84.5,209.9,84.5,210.2,84.5z"/>
				<path id="XMLID_23_" class="st1" d="M209,71.4c0.2,0,0.3,0,0.5,0c-0.6,0-1.2,0.1-1.8,0.1C208,71.5,208.5,71.4,209,71.4
					C208.9,71.4,209,71.4,209,71.4z"/>
				<path id="XMLID_22_" class="st1" d="M208.9,129.8v7.8c-0.1-0.1-0.2-0.1-0.2-0.2v-7.7c-0.1,0-0.1,0-0.2,0
					C208.6,129.8,208.7,129.8,208.9,129.8z"/>
				<path id="XMLID_21_" class="st2" d="M208.7,137.5v1.8c-8-1.8-11.5-6.9-12.9-10.7c1.8,0.3,3.7,0.6,5.5,0.7
					C202.4,132.1,204.5,135.4,208.7,137.5z"/>
				<path id="XMLID_20_" class="st5" d="M208.7,129.8v7.7c-4.1-2.1-6.2-5.4-7.5-8.2c2.4,0.2,4.9,0.4,7.3,0.5
					C208.5,129.8,208.6,129.8,208.7,129.8z"/>
				<path id="XMLID_19_" class="st1" d="M200.5,129.3c2.7,0.3,5.9,0.6,8,0.6c-2.5,0-4.9-0.2-7.3-0.5c0,0,0,0,0-0.1
					C200.9,129.3,200.7,129.3,200.5,129.3z"/>
				<path id="XMLID_18_" class="st4" d="M205.2,84.7L205.2,84.7L205.2,84.7C205.2,84.6,205.2,84.6,205.2,84.7z"/>
				<path id="XMLID_17_" class="st4" d="M173,95.9L173,95.9c0-0.3-0.1-0.7-0.2-0.7c0.1,0,0.1,0,0.2-0.1C173,95.4,173,95.7,173,95.9z
					"/>
				<path id="XMLID_16_" class="st1" d="M166.7,96.9c-0.1-0.1-0.1-0.2-0.1-0.4c0-0.2-0.1-0.4-0.1-0.6c0-0.9,0.3-1.7,1-2.3
					c0.6-0.6,1.4-1,2.3-1c0.9,0,1.7,0.3,2.3,1c0.2,0.2,0.3,0.3,0.4,0.5c0,0,0,0,0,0.1l0,0c0.2,0.3,0.3,0.6,0.4,1
					c-0.1,0.1-0.1,0.1-0.2,0.1c0.2,0,0.2,0.4,0.2,0.8l0,0c0,0.8-0.4,1.6-1,2.1c-0.6,0.6-1.4,1-2.3,1s-1.7-0.3-2.3-1
					c-0.2-0.2-0.3-0.3-0.4-0.5c-0.2-0.2-0.2-0.4-0.3-0.6l0,0C166.8,97,166.8,96.9,166.7,96.9L166.7,96.9z"/>
				<path id="XMLID_15_" class="st4" d="M167,97.4c0.1,0.1,0.1,0.2,0.2,0.2l0,0C167.1,97.6,167.1,97.5,167,97.4z"/>
				<path id="XMLID_14_" class="st1" d="M164.6,111c0.5,0.2,1,0.5,1.4,0.8C165.5,111.6,165.1,111.4,164.6,111z"/>
				<path id="XMLID_13_" class="st1" d="M155.5,105.6c0.4,0.2,0.8,0.5,1.1,0.8C156.2,106.1,155.9,105.9,155.5,105.6z"/>
				<path id="XMLID_12_" class="st1" d="M151.8,103c0.3,0.2,0.6,0.5,1,0.7C152.3,103.4,152,103.2,151.8,103z"/>
				<path id="XMLID_11_" class="st1" d="M150.8,102.3c0.3,0.2,0.6,0.4,0.9,0.6C151.4,102.7,151.1,102.5,150.8,102.3z"/>
				<path id="XMLID_9_" class="st1" d="M150.8,102.3c-0.2-0.1-0.3-0.2-0.4-0.3c-0.1-0.1-0.2-0.2-0.2-0.2
					C150.3,101.9,150.6,102.1,150.8,102.3z"/>
			</g>
		</g>
	</g>
</g>
<g id="Lager_2_4_">
	<g id="XMLID_49_">
		<g id="XMLID_180_">
			<g id="XMLID_4_">
				<path id="XMLID_260_" class="st2" d="M66.3,117.6c-0.1,0.6-0.2,1.2-0.2,1.7c0.8,0.4,1.3,0.4,1.3,0.4l9.1,1.7l-9.1-1.6
					c-0.1,0-0.4-0.1-1-0.3c-0.5-0.2-1.2-0.5-1.8-1c0,0-0.1-0.1-0.1-0.2c-2-1.6-2.7-4.2-2.2-7.6l1.8-10l22,3.9l-0.4,2.2l-0.7,3.8
					l0,0.1l-17-3.1L66.3,117.6z"/>
				<path id="XMLID_259_" class="st1" d="M189.4,184.2c-0.8,0.3-1.6,0.7-2.6,1.1c-0.3,0.1-0.5,0.3-0.9,0.4c-0.1,0-0.3,0-0.4,0
					c-0.1,0-0.1,0-0.1,0c0.2-0.1,0.5-0.2,0.7-0.3c0.3-0.1,0.6-0.3,0.9-0.4c0.9-0.3,1.8-0.7,2.6-1.1c0.4-0.2,0.8-0.4,1.1-0.5
					c0,0,0.1,0,0.1,0.1C190.3,183.8,189.9,184.1,189.4,184.2z"/>
				<path id="XMLID_258_" class="st1" d="M185.5,185.7c-0.1,0-0.1,0-0.1,0C185.4,185.7,185.5,185.7,185.5,185.7z"/>
				<path id="XMLID_257_" class="st5" d="M185.2,185.7c-2.6,0.5-5.2,1-7.7,1.3C180,186.7,182.6,186.3,185.2,185.7z"/>
				<path id="XMLID_256_" class="st5" d="M176.1,187.3c0.4-0.1,0.9-0.1,1.3-0.2C177,187.2,176.6,187.2,176.1,187.3z"/>
				<path id="XMLID_255_" class="st1" d="M155,216.2c0.4,0,0.8,0,1.2,0.1C155.8,216.3,155.4,216.2,155,216.2z"/>
				<path id="XMLID_254_" class="st1" d="M156.2,216.3c3,0.2,5.9,0.3,8.5,0.4c-0.1,0-0.1,0-0.2,0c-1.9,0-3.8,0-5.9-0.1
					c-0.6,0-1.2-0.1-1.8-0.1c-0.2,0-0.4,0-0.6,0c-0.4,0-0.9,0-1.3-0.1c-0.1,0-0.3,0-0.5,0c-0.6-0.2-1.3-0.3-2-0.3
					c0.7,0.1,1.3,0.1,2,0.1c0.2,0,0.3,0,0.5,0c0,0,0.1,0,0.1,0C155.4,216.2,155.8,216.3,156.2,216.3L156.2,216.3z"/>
				<path id="XMLID_253_" class="st1" d="M159.7,229c-7.3,1.4-14.6,2.2-21.8,2.3c-0.2,0-0.5,0-0.7,0
					C144.5,231.2,152.2,230.4,159.7,229c1.3-0.4,2.6-0.6,3.8-0.9c0.6-0.2,1.3-0.3,2-0.4c1.3-0.3,2.6-0.6,3.9-1
					c1.7-0.4,2.8-1.1,3.6-1.8c0.1-0.1,0.2-0.2,0.3-0.3c0.4-0.4,0.7-0.7,0.9-1.1c0.2-0.2,0.3-0.5,0.4-0.7c0,0,0.1,0,0.1,0
					c-0.1,0.3-0.3,0.5-0.4,0.8c-0.3,0.4-0.5,0.7-0.9,1.1c-0.1,0.1-0.2,0.2-0.3,0.3c-0.8,0.7-2,1.3-3.6,1.8c-1.2,0.4-2.6,0.7-3.9,1
					c-0.6,0.2-1.3,0.3-1.9,0.4C162.3,228.5,161,228.7,159.7,229z"/>
				<path id="XMLID_252_" class="st1" d="M151.8,216c-0.2,0-0.4-0.1-0.6-0.1C151.5,216,151.7,216,151.8,216z"/>
				<path id="XMLID_251_" class="st1" d="M147.6,215.7c-0.3,0-0.5-0.1-0.7-0.1c-1-0.1-1.9-0.2-2.9-0.4c1,0.1,2,0.3,3,0.4
					C147.1,215.6,147.4,215.6,147.6,215.7z"/>
				<path id="XMLID_250_" class="st1" d="M139.2,214.5c1,0.2,2.1,0.3,3.1,0.5C141.3,214.8,140.2,214.7,139.2,214.5z"/>
				<path id="XMLID_249_" class="st1" d="M137.6,214.2c0.6,0.1,1.1,0.2,1.6,0.3C138.7,214.4,138.1,214.3,137.6,214.2z"/>
				<path id="XMLID_242_" class="st1" d="M137.9,231.5c-1.4,0-2.8-0.1-4.2-0.2c0.6,0,1.2,0,1.8,0c0.5,0,1,0,1.6,0c0.2,0,0.5,0,0.7,0
					c7.2-0.1,14.6-0.9,21.8-2.3c1.3-0.3,2.6-0.5,3.9-0.8c0.6-0.1,1.3-0.3,1.9-0.4c1.3-0.3,2.7-0.6,3.9-1c1.6-0.4,2.8-1.1,3.6-1.8
					c0.1-0.1,0.2-0.2,0.3-0.3c0.4-0.4,0.6-0.7,0.9-1.1c0.2-0.3,0.3-0.5,0.4-0.8c0,0-0.1,0-0.1,0c0.1-0.1,0.1-0.3,0.1-0.4
					c-0.8,0.1-1.8,0.1-2.8,0.2c-0.8,0.3-1.6,0.3-2.6,0.3c-0.3,0-0.6,0-1,0c-0.7,0-1.4,0-2.1,0c-0.4,0-0.8,0-1.3,0
					c-0.5,0-1.1,0-1.6,0c-4.9,0-10.7-0.2-17.1-0.9c-23.9-2.7-43.5-10.8-56.7-23.8c-0.9-0.9-1.8-1.8-2.6-2.7c-0.8-1-1.6-1.9-2.4-2.8
					c-1.5-1.9-3-4-4.3-6c-0.7-1.1-1.3-2.1-2-3.2c-2.5-4.4-4.6-9.1-6.1-14.2c-0.2-0.7-0.4-1.3-0.6-2c-0.1-0.3-0.2-0.6-0.3-1l-0.4-1.4
					c-0.1-0.4-0.2-0.9-0.3-1.3c-1.7-7-2.5-14.7-2.5-22.9c0-2.7,0.1-5.3,0.2-8.1c0-0.2,0-0.4,0-0.7c0.1-0.8,0.1-1.6,0.2-2.5
					c0,0,0-0.1,0-0.1c0-0.2,0-0.4,0-0.5c0,0,0,0,0,0c0.1-0.7,0.2-1.4,0.2-2.1c0,0,0,0,0,0c0,0,0-0.1,0-0.1c-1.3,2.6-2.5,5.3-3.6,8.3
					l-1.2,3.6c-0.7,2.2-1.4,4.5-1.9,6.9c-5.5,23.3-2.4,52.6,23.6,71.4c13.5,9.7,30.4,14.7,50.1,14.7c7.9,0,16.1-0.8,24.1-2.4
					C152.4,230.6,145.1,231.3,137.9,231.5z M117,208.2c1.8,0.7,3.5,1.4,5.2,2c0.9,0.3,1.8,0.6,2.8,0.9c3.1,1,6.3,1.8,9.3,2.4
					c0.2,0,0.4,0.1,0.5,0.1c0.4,0.1,0.8,0.2,1.1,0.2c0.6,0.1,1.1,0.2,1.6,0.3c0.6,0.1,1.1,0.2,1.6,0.3c1,0.2,2.1,0.4,3.1,0.5
					c0.6,0.1,1.1,0.2,1.6,0.2c1,0.1,2,0.3,2.9,0.4c0.2,0,0.5,0.1,0.7,0.1c0.1,0,0.1,0,0.1,0c0.7,0.1,1.4,0.2,2.1,0.2
					c0.1,0,0.1,0,0.2,0c0.3,0,0.7,0.1,1.1,0.1c0.1,0,0.2,0,0.3,0c0.2,0,0.4,0.1,0.6,0.1c0.1,0,0.2,0,0.3,0c0.1,0,0.2,0,0.3,0
					c0.7,0.1,1.4,0.1,2,0.3c0.2,0,0.4,0,0.5,0c0.4,0.1,0.9,0.1,1.3,0.1c0.3,0,0.4,0,0.6,0c0.6,0,1.2,0.1,1.8,0.1
					c2.1,0.1,4.1,0.1,5.9,0.1c0.1,0,0.1,0,0.2,0c-2.6-0.1-5.5-0.1-8.5-0.4c0.2,0,0.4,0,0.6,0c0.6,0,1.2,0.1,1.8,0.1
					c2.1,0.1,4.1,0.1,5.9,0.1c0.1,0,0.1,0,0.2,0c0.2,0,0.3,0,0.4,0c0.3,0,0.6,0,0.9,0c0.4,0,0.8,0,1.2,0c0.9,0,1.7,0,2.4-0.1
					c0.4,0,0.7,0,1.1,0c0.7,0,1.3-0.1,1.9-0.1c-0.2-0.1-0.3-0.2-0.5-0.3c0.1,0,0.3,0,0.4,0c-1.7-1-3.8-1.3-4.2-1.3
					c-4.1-0.3-8.1-0.6-11.9-1.2c-0.1,0-0.1,0-0.2,0h-0.1c-16.7-2.3-31-7.3-42.8-15c-11.7-7.6-21-17.9-27.4-30.6
					c-1-1.9-1.9-3.8-2.7-5.7c-0.4-1.1-0.9-2.1-1.2-3.1c-0.1-0.3-0.2-0.5-0.3-0.8v0c0-0.1-0.1-0.2-0.1-0.3c-0.1-0.4-0.2-0.7-0.4-1.1
					c0-0.1-0.1-0.2-0.1-0.3c-1.2-3.5-2.1-6.9-2.8-10c0,0,0,0,0-0.1c-0.1-0.4-0.2-0.8-0.3-1.2c-0.1-0.4-0.2-0.9-0.3-1.4
					c-0.1-0.7-0.3-1.3-0.4-2c-0.3-1.2-0.4-2.5-0.5-3.7c-0.1-0.6-0.2-1.2-0.3-1.9c-0.3-2.6-0.4-4.7-0.5-6.5c0-0.6,0-1.3-0.1-1.8
					l-0.9-0.2c0,0,0,0,0,0l-0.1,0c-2.8,28.6,3.6,50.7,18.9,65.6c4.8,4.7,10.3,8.4,16,11.4c1.1,0.6,2.2,1.1,3.3,1.6c0,0,0.1,0,0.1,0
					C114.6,207.3,115.8,207.8,117,208.2z M199,183c1.6,2.9,3.6,11.5-6.1,17c-0.1,0.1-0.3,0.2-0.5,0.3c-6.3,3.8-12.6,6.8-18.6,9.1
					c3.6,1.4,7.2,4.2,7.6,9.1c0.7,3.5,0.3,11.8-10.2,14.7c-11.5,3.2-23.9,4.9-35.6,4.9c-21.1,0-39.3-5.3-54-15.9
					c-16.3-11.8-26.1-29-28.2-49.5c-1.6-15.9,1.6-33,8.8-47.8c-3.8-2.2-7.5-6.7-6.4-15.1v-0.1l2.4-13.4c0.3-1.8,2-3,3.8-2.7
					l28.5,5.1c0.9,0.2,1.6,0.6,2.1,1.3s0.7,1.6,0.5,2.5L90.8,116c0,0.1,0,0.1,0,0.1c-1.3,6-4.4,9.2-7.7,10.8
					c8,21.5,32.8,63.3,101.3,49.6C187.9,175.7,195.4,176.1,199,183z M193.7,189.5C193.7,189.5,193.7,189.4,193.7,189.5
					c-6,2.8-18.1,7.4-33.5,8.5c-2,0.1-4,0.2-6,0.2c-10.7,0-21-2-30.7-5.8c-4.1-1.6-8.1-3.6-12-5.8c-0.9-0.5-1.7-1.1-2.6-1.6
					c-0.9-0.5-1.7-1.1-2.6-1.7c-0.8-0.6-1.7-1.2-2.5-1.8c-0.4-0.3-0.8-0.5-1.2-0.9c0.1,0.1,0.1,0.2,0.2,0.2
					c-0.1-0.1-0.1-0.1-0.2-0.1c12.7,14.3,30.9,23.1,54.3,26.4c9-1,20.4-5.4,32.1-12.4C189.3,194.5,193,192.7,193.7,189.5
					C193.7,189.5,193.7,189.5,193.7,189.5z M190.7,183.6c0.1,0,0.2-0.1,0.3-0.1c-2.1-1.2-4.6-0.7-5-0.6c0,0,0,0-0.1,0
					c-33.4,6.7-60.8,1.6-81.6-15.2c-8.5-6.8-14.7-14.8-19.3-22.3c0.1,0.4,0.2,0.8,0.3,1.1c-0.2-0.3-0.4-0.6-0.6-0.9
					c0.3,1,0.5,2,0.8,3.1c0.3,1.2,0.7,2.5,1.1,3.7c-0.1-0.1-0.2-0.3-0.3-0.4c0.2,0.6,0.4,1.2,0.5,1.9c0.2,0.6,0.3,1.2,0.6,1.9
					c0.3,0.6,0.4,1.2,0.7,1.9c0.3,0.6,0.5,1.3,0.8,1.9c20,23.2,43.8,33.9,70.6,32.2c0.6-0.1,1.2-0.1,1.9-0.2
					c0.7-0.1,1.4-0.2,2.1-0.3c0.7-0.1,1.3-0.2,1.9-0.3c1.3-0.2,2.5-0.4,3.7-0.6c1.3-0.2,2.4-0.4,3.6-0.7c0.5-0.1,1.2-0.3,1.7-0.4
					c0.5-0.2,1.1-0.4,1.6-0.4c0.5-0.1,0.9-0.3,1.3-0.3c0.1-0.1,0.2-0.1,0.3-0.1c1-0.3,1.9-0.6,2.9-0.9c0.5-0.2,1-0.3,1.4-0.4
					c1.4-0.5,2.7-0.9,3.8-1.3c0.4-0.1,0.6-0.3,0.9-0.4c1-0.4,1.8-0.7,2.6-1.1c0.5-0.2,1-0.5,1.4-0.6
					C190.7,183.6,190.7,183.6,190.7,183.6z M85.8,106.8l0.4-2.2l-22-3.9l-1.8,10c-0.5,3.5,0.3,6,2.2,7.6c0,0.1,0.1,0.2,0.1,0.2
					c0.6,0.5,1.2,0.8,1.8,1c0.5,0.3,0.9,0.3,1,0.3l9.1,1.6c0.3,0.1,1,0.1,1.9,0c0.3,0,0.5-0.1,0.8-0.2c0.1,0,0.3-0.1,0.4-0.1
					c1.4-0.5,2.9-1.6,4-4c0.1-0.2,0.1-0.4,0.2-0.5l0.2-0.6c0-0.1,0.1-0.2,0.1-0.3c0.1-0.3,0.2-0.7,0.3-1l0.7-4L85.8,106.8z"/>
				<path id="XMLID_241_" class="st1" d="M134.8,213.6c0.4,0.1,0.8,0.2,1.1,0.2C135.5,213.8,135.2,213.7,134.8,213.6z"/>
				<path id="XMLID_240_" class="st1" d="M122.2,210.2c0.9,0.3,1.8,0.6,2.8,0.9C124,210.8,123.1,210.5,122.2,210.2z"/>
				<path id="XMLID_239_" class="st1" d="M113.5,206.7c1.2,0.5,2.3,1,3.5,1.5C115.8,207.8,114.6,207.3,113.5,206.7z"/>
				<path id="XMLID_238_" class="st1" d="M110.1,205c1.1,0.6,2.2,1.1,3.3,1.6C112.3,206.2,111.2,205.6,110.1,205z"/>
				<path id="XMLID_237_" class="st5" d="M106.4,172.7c17.5,12.8,39.5,17.9,65.6,15.1C146,190.7,123.9,185.6,106.4,172.7z"/>
				<path id="XMLID_236_" class="st5" d="M103.6,170.6c0.9,0.8,1.9,1.5,2.8,2.2C105.5,172,104.5,171.3,103.6,170.6z"/>
				<path id="XMLID_235_" class="st5" d="M156.9,207.1c-23.3-3.2-41.4-12-54.1-26.1c0.3,0.2,0.7,0.5,1,0.7c0.8,0.6,1.6,1.2,2.5,1.8
					c0.9,0.6,1.7,1.1,2.6,1.7c0.9,0.5,1.7,1.1,2.6,1.6c3.9,2.2,7.9,4.2,12,5.8c9.8,3.8,20.1,5.8,30.7,5.8c1.9,0,4,0,6-0.2
					c15.4-1.1,27.6-5.8,33.5-8.6c-0.8,3.1-4.4,5-4.7,5.2C177.2,201.6,165.8,206.1,156.9,207.1z"/>
				<path id="XMLID_234_" class="st1" d="M103.8,181.6c0.8,0.6,1.7,1.2,2.5,1.8c0.9,0.5,1.7,1.2,2.6,1.7c0.9,0.5,1.7,1.1,2.6,1.6
					c3.9,2.2,7.9,4.2,12,5.8c9.8,3.8,20.1,5.8,30.7,5.8c2,0,4-0.1,6-0.2c15.4-1.1,27.5-5.8,33.6-8.6c0,0,0,0.1,0,0.1
					c-5.9,2.8-18.1,7.5-33.5,8.6c-2,0.2-4.1,0.2-6,0.2c-10.7,0-21-2-30.7-5.8c-4.1-1.6-8.1-3.6-12-5.8c-0.9-0.5-1.7-1.1-2.6-1.6
					c-0.9-0.5-1.7-1.1-2.6-1.7C105.4,182.9,104.6,182.3,103.8,181.6c-0.4-0.1-0.7-0.4-1-0.6c-0.1-0.1-0.2-0.2-0.2-0.2
					C103,181,103.3,181.3,103.8,181.6z"/>
				<path id="XMLID_233_" class="st5" d="M97.3,164.9c0.8,0.8,1.6,1.5,2.4,2.3C98.9,166.5,98.1,165.7,97.3,164.9z"/>
				<path id="XMLID_232_" class="st5" d="M88.7,157.2c-0.3-0.6-0.5-1.2-0.7-1.9c-0.2-0.6-0.4-1.3-0.6-1.9c0-0.1,0-0.1,0-0.2
					c2.3,3.1,4.8,6.2,7.7,9.3c0.7,0.8,1.5,1.6,2.3,2.3c0.8,0.8,1.6,1.5,2.4,2.3c1.2,1.1,2.5,2.3,3.9,3.3c0.9,0.8,1.9,1.5,2.8,2.2
					c17.5,12.9,39.6,17.9,65.6,15.1c1.4-0.2,2.8-0.3,4.2-0.5c0.4-0.1,0.9-0.1,1.3-0.2c2.5-0.4,5.1-0.8,7.7-1.3c0,0,0,0,0.1,0
					c0,0,0.1,0,0.1,0c-1,0.4-2,0.7-3.1,1.1c-0.4,0.2-1,0.3-1.4,0.4c-0.9,0.3-1.9,0.6-2.9,0.9c-0.1,0.1-0.2,0.1-0.3,0.1
					c-0.4,0.1-0.9,0.3-1.3,0.4c-0.5,0.2-1.1,0.3-1.6,0.4c-0.5,0.1-1.1,0.3-1.7,0.4c-1.2,0.3-2.3,0.5-3.6,0.7
					c-1.2,0.3-2.5,0.4-3.7,0.6c-0.6,0.1-1.3,0.2-1.9,0.3c-0.7,0.1-1.4,0.2-2.1,0.3c-0.6,0.1-1.3,0.1-1.9,0.2
					c-26.9,1.9-50.6-9-70.6-32.1C88.9,158.6,88.7,158,88.7,157.2z"/>
				<path id="XMLID_231_" class="st2" d="M87,152.6c-0.5-1.4-0.8-2.8-1.2-4.1c-0.2-0.7-0.3-1.3-0.5-2c4.6,7.1,10.7,14.7,18.8,21.3
					c20.8,16.7,48.2,21.8,81.6,15.2c0,0,0,0,0.1,0c0.4-0.1,2.8-0.5,4.9,0.6c-0.4,0.1-0.7,0.3-1.1,0.5c-0.8,0.4-1.7,0.7-2.6,1.1
					c-0.3,0.1-0.6,0.3-0.9,0.4c-0.2,0.1-0.5,0.2-0.7,0.3c0,0,0,0,0,0c0,0-0.1,0-0.1,0c-0.1,0-0.1,0-0.1,0c-2.6,0.5-5.2,1-7.7,1.3
					c-0.4,0.1-0.9,0.1-1.3,0.2c-1.4,0.2-2.8,0.4-4.2,0.5c-26,2.8-48-2.2-65.6-15.1c-0.9-0.7-1.9-1.4-2.8-2.2
					c-1.3-1.1-2.6-2.2-3.9-3.3c-0.8-0.8-1.6-1.5-2.4-2.3c-0.8-0.8-1.5-1.5-2.3-2.3C92,159.3,89.3,155.9,87,152.6z"/>
				<path id="XMLID_230_" class="st1" d="M87,152.6c0.1,0.2,0.2,0.4,0.2,0.7c-0.2-0.3-0.4-0.5-0.6-0.8c-0.1-0.2-0.1-0.5-0.2-0.7
					C86.7,152.1,86.9,152.3,87,152.6z"/>
				<path id="XMLID_229_" class="st1" d="M86.7,152.5c0.1,0.4,0.2,0.8,0.3,1.2C86.9,153.3,86.8,152.9,86.7,152.5
					C86.7,152.5,86.7,152.5,86.7,152.5z"/>
				<path id="XMLID_228_" class="st1" d="M87.1,153.7c-0.1-0.4-0.2-0.8-0.3-1.2c0.2,0.3,0.3,0.5,0.6,0.8c0,0.1,0,0.1,0,0.2
					c0.2,0.6,0.4,1.2,0.6,1.9c0.2,0.6,0.4,1.2,0.7,1.9c0,0.8,0.3,1.4,0.5,2.1c20,23.2,43.7,34,70.6,32.1c0.6-0.1,1.3-0.1,1.9-0.2
					c0.7-0.1,1.4-0.2,2.1-0.3c0.6-0.1,1.3-0.2,1.9-0.3c1.3-0.2,2.5-0.4,3.7-0.6c1.3-0.2,2.4-0.4,3.6-0.7c0.5-0.1,1.2-0.3,1.7-0.4
					c0.5-0.2,1.1-0.3,1.6-0.4c0.4-0.1,0.9-0.3,1.3-0.4c0.1,0,0.2,0,0.3-0.1c1.1-0.3,2-0.6,2.9-0.9c0.4-0.2,1-0.3,1.4-0.4
					c1.1-0.4,2.1-0.7,3.1-1.1c0,0,0,0,0,0c0,0,0.1,0,0.1,0c0.1,0,0.2,0,0.4,0c-1.1,0.4-2.4,0.9-3.8,1.3c-0.4,0.2-0.9,0.3-1.4,0.4
					c-1,0.3-2,0.6-2.9,0.9c-0.1,0-0.2,0-0.3,0.1c-0.4,0.1-0.9,0.3-1.3,0.3c-0.5,0.1-1.1,0.3-1.6,0.4c-0.5,0.1-1.2,0.3-1.7,0.4
					c-1.2,0.3-2.3,0.5-3.6,0.7c-1.2,0.2-2.5,0.4-3.7,0.6c-0.6,0.1-1.2,0.2-1.9,0.3c-0.7,0.1-1.4,0.2-2.1,0.3
					c-0.6,0.1-1.2,0.1-1.9,0.2c-26.8,1.8-50.6-9-70.6-32.2c-0.3-0.6-0.5-1.2-0.8-1.9c-0.3-0.6-0.4-1.2-0.7-1.9
					c-0.3-0.6-0.4-1.2-0.6-1.9c-0.2-0.6-0.4-1.3-0.5-1.9c0.1,0.1,0.2,0.3,0.3,0.4c0,0,0,0,0,0C86.8,152.9,86.9,153.3,87.1,153.7z"/>
				<path id="XMLID_227_" class="st1" d="M86.3,195c0.2,0.2,0.4,0.4,0.6,0.7c-0.9-1-1.7-1.9-2.4-2.8c0.4,0.5,0.8,0.9,1.1,1.3
					C85.9,194.5,86.1,194.7,86.3,195z"/>
				<polygon id="XMLID_226_" class="st1" points="85.8,106.8 85.1,110.7 85.1,110.7 85.1,110.6 				"/>
				<path id="XMLID_225_" class="st1" d="M85.8,148.5c0.4,1.3,0.7,2.7,1.2,4.1c-0.2-0.3-0.3-0.5-0.5-0.8c0.1,0.2,0.1,0.5,0.2,0.7
					c0,0,0-0.1-0.1-0.1c0,0,0,0,0,0c-0.4-1.3-0.8-2.5-1.1-3.7c-0.3-1.1-0.5-2.1-0.8-3.1c0.2,0.3,0.4,0.6,0.6,0.9
					C85.5,147.1,85.7,147.8,85.8,148.5z"/>
				<path id="XMLID_224_" class="st1" d="M135.6,231.6c-19.7,0-36.6-5-50.1-14.7c-26-18.8-29.1-48.1-23.6-71.4
					c-1.4,6.1-2.3,12.6-2.3,19.3c0,18.6,6.7,38.1,25.8,51.9c13,9.4,29.2,14.3,48.1,14.6c0,0,0.1,0,0.1,0c1.4,0.1,2.8,0.2,4.2,0.2
					c7.2-0.2,14.6-0.9,21.8-2.3C151.7,230.8,143.5,231.6,135.6,231.6z"/>
				<path id="XMLID_223_" class="st1" d="M85.1,110.7l-0.7,4c-0.1,0.4-0.2,0.7-0.3,1c0.1-0.3,0.2-0.7,0.3-1.1L85.1,110.7L85.1,110.7
					z"/>
				<path id="XMLID_222_" class="st5" d="M85.1,110.7l-0.7,3.9c-0.1,0.4-0.2,0.8-0.3,1.1c0,0.1-0.1,0.2-0.1,0.3l-0.2,0.6
					c-0.1,0.2-0.1,0.3-0.2,0.5c-1.1,2.4-2.6,3.5-4,4c-0.1,0-0.3,0.1-0.4,0.1c-0.3,0.1-0.5,0.1-0.8,0.2c-0.9,0.1-1.6,0.1-1.9,0
					l-9.1-1.7c0,0-0.5-0.1-1.3-0.4c0-0.5,0.1-1.1,0.2-1.7l1.8-10L85.1,110.7z"/>
				<path id="XMLID_221_" class="st1" d="M83.8,116.6c-0.1,0.2-0.1,0.4-0.2,0.5c-1.1,2.3-2.6,3.4-4,4c1.4-0.5,2.9-1.7,4-4
					C83.7,117,83.8,116.8,83.8,116.6z"/>
				<path id="XMLID_220_" class="st1" d="M83.4,162.5c-0.4-1.1-0.9-2-1.2-3.1c-0.2-0.3-0.3-0.7-0.4-1.1c0.1,0.3,0.2,0.5,0.3,0.8
					c0.4,1,0.8,2.1,1.2,3.1c0.8,1.9,1.7,3.8,2.7,5.7c6.5,12.7,15.7,23,27.4,30.6c11.8,7.7,26.1,12.7,42.8,15h0.1c0.1,0,0.1,0,0.2,0
					c3.8,0.5,7.8,0.9,11.9,1.2c0.3,0.1,2.5,0.4,4.2,1.3c-0.1,0-0.3,0-0.4,0c-1.6-0.8-3.4-1-3.7-1.1c-4.1-0.3-8-0.6-11.9-1.1
					c-0.1,0-0.1,0-0.2,0s-0.1,0-0.1,0c-16.6-2.3-31-7.3-42.8-15c-11.8-7.7-21.1-18-27.4-30.6C85.1,166.3,84.2,164.3,83.4,162.5z"/>
				<path id="XMLID_219_" class="st1" d="M81.4,157c0.1,0.3,0.2,0.7,0.4,1.1c0,0.1,0,0.2,0.1,0.3C81.7,157.9,81.5,157.4,81.4,157z"
					/>
				<path id="XMLID_218_" class="st1" d="M79.2,121.3c-0.3,0.1-0.5,0.1-0.8,0.2C78.7,121.4,78.9,121.4,79.2,121.3z"/>
				<path id="XMLID_217_" class="st1" d="M80.1,186.9c-0.7-1.1-1.3-2.1-1.9-3.2C78.7,184.8,79.4,185.8,80.1,186.9z"/>
				<path id="XMLID_216_" class="st5" d="M97.7,193.6c-11.8-11.5-18.3-27.4-19.4-47.1c0.7,3.2,1.7,6.7,2.9,10.3
					c0,0.1,0.1,0.2,0.1,0.3c0.1,0.4,0.3,0.9,0.4,1.3v0c0.1,0.4,0.2,0.7,0.4,1.1c0.4,1.1,0.8,2,1.2,3.1c0.8,1.9,1.7,3.8,2.7,5.7
					c6.4,12.6,15.6,22.9,27.4,30.6c11.8,7.7,26.2,12.7,42.8,15c0,0,0,0,0.1,0s0.1,0,0.2,0c3.9,0.5,7.8,0.9,11.9,1.1
					c0.3,0.1,2.1,0.3,3.7,1.1c-0.5,0-1,0.1-1.5,0.1c-0.4,0-0.7,0-1.1,0c-0.8,0-1.6,0.1-2.4,0.1c-0.4,0-0.8,0-1.2,0
					c-0.3,0-0.6,0-0.9,0c-0.1,0.2-0.2,0.2-0.2,0.2c-0.1,0-0.1,0-0.2,0c-4.2-0.1-9.1-0.3-14.3-0.9
					C134.8,213.7,113.1,208.5,97.7,193.6z"/>
				<path id="XMLID_215_" class="st5" d="M78.2,145.9c0,0.2,0.1,0.3,0.1,0.5C78.2,146.3,78.2,146.1,78.2,145.9z"/>
				<path id="XMLID_214_" class="st2" d="M78,145.1c0,0.1,0,0.2,0.1,0.3C78.1,145.3,78,145.2,78,145.1z"/>
				<path id="XMLID_213_" class="st2" d="M78,144.8c0,0.1,0,0.2,0,0.2C78,145,78,144.9,78,144.8z"/>
				<path id="XMLID_212_" class="st5" d="M78,145.1c0,0.1,0.1,0.3,0.1,0.5c0-0.1,0-0.2-0.1-0.3C78,145.2,78,145.1,78,145.1z"/>
				<path id="XMLID_211_" class="st5" d="M77.8,144.4c0.1,0.2,0.1,0.4,0.2,0.6C77.9,144.8,77.9,144.6,77.8,144.4z"/>
				<path id="XMLID_210_" class="st1" d="M76.2,180c0,0.1,0.1,0.2,0.1,0.3C76.3,180.2,76.3,180.1,76.2,180z"/>
				<path id="XMLID_205_" class="st2" d="M78,145c0-0.2-0.1-0.4-0.2-0.6C77.9,144.6,77.9,144.8,78,145z M78.1,145.5
					c0-0.2,0-0.3-0.1-0.5c0,0.1,0,0.1,0,0.2C78,145.3,78.1,145.4,78.1,145.5z M78.3,146.4c0-0.2-0.1-0.4-0.1-0.5
					C78.2,146.1,78.2,146.3,78.3,146.4z M78,144.8c0.1,0.6,0.2,1.1,0.4,1.7c0,0,0,0,0,0.1c1.1,19.8,7.5,35.6,19.4,47.2
					c15.4,15,37.1,20.1,52.8,21.9c1.6,0.2,3.1,0.3,4.6,0.4c0,0-0.1,0-0.1,0c-0.2,0-0.3,0-0.5,0c-0.7-0.1-1.3-0.1-2-0.1
					c-0.1,0-0.2,0-0.3,0c-0.1,0-0.2,0-0.3,0c-0.2,0-0.4-0.1-0.6-0.1c-0.1,0-0.2,0-0.3,0c-0.4,0-0.8-0.1-1.1-0.1c-0.1,0-0.1,0-0.2,0
					c-0.7-0.1-1.4-0.1-2.1-0.2c0,0-0.1,0-0.1,0c-0.2,0-0.4-0.1-0.6-0.1c-1-0.1-2-0.2-3-0.4c-0.5-0.1-1.1-0.1-1.6-0.2
					c-1-0.2-2-0.3-3.1-0.5c-0.5-0.1-1.1-0.2-1.6-0.3c-0.5-0.1-1.1-0.2-1.6-0.3c-0.4-0.1-0.8-0.2-1.1-0.2c-0.2,0-0.4-0.1-0.5-0.1
					c-3-0.7-6.1-1.5-9.3-2.4c-0.9-0.3-1.8-0.6-2.8-0.9c-1.8-0.6-3.5-1.3-5.2-2c-1.2-0.5-2.3-1-3.5-1.5c0,0-0.1,0-0.1,0
					c-1.1-0.5-2.2-1.1-3.3-1.6c-5.7-3-11.1-6.7-15.9-11.4c-15.4-15-21.7-37-18.9-65.6l0.8,0.2c0,0.5,0,1.1,0.1,1.8
					c0.1,1.8,0.2,3.9,0.5,6.5c0.1,0.6,0.2,1.2,0.3,1.9c0.2,1.2,0.4,2.4,0.5,3.7c0.1,0.6,0.3,1.3,0.4,2c0.1,0.2,0.1,0.4,0.1,0.7
					C78,144.7,78,144.8,78,144.8C78,144.8,78,144.8,78,144.8c0,0.1,0,0.2,0,0.2c0,0.1,0,0.2,0.1,0.3c0-0.1,0-0.2-0.1-0.3
					C78,145,78,144.9,78,144.8z"/>
				<path id="XMLID_204_" class="st1" d="M76.2,180c-0.3-0.5-0.5-1.1-0.8-1.6C75.7,179,76,179.5,76.2,180z"/>
				<path id="XMLID_203_" class="st1" d="M94.2,193.7c4.8,4.7,10.2,8.4,15.9,11.4C104.4,202.1,98.9,198.3,94.2,193.7
					c-15.5-14.9-21.8-37-19-65.6l0.1,0C72.5,156.6,78.8,178.6,94.2,193.7z"/>
				<path id="XMLID_202_" class="st1" d="M73.7,174.4c0.1,0.3,0.3,0.7,0.4,1C74,175,73.9,174.7,73.7,174.4z"/>
				<path id="XMLID_201_" class="st1" d="M73.1,172.7c0.1,0.4,0.3,0.8,0.5,1.2C73.4,173.6,73.3,173.2,73.1,172.7z"/>
				<path id="XMLID_200_" class="st1" d="M72.6,171.2c0.2,0.5,0.3,1,0.5,1.5C73,172.2,72.8,171.7,72.6,171.2z"/>
				<path id="XMLID_199_" class="st1" d="M80.2,186.8c-0.7-1.1-1.3-2.1-2-3.2c-0.7-1.2-1.4-2.5-6.1-14.3c1.6,5.1,3.6,9.8,6.1,14.2
					C78.9,184.6,79.5,185.7,80.2,186.8c1.3,1.9,2.8,4,4.3,5.9c0.8,1,1.6,1.9,2.4,2.8c0.8,0.9,1.7,1.8,2.6,2.7
					c13.1,13,32.8,21.1,56.7,23.8c6.4,0.7,12.3,0.9,17.1,0.9c0.5,0,1.1,0,1.6,0c0.4,0,0.9,0,1.3,0c0.7,0,1.4,0,2.1,0
					c0.3,0,0.6,0,1,0c0,0-0.1,0-0.1,0c-0.9,0-2,0.1-2.9,0.1c-0.1,0-0.2,0-0.3,0c-0.4,0-0.6,0-1,0c-0.5,0-1.1,0-1.6,0
					c-4.9,0-10.7-0.3-17.1-0.9c-23.9-2.7-43.5-10.8-56.7-23.8c-0.9-0.9-1.8-1.8-2.6-2.7c-0.2-0.2-0.4-0.4-0.7-0.7
					c-0.2-0.3-0.5-0.5-0.7-0.8c-0.4-0.4-0.7-0.9-1-1.3C83,190.9,81.6,188.9,80.2,186.8z"/>
				<path id="XMLID_198_" class="st1" d="M72.1,169.6c0.2,0.5,0.3,1.1,0.5,1.6C72.4,170.7,72.2,170.1,72.1,169.6z"/>
				<path id="XMLID_197_" class="st1" d="M71.6,167.4c0.2,0.7,0.4,1.3,0.6,2C71.9,168.7,71.7,168.1,71.6,167.4z"/>
				<path id="XMLID_196_" class="st1" d="M72,169.3c-2.6-8.3-3.9-17.4-4-27.4C68.1,151.9,69.4,161.1,72,169.3z"/>
				<path id="XMLID_195_" class="st1" d="M68.5,129.5C68.5,129.6,68.5,129.6,68.5,129.5c-0.1,0.9-0.1,1.8-0.2,2.6
					C68.4,131.3,68.4,130.4,68.5,129.5z"/>
				<path id="XMLID_189_" class="st5" d="M76.4,180.3c-0.1-0.1-0.1-0.2-0.1-0.3c-0.3-0.5-0.5-1.1-0.8-1.6c0.2,0.5,0.5,1.1,0.8,1.6
					C76.3,180.1,76.3,180.2,76.4,180.3z M73.6,174c-0.2-0.4-0.3-0.8-0.5-1.2c-0.2-0.5-0.4-1-0.5-1.5c-0.2-0.5-0.4-1.1-0.5-1.6
					c0.2,0.5,0.3,1.1,0.5,1.6c0.2,0.5,0.3,1,0.5,1.5C73.3,173.2,73.4,173.6,73.6,174z M74.1,175.3c-0.1-0.3-0.3-0.6-0.4-1
					C73.9,174.7,74,175,74.1,175.3z M80.1,186.9c-0.6-1.1-1.3-2.1-1.9-3.2C78.7,184.8,79.4,185.8,80.1,186.9z M78.3,183.6
					c0.6,1.1,1.3,2.1,2,3.2c1.3,2.1,2.8,4.1,4.3,6c0.3,0.5,0.7,0.9,1,1.3c-0.4-0.4-0.8-0.9-1.1-1.3c0.7,1,1.5,1.9,2.4,2.8
					c-0.2-0.2-0.4-0.5-0.6-0.7c0.2,0.2,0.4,0.5,0.7,0.7c0.8,0.9,1.7,1.8,2.6,2.7c13.2,13,32.9,21.1,56.7,23.8
					c6.4,0.6,12.3,0.9,17.1,0.9c0.5,0,1.1,0,1.6,0c0.4,0,0.6,0,1,0c0.1,0,0.2,0,0.3,0c1,0,2-0.1,2.9-0.1c0,0,0.1,0,0.1,0
					c2,0,3.7-0.1,5.3-0.1c-0.1,0.3-0.2,0.5-0.4,0.7c-0.2,0.4-0.4,0.7-0.9,1.1c-0.1,0.1-0.2,0.2-0.3,0.3c-0.8,0.7-2,1.3-3.6,1.8
					c-1.3,0.4-2.6,0.7-3.9,1c-0.6,0.2-1.3,0.3-2,0.4c-1.2,0.3-2.6,0.5-3.9,0.8c-7.5,1.5-15.1,2.3-22.5,2.4
					c-18.2-0.6-33.9-5.4-46.6-14.6c-18.5-13.4-25.3-32.1-25.8-50.2c0-1,0-2.1,0-3.1c0.2-7.5,1.3-14.8,3.2-21.5
					c0.1,10,1.4,19.2,4,27.4c-2.6-8.3-3.9-17.4-4-27.4c0-0.1,0.1-0.2,0.1-0.3c0.1,8.4,1,16.2,2.9,23.4l0.4,1.4
					c0.1,0.3,0.2,0.6,0.3,1c0.2,0.7,0.4,1.3,0.6,2C76.9,181.1,77.6,182.4,78.3,183.6z"/>
				<path id="XMLID_188_" class="st5" d="M68.1,141.5C68.1,141.6,68.1,141.6,68.1,141.5c0,0.2-0.1,0.3-0.1,0.4c0-0.1,0-0.1,0-0.2
					C68,141.6,68,141.5,68.1,141.5C68.1,141.5,68.1,141.5,68.1,141.5z"/>
				<path id="XMLID_187_" class="st2" d="M133.6,231.3c-18.9-0.3-35.1-5.2-48.1-14.6c-19.1-13.8-25.8-33.3-25.8-51.9
					c0-6.6,0.8-13.2,2.3-19.3c0.6-2.4,1.2-4.7,1.9-6.9l1.2-3.6c1.1-2.9,2.3-5.7,3.6-8.2c0,0,0,0,0,0c0,0.2-0.1,0.4-0.1,0.5
					c0,0,0,0,0,0c0,0.2,0,0.4-0.1,0.6c0,0,0,0,0,0c0,0.2,0,0.4,0,0.5c0,0,0,0,0,0c0,0.2,0,0.3,0,0.4c0,0,0,0,0,0c0,0.2,0,0.4,0,0.5
					c-0.1,0.9-0.1,1.7-0.2,2.6c0,0.2,0,0.4,0,0.7c-0.2,2.9-0.3,5.8-0.2,8.7v0c0,0.1-0.1,0.2-0.1,0.3c0,0,0-0.1,0-0.1
					c0,0,0,0.1,0,0.1c-1.9,6.8-3.1,14.1-3.2,21.6c0,1,0,2,0,3.1c0.4,18.2,7.2,37,25.8,50.4C102.4,225.4,116.9,230.2,133.6,231.3z"/>
				<path id="XMLID_186_" class="st1" d="M68,141.7c0,0.1,0,0.1,0,0.2C68,141.9,68,141.8,68,141.7C68,141.7,68,141.7,68,141.7z"/>
				<path id="XMLID_185_" class="st5" d="M68,141.7c0,0.1,0,0.1,0,0.2c-1.9,6.7-3.1,14-3.2,21.5C64.9,155.9,66.1,148.5,68,141.7z"/>
				<path id="XMLID_184_" class="st1" d="M68,141.6c0,0,0,0.1,0,0.1c0,0,0,0,0,0C68,141.7,68,141.7,68,141.6z"/>
				<path id="XMLID_183_" class="st1" d="M63.9,138.6c-0.7,2.2-1.4,4.5-1.9,6.9C62.5,143.1,63.2,140.8,63.9,138.6z"/>
			</g>
			<g id="XMLID_47_">
			</g>
		</g>
	</g>
</g>
<g id="Lager_2_1_">
	<g id="XMLID_10_">
		<g id="XMLID_46_">
			<g id="XMLID_1_">
				<g id="XMLID_73_">
					<path id="XMLID_119_" class="st1" d="M236.7,222.3c1,3.2,2.4,6,4.1,8.4c0.2,0.3,0.4,0.6,0.6,0.9s0.4,0.5,0.6,0.8l0.1,0.1
						c0.2,0.2,0.4,0.5,0.6,0.7c0.5,0.6,1,1.1,1.5,1.6c0.3,0.3,0.5,0.5,0.8,0.7c0.1,0.1,0.3,0.3,0.4,0.4c0.2,0.2,0.4,0.4,0.7,0.6
						s0.5,0.4,0.8,0.6c0.2,0.1,0.3,0.3,0.5,0.4c0.6,0.4,1.2,0.9,1.8,1.3l69.3-76.6l3.8-4.2c-6.4-1-12.7-1.6-19-1.6
						c-2.6,0-5.2,0.1-7.8,0.3L236.7,222.3z M397.2,200.1c0,0.2,0,26.4,0,26.6c-1.4,8.4-5.3,14.8-11.3,18.6c-6.9,4.4-16,4.9-27.1,1.8
						c-17-4.9-34,0.1-57,16.6c-8.8,6.3-20.2,9.6-31.4,9.6c-7.3,0-14.4-1.4-20.6-4.3c-13.1-6.1-20.9-18.1-22.1-33.9
						c0-0.1,0-25.2,0-25.4c-0.2-17.2,7.1-29.3,13.5-36.6c7.1-8.1,14.4-12,15.4-12.5c13.1-7.5,29.3-11.4,46.7-11.4
						c15.9,0,32.5,3.3,47.9,9.5c17.6,7,30.3,14.9,37.7,23.3C394.1,187.7,396.9,193.8,397.2,200.1z M390.5,225.8v-5.4
						c-0.2,0.2-0.3,0.3-0.5,0.4v-0.4c-1,1.1-2.2,2.1-3.4,2.9c-4.3,2.7-9.2,4-15.1,4l0,0c-3.9,0-8.3-0.5-12.9-1.8
						c-4.1-1.2-8.2-1.7-12.4-1.7c-13.1,0-26.8,5.7-44.5,18.4c-8.5,6.1-19.9,9.6-31.3,9.6c-10.8,0-20.7-3.2-28.1-8.9
						c-0.6-0.5-1.2-1-1.8-1.5c0.1,0.1,0.2,0.1,0.2,0.2c-2.3-2-4.2-4.2-5.9-6.7c1.4,16.4,10.5,24,18,27.5c0.8,0.4,1.6,0.7,2.5,1
						c5.3,2,11.3,2.8,17.3,2.6h0.1h0.1c0.5,0,1.1-0.1,1.7-0.1s1.1-0.1,1.6-0.2c1.1-0.1,2.3-0.3,3.4-0.5c0.6-0.1,1.2-0.2,1.8-0.4
						c0.6-0.1,1.2-0.3,1.8-0.4l0,0c0.5-0.1,1-0.3,1.5-0.4c0.2,0,0.3-0.1,0.5-0.1c0.5-0.1,1-0.3,1.4-0.5c0.6-0.2,1.1-0.4,1.7-0.6l0,0
						c0.5-0.2,1-0.4,1.6-0.6c0.1,0,0.1,0,0.2-0.1c0.5-0.2,0.9-0.4,1.3-0.6c0.1-0.1,0.2-0.1,0.3-0.2c0.5-0.2,1-0.5,1.5-0.7
						c0.5-0.3,1-0.6,1.5-0.9s1-0.6,1.5-0.9s1-0.6,1.4-1c12-8.6,22.5-14.2,32.1-17.1c10.8-3.3,20.9-3.5,31.1-0.6
						c1.5,0.4,3,0.8,4.4,1.1c0.5,0.1,0.9,0.2,1.4,0.3c0.5,0.1,0.9,0.1,1.4,0.2c0.4,0.1,0.9,0.1,1.3,0.1s0.9,0.1,1.3,0.1
						c0.7,0,1.4,0,2,0c3.8-0.1,7.1-1,9.7-2.7c2.1-1.3,3.5-3,4.5-4.8l0.1-0.1c1.1-1.7,1.9-3.6,2.4-5.4
						C389.7,227.8,390.1,226.7,390.5,225.8z M389.9,202.6c0.1-1,0.1-1.9,0-2.9c0-0.3,0-0.6-0.1-0.9l0,0c0-0.3-0.1-0.6-0.1-0.9
						c-0.1-0.4-0.1-0.8-0.3-1.1l0,0c-0.1-0.4-0.2-0.7-0.3-1.1l0,0c0,0,0,0,0-0.1c-0.1-0.4-0.2-0.7-0.4-1.1c-0.1-0.2-0.2-0.4-0.3-0.6
						c-0.2-0.4-0.4-0.8-0.6-1.2c-0.3-0.5-0.6-1.1-0.9-1.6c-0.2-0.4-0.5-0.8-0.7-1.1c-0.1-0.1-0.2-0.3-0.3-0.4
						c-0.2-0.3-0.4-0.5-0.5-0.8c-0.2-0.3-0.4-0.5-0.6-0.8c-0.1-0.1-0.2-0.2-0.3-0.3c-0.3-0.4-0.6-0.8-1-1.1c-0.3-0.4-0.7-0.8-1-1.1
						L354,217.4c0.5,0.1,1,0.2,1.4,0.3c0.5,0.1,1,0.2,1.5,0.3c0.2,0,0.4,0.1,0.6,0.1h0.1c0.4,0.1,0.9,0.2,1.3,0.3
						c0.6,0.1,1.1,0.3,1.7,0.4c4,1.1,7.7,1.7,10.9,1.7c12.9,0,17-8.9,18.3-16.3C389.8,203.6,389.9,203.1,389.9,202.6z M374.5,183.6
						l2.6-2.9c-4.8-3.7-10.8-7.3-18.2-10.8l-56.5,63.2c0.9-0.6,1.8-1.2,2.7-1.8c0.3-0.2,0.7-0.4,1-0.6c0.6-0.4,1.1-0.7,1.7-1
						c0.4-0.3,0.8-0.5,1.2-0.7c0.5-0.3,0.9-0.6,1.4-0.8c0.4-0.3,0.9-0.5,1.3-0.7c0.1,0,0.2-0.1,0.3-0.2c0.3-0.2,0.6-0.3,0.9-0.5
						c0.8-0.4,1.5-0.8,2.2-1.2c0.4-0.2,0.7-0.4,1.1-0.6s0.7-0.4,1.1-0.6c2.9-1.5,5.7-2.7,8.5-3.7c0.3-0.1,0.7-0.3,1-0.4
						c0.2-0.1,0.4-0.1,0.6-0.2c0.3-0.1,0.6-0.2,0.9-0.3c0.2-0.1,0.3-0.1,0.5-0.2c0.7-0.2,1.4-0.4,2-0.6s1.3-0.3,1.9-0.5
						c1.1-0.3,2.3-0.5,3.4-0.7c0.4-0.1,0.8-0.1,1.2-0.2s0.8-0.1,1.2-0.2c0.3,0,0.6-0.1,0.9-0.1c0.2,0,0.4-0.1,0.6-0.1
						c0.3,0,0.6-0.1,0.9-0.1l0,0c0.5-0.1,1-0.1,1.6-0.1c0.1,0,0.2,0,0.3,0c0.6,0,1.2-0.1,1.8-0.1L374.5,183.6z M348.9,170.3l3.1-3.5
						c-1.1-0.5-2.3-0.9-3.4-1.4c-5.9-2.4-11.9-4.3-18-5.7l-74.7,82.6c0.6,0.2,1.1,0.4,1.7,0.6c0,0,0,0,0.1,0c0.5,0.2,1,0.3,1.5,0.4
						h0.1c0.1,0,0.1,0,0.2,0.1c0.4,0.1,0.8,0.2,1.2,0.3c0.2,0.1,0.4,0.1,0.7,0.1c0.4,0.1,0.7,0.1,1.1,0.2s0.8,0.1,1.2,0.2
						c0.2,0,0.3,0.1,0.5,0.1c0.4,0.1,0.8,0.1,1.2,0.2c0.2,0,0.4,0,0.6,0.1c0.3,0,0.6,0.1,0.9,0.1c0.2,0,0.5,0.1,0.7,0.1
						c0.2,0,0.3,0,0.5,0c0.5,0,1,0.1,1.5,0.1c0.3,0,0.6,0,0.9,0c2.9,0,5.8-0.3,8.6-0.8c1.7-0.3,3.3-0.7,5-1.1L348.9,170.3z
						 M277.6,165.9l7-7.8c-13.5,2.1-24.6,8.8-24.7,8.9c-0.1,0-6.9,3.6-13.5,11.1c-12.5,14.1-11.4,35.3-11.4,35.4l5.6-6.2
						L277.6,165.9z"/>
					<path id="XMLID_118_" class="st6" d="M390.5,220.4v5.4c-0.4,0.9-0.8,2-1.2,3c0.3-1,0.5-2.1,0.7-3v-5
						C390.2,220.7,390.3,220.5,390.5,220.4z"/>
					<path id="XMLID_117_" class="st6" d="M390,220.8v5c-0.2,0.9-0.4,2-0.7,3c-0.7,1.8-1.4,3.7-2.4,5.4l-0.1,0.1
						c-1.2,1.8-2.7,3.5-4.8,4.8c-2.6,1.6-5.8,2.5-9.5,2.7c-0.7,0-1.3,0-2,0c-0.4,0-0.9,0-1.3-0.1s-0.9-0.1-1.3-0.1
						c-0.4-0.1-0.9-0.1-1.4-0.2s-0.9-0.2-1.4-0.3c-1.4-0.3-2.9-0.6-4.4-1.1c-10.1-2.9-20.3-2.7-31.1,0.6
						c-9.7,2.9-20.2,8.5-32.1,17.1c-0.5,0.3-1,0.7-1.4,1c-0.5,0.3-1,0.6-1.5,0.9s-1,0.6-1.5,0.9s-1,0.5-1.5,0.7
						c-0.1,0.1-0.2,0.1-0.3,0.2c-0.4,0.2-0.9,0.4-1.3,0.6c-0.1,0-0.1,0.1-0.2,0.1c-0.5,0.2-1,0.4-1.6,0.6l0,0
						c-0.6,0.2-1.1,0.4-1.7,0.6c-0.5,0.2-1,0.3-1.4,0.5c-0.2,0-0.3,0.1-0.5,0.1c-0.5,0.1-1,0.3-1.5,0.4l0,0
						c-0.6,0.2-1.2,0.3-1.8,0.4s-1.2,0.3-1.8,0.4c-1.1,0.2-2.3,0.4-3.4,0.5c-0.5,0.1-1.1,0.1-1.6,0.2s-1.1,0.1-1.7,0.1
						c-5.4-0.3-10.6-1.5-15.2-3.6c-6.3-3-13.9-8.9-16.9-20.8c0.5,0.5,1,0.9,1.6,1.3c7.3,5.8,17.3,9,28.1,9c11.4,0,22.8-3.5,31.3-9.6
						c17.7-12.7,31.4-18.4,44.5-18.4c4.2,0,8.2,0.6,12.4,1.8c4.6,1.3,9,2,12.9,2c5.9,0,11.1-1.5,15.1-4.4
						C387.8,222.6,388.9,221.8,390,220.8z"/>
					<path id="XMLID_116_" class="st2" d="M389.8,198.8L389.8,198.8v0.1c0.1,0.5,0.1,0.9,0.2,1.4c0,0.3,0,0.7,0,1.1
						c0,0.2,0,0.4,0,0.5c0,0.2,0,0.4,0,0.6c0,0.4-0.1,0.8-0.1,1.2c-0.6-4.6-3.1-9.1-7.3-13.5L357.7,218c-0.1,0-0.1,0-0.1,0
						c-0.2-0.1-0.4-0.1-0.6-0.1c-0.5-0.1-1-0.2-1.5-0.3c-0.5-0.1-1-0.2-1.4-0.3l28.5-31.9c0.4,0.4,0.7,0.8,1,1.1
						c0.3,0.4,0.7,0.8,1,1.1c0.1,0.1,0.2,0.2,0.3,0.3c0.2,0.3,0.4,0.5,0.6,0.8c0.2,0.3,0.4,0.5,0.5,0.8c0.1,0.1,0.2,0.2,0.3,0.4
						c0.3,0.4,0.5,0.8,0.7,1.1c0.3,0.5,0.6,1.1,0.9,1.6c0.2,0.4,0.4,0.8,0.6,1.2c0.1,0.2,0.2,0.4,0.3,0.6c0.1,0.3,0.3,0.7,0.4,1.1
						v0.1l0,0c0.1,0.4,0.2,0.7,0.3,1.1l0,0c0.1,0.4,0.2,0.8,0.3,1.1C389.7,198.2,389.8,198.5,389.8,198.8z"/>
					<path id="XMLID_115_" class="st6" d="M389.9,202.6c0-0.2,0-0.4,0-0.6C390,202.2,390,202.4,389.9,202.6z"/>
					<path id="XMLID_114_" class="st6" d="M389.9,199.7c0,0.2,0,0.4,0.1,0.7c0-0.5-0.1-0.9-0.2-1.4
						C389.8,199.2,389.9,199.4,389.9,199.7z"/>
					<path id="XMLID_113_" class="st6" d="M389.9,202.6c0,0.5-0.1,1.1-0.2,1.6c-1.2,7.5-5.4,16.3-18.3,16.3c-3.3,0-6.9-0.6-10.9-1.7
						c-0.5-0.2-1.1-0.3-1.7-0.4c-0.4-0.1-0.9-0.2-1.3-0.3l24.9-27.8c4.2,4.4,6.7,8.9,7.3,13.5C389.9,203.4,389.9,203,389.9,202.6z"
						/>
					<path id="XMLID_112_" class="st6" d="M386.6,223.3c-4.1,2.9-9.2,4.4-15.1,4.4c-3.9,0-8.3-0.7-12.9-2c-4.1-1.2-8.2-1.8-12.4-1.8
						c-13.1,0-26.8,5.7-44.5,18.4c-8.5,6.1-19.9,9.6-31.3,9.6c-10.8,0-20.7-3.2-28.1-9c-0.6-0.4-1.1-0.9-1.6-1.3
						c-0.1-0.1-0.2-0.1-0.2-0.2c0.6,0.5,1.2,1,1.8,1.5c7.4,5.8,17.3,8.9,28.1,8.9c11.4,0,22.8-3.5,31.3-9.6
						c17.7-12.7,31.4-18.4,44.5-18.4c4.2,0,8.2,0.5,12.4,1.7c4.6,1.3,9,1.8,12.9,1.8l0,0C377.5,227.3,382.3,226,386.6,223.3z"/>
					<path id="XMLID_111_" class="st6" d="M382,239.2c2.1-1.3,3.6-3,4.8-4.8c-1.1,1.8-2.5,3.5-4.5,4.8c-2.6,1.7-5.9,2.6-9.7,2.7
						C376.3,241.7,379.4,240.8,382,239.2z"/>
					<path id="XMLID_110_" class="st2" d="M377.1,180.7l-2.6,2.9c-4.3-3-9.5-6-15.6-8.9L312,227.1c0,0-0.1,0-0.1,0.1
						c-0.1,0.1-0.2,0.1-0.3,0.2c-0.4,0.2-0.8,0.5-1.3,0.7c-0.5,0.3-0.9,0.5-1.4,0.8c-0.4,0.2-0.8,0.5-1.2,0.7
						c-0.5,0.3-1.1,0.7-1.7,1c-0.3,0.2-0.7,0.4-1,0.6c-0.9,0.6-1.8,1.2-2.7,1.8l56.6-63.2C366.2,173.3,372.3,177,377.1,180.7z"/>
					<path id="XMLID_109_" class="st6" d="M374.5,183.6l-29.7,33.2c-0.6,0-1.2,0-1.8,0.1c-0.1,0-0.2,0-0.3,0c-0.5,0-1,0.1-1.6,0.1
						l0,0c-0.3,0-0.6,0.1-0.9,0.1c-0.2,0-0.4,0-0.6,0.1c-0.3,0-0.6,0.1-0.9,0.1c-0.4,0.1-0.8,0.1-1.2,0.2c-0.4,0.1-0.8,0.1-1.2,0.2
						c-1.1,0.2-2.2,0.5-3.4,0.7c-0.6,0.2-1.3,0.3-1.9,0.5c-0.7,0.2-1.4,0.4-2,0.6c-0.2,0-0.3,0.1-0.5,0.2c-0.3,0.1-0.6,0.2-0.9,0.3
						c-0.2,0.1-0.4,0.1-0.6,0.2c-0.3,0.1-0.7,0.2-1,0.4c-2.8,1-5.6,2.3-8.5,3.7c-0.4,0.2-0.7,0.4-1.1,0.6c-0.4,0.2-0.7,0.4-1.1,0.6
						c-0.7,0.4-1.5,0.8-2.2,1.2c-0.3,0.1-0.5,0.3-0.8,0.4l46.9-52.4C365,177.5,370.2,180.5,374.5,183.6z"/>
					<path id="XMLID_108_" class="st1" d="M356.8,217.9c-0.5-0.1-1-0.2-1.5-0.3C355.9,217.7,356.4,217.8,356.8,217.9z"/>
					<path id="XMLID_107_" class="st2" d="M352,166.7l-3.1,3.5c-0.1,0-0.2-0.1-0.3-0.1c-5.9-2.4-11.9-4.3-18-5.7l-71.3,78.8h-0.1
						c-0.3-0.1-0.5-0.1-0.7-0.2c-0.3-0.1-0.6-0.2-0.8-0.3c-0.6-0.2-1.1-0.4-1.7-0.6l74.7-82.6c6.1,1.4,12.2,3.3,18,5.7
						C349.7,165.8,350.9,166.3,352,166.7z"/>
					<path id="XMLID_106_" class="st6" d="M348.9,170.3L284,242.8c-1.6,0.5-3.3,0.8-5,1.1c-2.8,0.5-5.7,0.7-8.6,0.7
						c-0.3,0-0.6,0-0.9,0c-0.5,0-1,0-1.5-0.1c-0.2,0-0.3,0-0.5,0c-0.2,0-0.5,0-0.7-0.1c-0.3,0-0.6,0-0.9-0.1c-0.2,0-0.4-0.1-0.6-0.1
						c-0.4,0-0.8-0.1-1.2-0.2c-0.2,0-0.3,0-0.5-0.1c-0.4-0.1-0.8-0.1-1.2-0.2s-0.7-0.1-1.1-0.2c-0.2,0-0.4-0.1-0.7-0.1
						c-0.4-0.1-0.8-0.2-1.2-0.3c-0.1,0-0.1,0-0.2-0.1l71.3-78.8c6.1,1.4,12.2,3.3,18,5.7C348.7,170.2,348.8,170.2,348.9,170.3z"/>
					<path id="XMLID_105_" class="st6" d="M344.8,216.8c-0.6,0-1.2,0-1.8,0.1C343.6,216.8,344.2,216.8,344.8,216.8z"/>
					<path id="XMLID_104_" class="st6" d="M342.7,216.9c-0.5,0-1,0.1-1.6,0.1C341.7,216.9,342.2,216.9,342.7,216.9z"/>
					<path id="XMLID_103_" class="st6" d="M332.8,218.4c-0.6,0.2-1.3,0.3-1.9,0.5C331.5,218.7,332.2,218.6,332.8,218.4z"/>
					<path id="XMLID_102_" class="st6" d="M330.9,218.9c-0.7,0.2-1.4,0.4-2,0.6C329.5,219.3,330.2,219.1,330.9,218.9z"/>
					<path id="XMLID_101_" class="st6" d="M326.8,220.2c-0.3,0.1-0.7,0.2-1,0.4C326.1,220.5,326.5,220.3,326.8,220.2z"/>
					<path id="XMLID_100_" class="st2" d="M322.3,158l-3.8,4.2c-5.1-0.7-10.2-1-15.2-1c-2.6,0-5.2,0.1-7.8,0.3L238,225.7
						c0.8,1.8,1.7,3.5,2.8,5c-1.7-2.4-3.1-5.2-4.1-8.4l58.8-65.7c2.5-0.2,5.2-0.3,7.8-0.3C309.6,156.4,315.9,156.9,322.3,158z"/>
					<path id="XMLID_99_" class="st6" d="M318.5,162.2l-69.3,76.6c-0.6-0.4-1.2-0.8-1.8-1.3c-0.2-0.1-0.3-0.3-0.5-0.4
						c-0.3-0.2-0.5-0.4-0.8-0.6c-0.2-0.2-0.5-0.4-0.7-0.6c-0.1-0.1-0.3-0.2-0.4-0.4c-0.3-0.2-0.5-0.5-0.8-0.7c-0.5-0.5-1-1-1.5-1.6
						c-0.2-0.2-0.4-0.4-0.6-0.7l-0.1-0.1c-0.2-0.3-0.4-0.5-0.6-0.8s-0.4-0.6-0.6-0.9c-1-1.5-2-3.2-2.8-5l57.5-64.2
						c2.6-0.2,5.2-0.3,7.8-0.3C308.3,161.2,313.4,161.5,318.5,162.2z"/>
					<path id="XMLID_98_" class="st6" d="M317.3,224.3c-0.4,0.2-0.7,0.4-1.1,0.6C316.5,224.7,316.9,224.5,317.3,224.3z"/>
					<path id="XMLID_97_" class="st6" d="M312.8,226.6c0.8-0.4,1.5-0.8,2.2-1.2C314.3,225.8,313.6,226.2,312.8,226.6z"/>
					<path id="XMLID_96_" class="st6" d="M312.8,226.6c-0.3,0.2-0.6,0.3-0.9,0.5c0,0,0.1,0,0.1-0.1
						C312.3,226.9,312.6,226.8,312.8,226.6z"/>
					<path id="XMLID_95_" class="st1" d="M310.4,228c-0.5,0.3-0.9,0.5-1.4,0.8C309.5,228.6,309.9,228.3,310.4,228z"/>
					<path id="XMLID_94_" class="st6" d="M296.1,258.8c0.5-0.3,1-0.6,1.4-1C297.1,258.1,296.6,258.5,296.1,258.8z"/>
					<path id="XMLID_93_" class="st6" d="M294.6,259.7c0.5-0.3,1-0.6,1.5-0.9C295.6,259.1,295.1,259.4,294.6,259.7z"/>
					<path id="XMLID_92_" class="st6" d="M293,260.6c0.5-0.3,1-0.6,1.5-0.9C294.1,260,293.6,260.3,293,260.6z"/>
					<path id="XMLID_91_" class="st6" d="M291.6,261.3c0.5-0.2,1-0.5,1.5-0.7C292.6,260.8,292.1,261.1,291.6,261.3z"/>
					<path id="XMLID_90_" class="st6" d="M289.9,262.1c0.5-0.2,0.9-0.4,1.3-0.6C290.8,261.7,290.4,261.9,289.9,262.1z"/>
					<path id="XMLID_89_" class="st6" d="M288.2,262.8c0.5-0.2,1-0.4,1.6-0.6C289.2,262.4,288.7,262.6,288.2,262.8z"/>
					<path id="XMLID_88_" class="st6" d="M286.5,263.4c0.6-0.2,1.1-0.4,1.7-0.6C287.6,263,287,263.2,286.5,263.4z"/>
					<path id="XMLID_87_" class="st6" d="M286.5,263.4c-0.5,0.2-1,0.3-1.4,0.5C285.5,263.7,286,263.6,286.5,263.4z"/>
					<path id="XMLID_86_" class="st6" d="M283,264.4c0.5-0.1,1-0.3,1.5-0.4C284.1,264.2,283.6,264.3,283,264.4z"/>
					<path id="XMLID_85_" class="st2" d="M284.6,158.1l-7,7.8c-7.6,2.7-12.8,5.9-12.9,5.9s-6.9,3.6-13.5,11.1
						c-6.7,7.5-9.5,17.1-10.6,24.4l-5.6,6.2c0-0.1-1.1-21.3,11.4-35.4c6.6-7.4,13.4-11,13.5-11.1C260,166.9,271.1,160.2,284.6,158.1
						z"/>
					<path id="XMLID_84_" class="st6" d="M281.2,264.9c0.6-0.1,1.2-0.3,1.8-0.4C282.4,264.6,281.8,264.8,281.2,264.9z"/>
					<path id="XMLID_83_" class="st6" d="M279.5,265.2c0.6-0.1,1.2-0.2,1.8-0.4C280.7,265,280.1,265.1,279.5,265.2z"/>
					<path id="XMLID_82_" class="st6" d="M277.6,165.9l-37,41.3c1.1-7.3,3.9-16.8,10.6-24.4c6.6-7.4,13.4-11,13.5-11.1
						C264.7,171.8,270,168.6,277.6,165.9z"/>
					<path id="XMLID_81_" class="st2" d="M255.3,263.4c-0.8-0.3-1.7-0.7-2.5-1c-7.4-3.5-16.6-11.1-18-27.5c1.7,2.5,3.7,4.7,5.9,6.7
						c2.9,11.9,10.5,17.8,16.9,20.8c4.6,2.1,9.8,3.3,15.2,3.6h-0.1h-0.1C266.6,266.3,260.6,265.4,255.3,263.4z"/>
					<path id="XMLID_80_" class="st6" d="M270.4,244.7c2.9,0,5.8-0.3,8.6-0.7C276.2,244.5,273.3,244.7,270.4,244.7
						c-0.3,0-0.6,0-0.9,0C269.8,244.7,270.1,244.7,270.4,244.7z"/>
					<path id="XMLID_79_" class="st6" d="M269.5,244.7c-0.5,0-1,0-1.5-0.1C268.5,244.7,269,244.7,269.5,244.7z"/>
					<path id="XMLID_78_" class="st6" d="M266.8,244.6c0.3,0,0.5,0,0.7,0.1C267.2,244.6,267,244.6,266.8,244.6z"/>
					<path id="XMLID_77_" class="st6" d="M265.2,244.4c0.2,0,0.4,0,0.6,0.1C265.6,244.5,265.4,244.4,265.2,244.4z"/>
					<path id="XMLID_76_" class="st6" d="M263.5,244.2c0.2,0,0.3,0.1,0.5,0.1C263.8,244.2,263.7,244.2,263.5,244.2z"/>
					<path id="XMLID_75_" class="st6" d="M258.4,243c-0.3-0.1-0.5-0.1-0.8-0.2c0,0,0,0-0.1,0C257.8,242.9,258.1,243,258.4,243z"/>
					<path id="XMLID_74_" class="st6" d="M245.4,236c0.2,0.2,0.4,0.4,0.7,0.6C245.9,236.4,245.6,236.2,245.4,236z"/>
				</g>
			</g>
		</g>
	</g>
</g>
<g id="Lager_2_5_">
	<g id="XMLID_6_">
		<g id="XMLID_48_">
			<g id="XMLID_130_">
				<path id="XMLID_157_" class="st7" d="M278.1,372.7c0.5,0.5,0.9,1,1.3,1.6C278.9,373.8,278.5,373.3,278.1,372.7z"/>
				<path id="XMLID_154_" class="st2" d="M278.1,372.7c0.5,0.5,0.8,1,1.3,1.6C279,373.7,278.5,373.3,278.1,372.7z M280.7,376
					c-17.5-2.5-41.4-11.5-63.2-21l2.2-3.7c18.1,7.9,42.4,17.5,58.1,21.3c-0.4-0.6-0.7-1.1-1.2-1.6
					C278.1,372.7,279.5,374.4,280.7,376z"/>
				<path id="XMLID_153_" class="st7" d="M276.6,371c0.4,0.6,0.9,1.1,1.2,1.6c-15.8-3.8-40-13.3-58.1-21.3l3.2-5.3
					c0.9-1.4,0.6-3.3-0.4-4.6c-0.3-0.4-0.6-0.8-1.1-1c-0.8-0.4-1.5-0.6-2.2-0.5c-1.3,0.1-2.5,0.8-3.2,2l-3.6,6.2
					c-9.2-4.2-23.9-11.8-31.6-15.7l4.9-8.3c0.9-1.4,0.7-3.2-0.3-4.4c0-0.3-0.3-0.7-1.1-1.2c-2.4-1.4-4.5-0.5-5.6,1.4l-5.3,9
					c-2.4-1.3-3.6-1.9-4-2.1c-2.7-1.6-3.9-6.1-2.9-11.7c0-0.1,0.5-4.2,3.8-9.8c2.7-4.6,6.7-7.9,6.8-8c0,0.1,2-1.4,4.2-1.7l0,0
					c1.1,0.6,11.9,7.6,26.3,17.7l-6.9,11.7c-0.9,1.4-0.6,3.3,0.4,4.6c0.2,0.4,0.5,0.6,0.9,0.9c0.2,0.1,0.4,0.2,0.6,0.3
					c0.1,0,0.3,0.1,0.4,0.1c1.7,0.5,3.7-0.1,4.7-1.8l6.4-11c9,6.5,18,13.3,28.1,21.3l-4.4,7.5c-1.1,1.9-0.2,4.6,1.6,5.7
					c0.3,0.2,0.7,0.3,1,0.4c0,0,0,0,0.1,0c1.7,0.5,3.5-0.3,4.5-1.9l3.8-6.4c10.6,8.9,20.4,17.9,27.8,26.3
					C276.6,370.9,276.6,371,276.6,371z"/>
				<path id="XMLID_152_" class="st8" d="M248.1,343.7c10.2,8.6,21.7,18.4,28.5,27.2c-7.3-8.4-17.1-17.5-27.8-26.3l-3.8,6.4
					c-1,1.6-2.8,2.4-4.5,1.9c1.4,0.2,2.6-0.9,3.4-2.4L248.1,343.7z"/>
				<path id="XMLID_151_" class="st8" d="M222.5,345.5c0.8-1.4,0.9-3,0.1-4.2c1.1,1.3,1.3,3.1,0.4,4.6l-3.2,5.3
					c-0.2-0.1-0.4-0.1-0.6-0.3L222.5,345.5z"/>
				<path id="XMLID_150_" class="st8" d="M216,341.9c0.8-1.2,2-1.9,3.2-2c-1.1,0.2-2.1,1-2.8,2.2l-3.7,6.2c-0.1,0-0.3-0.1-0.3-0.2
					L216,341.9z"/>
				<path id="XMLID_146_" class="st8" d="M217.6,355c21.8,9.4,45.7,18.4,63.2,21c-1.2-1.6-2.6-3.3-4.1-5l0-0.1
					c-6.8-8.7-18.3-18.6-28.5-27.2l-4.2,6.7c-0.8,1.5-2,2.6-3.4,2.4c0,0,0,0-0.1,0c-0.3-0.1-0.7-0.2-0.9-0.5
					c-1.9-1.2-2.5-3.7-1.5-5.5l4.4-7.5c-9.5-7.6-19.4-15-28.3-21.4l-0.1,0c0-0.1-0.2-0.1-0.2-0.1l-6.5,11.1
					c-0.9,1.6-2.8,2.3-4.4,1.9c-0.1,0-0.3-0.1-0.4-0.1c-0.1,0-0.3-0.2-0.4-0.2c-0.4-0.2-0.8-0.6-1-1c-0.6-1,0-2.5,0.8-3.8l6.9-11.7
					c-14.5-10.1-26.5-17.8-27.5-18.5l-0.1,0c-2.6-1.5-7.1-0.4-11.4,3.2c-0.2,0.1-4.1,3.4-6.8,8.1c-3.3,5.6-3.7,9.7-3.8,9.8
					c-1,5.6,0.2,10,2.8,11.6c0.6,0.3,3.8,2.1,8.9,4.7l7.6-12.9c1.2-1.9,3.7-2.5,5.5-1.5c0.5,0.3,0.9,0.7,1.2,1.1
					c0.1,0.9-1.2,1.6-2,2.9l-5.1,8.6c0.7,0.3,1.6,0.8,2.5,1.2l-2.4,4.2c8.5,4.2,19.7,9.7,31.9,15.2l2.2-3.7c0.1,0,0.3,0.1,0.3,0.2
					l3.7-6.2c0.7-1.1,1.7-1.9,2.8-2.2c0.8,0,1.6,0.1,2.3,0.6c0.4,0.2,0.8,0.6,1,1c0.8,1.2,0.7,2.8-0.1,4.2l-3.3,5.5l0,0l-2.1,3.6
					l2.1-3.6c0.3,0.1,0.4,0.1,0.6,0.3L217.6,355z M144.6,294.5l-25.1-14.9c0.1,0,0.1,0,0.3,0.1l-2.2-1.4c-0.4-0.2-0.9-0.2-1.3,0
					l-0.1,0c-0.3,0.1-0.4,0.3-0.5,0.5c-0.4,0.6-0.2,1.4,0.4,1.8l27.2,16l1.3,0.8c0.8,1,1.1,2.6,0.6,3.8c-0.7,1.8-2.5,2.9-4.4,2.6
					c-6.7-1.1-13.4-1.2-19.9-0.3c-0.5,0.1-1.3,0.4-1.1,1.2c0.3,1,1.2,1.5,2.2,1.6l0,0l-0.1,0c10.1-1.1,20.7,0.2,30.8,3.9l0-0.1
					l0.1,0c0.8-2.5,2-5.1,3.5-7.6c1.5-2.5,3.1-4.7,4.9-6.7c-8.1-7.1-14.3-15.6-18.3-25c-0.3-0.9-1.4-1.4-2.4-1.2
					c-0.3,0-0.8,0.2-0.5,1.5c1.6,6.3,6.2,11.8,9.9,17.3c1.2,1.6,1.2,3.6-0.1,5.1C148.5,295.1,146.4,295.5,144.6,294.5L144.6,294.5z
					 M292.3,378.6c0.7,1.2,0.7,2.8-0.1,4c-0.7,1.2-2.1,1.9-3.5,1.9c-39.6-0.6-126.8-47.5-130.4-49.5l-0.1,0
					c-5.3-3.1-7.7-9.5-7.1-16.9c-9.2-3.6-18.9-4.8-28.2-3.9c-5,0.5-9.5-2.6-10.8-7.3c-0.6-2.5-0.2-5.1,1.2-7.2
					c1.5-2.3,3.8-3.6,6.6-4c1.8-0.2,3.5-0.4,5.3-0.5l-13.1-7.7c-4.4-2.6-5.9-8.3-3.3-12.7c2.6-4.4,8.3-5.9,12.7-3.3l13.1,7.7
					c-0.8-1.6-1.5-3.3-2.2-4.9c-1.1-2.7-1-5.4,0.2-7.8c1.2-2.3,3.4-3.8,5.8-4.5c4.8-1.1,9.6,1.3,11.7,5.9
					c3.6,8.7,9.5,16.5,17.1,22.8c6.2-4.1,12.9-5.2,18.2-2l0.1,0C189.2,291,272.5,344.3,292.3,378.6z"/>
				<path id="XMLID_145_" class="st8" d="M219.1,351.1L219.1,351.1l-2.1,3.6L219.1,351.1z"/>
				<path id="XMLID_144_" class="st8" d="M203,330.9c1.6,0.4,3.5-0.3,4.4-1.9l6.5-11.1c0,0.1,0.2,0.1,0.2,0.1l-6.4,11
					C206.7,330.6,204.7,331.4,203,330.9z"/>
				<path id="XMLID_143_" class="st2" d="M212.4,348.1l-2.2,3.7c-12.2-5.5-23.4-11-31.9-15.2l2.4-4.2
					C188.5,336.3,203.2,343.9,212.4,348.1z"/>
				<path id="XMLID_142_" class="st8" d="M181.4,295.6c1,0.6,13,8.4,27.5,18.5l-6.9,11.7c-0.9,1.4-1.4,2.8-0.8,3.8
					c-1.1-1.3-1.3-3.1-0.4-4.6l6.9-11.7C193.2,303.2,182.3,296.2,181.4,295.6L181.4,295.6C181.3,295.6,181.4,295.6,181.4,295.6z"/>
				<path id="XMLID_141_" class="st8" d="M185.4,319.7c1,1.3,1.1,3,0.3,4.4l-4.9,8.3c-0.9-0.5-1.8-0.9-2.5-1.2l5.1-8.6
					C184.1,321.4,185.5,320.6,185.4,319.7z"/>
				<path id="XMLID_140_" class="st2" d="M178.7,320.1L171,333c-5.2-2.6-8.4-4.4-8.9-4.7c-2.7-1.6-3.8-6-2.8-11.6
					c0-0.1,0.5-4.2,3.8-9.8c2.7-4.6,6.6-8,6.8-8.1c4.4-3.6,8.7-4.7,11.4-3.2c-2.2,0.4-4.1,1.8-4.2,1.7c-0.1,0-4.2,3.3-6.8,8
					c-3.3,5.6-3.7,9.7-3.8,9.8c-1,5.6,0.2,10.1,2.9,11.7c0.4,0.1,1.6,0.8,4,2.1l5.3-9c1.1-1.9,3.1-2.7,5.6-1.4
					c0.8,0.4,1.1,0.8,1.1,1.2c-0.3-0.4-0.7-0.8-1.2-1.1C182.3,317.5,179.9,318.2,178.7,320.1z"/>
				<path id="XMLID_139_" class="st9" d="M142.6,271.1C142.7,271.1,142.7,271.1,142.6,271.1C142.7,271.2,142.6,271.1,142.6,271.1z"
					/>
				<path id="XMLID_138_" class="st2" d="M142.1,272.6c1.7,6.4,6.2,11.8,10,17.3c1.1,1.6,1.1,3.7-0.2,5.2c-1.3,1.5-3.4,1.9-5,0.9
					l-2.2-1.4c1.7,1,3.7,0.6,5.1-0.8c1.3-1.5,1.3-3.5,0.1-5.1c-3.8-5.5-8.3-11-9.9-17.3c-0.3-1.3,0.2-1.4,0.5-1.5
					c1-0.3,2,0.2,2.4,1.2c4,9.4,10.2,17.9,18.3,25c-1.8,2-3.4,4.2-4.9,6.7c-1.5,2.5-2.7,5.1-3.5,7.6l-0.1,0c0.9-2.5,1.9-4.9,3.4-7.4
					c1.5-2.5,3.1-4.7,4.9-6.7c-8.1-7-14.3-15.5-18.3-24.9c0-0.1,0-0.1,0-0.1C142.3,271.1,141.8,271.3,142.1,272.6z"/>
				<path id="XMLID_137_" class="st8" d="M116.3,278.4c0.4-0.2,0.9-0.2,1.3,0l2.2,1.4c-0.1,0-0.2-0.1-0.3-0.1l-2-1.2
					C117.1,278.2,116.6,278.2,116.3,278.4z"/>
				<path id="XMLID_136_" class="st2" d="M117.4,278.5c-0.4-0.3-0.8-0.3-1.2-0.1c0,0,0,0,0.1,0C116.6,278.2,117.1,278.2,117.4,278.5
					l2.1,1.2c-0.1,0-0.1,0-0.2,0L117.4,278.5z"/>
				<path id="XMLID_135_" class="st9" d="M116.3,280.6c-0.6-0.4-0.8-1.2-0.4-1.8c0.1-0.2,0.3-0.4,0.5-0.4c0.4-0.2,0.8-0.2,1.2,0.1
					l1.9,1.1c-0.5-0.1-1,0.2-1.3,0.6c-0.4,0.6-0.2,1.4,0.4,1.8L116.3,280.6z"/>
				<path id="XMLID_134_" class="st8" d="M115.7,278.9c-0.4,0.6-0.2,1.4,0.4,1.8l27.3,15.9c0.4,0.2,0.8,0.6,1.2,1l-1.3-0.8l-27.2-16
					C115.5,280.4,115.3,279.6,115.7,278.9c0-0.1,0.3-0.4,0.5-0.4C116,278.5,115.9,278.7,115.7,278.9z"/>
				<path id="XMLID_133_" class="st9" d="M143.4,296.6l-27.3-15.9c-0.6-0.4-0.8-1.2-0.4-1.8c0.1-0.2,0.3-0.4,0.5-0.4l0,0
					c-0.2,0.1-0.3,0.3-0.5,0.4c-0.4,0.6-0.2,1.4,0.4,1.8l2.2,1.4c-0.6-0.4-0.8-1.2-0.4-1.8c0.2-0.4,0.8-0.7,1.3-0.6l25.3,14.9l0,0.1
					l2.2,1.4c1.6,1,3.7,0.6,5-0.9s1.3-3.6,0.2-5.2c-3.9-5.5-8.4-10.8-10-17.3c-0.3-1.3,0.2-1.4,0.5-1.5l0,0.1
					c4,9.4,10.2,17.9,18.3,24.9c-1.7,1.9-3.4,4.2-4.9,6.7s-2.5,4.9-3.4,7.4c-10-3.5-20.5-4.9-30.6-3.8l-0.1,0c0-0.1,0-0.1-0.1-0.2
					c-0.2-0.9,0.7-1.1,1.1-1.2c6.4-0.8,13.2-0.6,19.9,0.5c1.9,0.3,3.7-0.8,4.4-2.6c0.6-1.9-0.1-3.8-1.8-4.8l-0.9-0.5
					C144.3,297.2,143.9,296.8,143.4,296.6z"/>
				<path id="XMLID_132_" class="st2" d="M122,306.4c-1,0-2-0.6-2.2-1.6c-0.3-0.8,0.6-1.1,1.1-1.2c6.5-0.8,13.2-0.7,19.9,0.3
					c1.9,0.3,3.7-0.8,4.4-2.6c0.5-1.3,0.2-2.8-0.6-3.8l0.9,0.5c1.7,1,2.4,2.9,1.8,4.8c-0.7,1.8-2.5,2.9-4.4,2.6
					c-6.7-1.1-13.5-1.2-19.9-0.5c-0.4,0.1-1.3,0.3-1.1,1.2C121.9,306.3,121.9,306.3,122,306.4z"/>
				<path id="XMLID_131_" class="st8" d="M152.6,310.4c-10.1-3.7-20.6-5-30.8-3.9l0.1,0l0,0l0.1,0c10.2-1,20.6,0.4,30.6,3.8
					C152.7,310.2,152.6,310.4,152.6,310.4z"/>
			</g>
		</g>
	</g>
</g>
</svg>
